<?xml version="1.0" encoding="UTF-8" standalone="no"?>
<svg
   xmlns:dc="http://purl.org/dc/elements/1.1/"
   xmlns:cc="http://creativecommons.org/ns#"
   xmlns:rdf="http://www.w3.org/1999/02/22-rdf-syntax-ns#"
   xmlns:svg="http://www.w3.org/2000/svg"
   xmlns="http://www.w3.org/2000/svg"
   xmlns:sodipodi="http://sodipodi.sourceforge.net/DTD/sodipodi-0.dtd"
   xmlns:inkscape="http://www.inkscape.org/namespaces/inkscape"
   height="480pt"
   viewBox="0 -63 480 479"
   width="480pt"
   id="svg11733"
   version="1.1"
   inkscape:version="0.48.5 r10040"
   sodipodi:docname="air-conditioner.svg">
  <metadata
     id="metadata11755">
    <rdf:RDF>
      <cc:Work
         rdf:about="">
        <dc:format>image/svg+xml</dc:format>
        <dc:type
           rdf:resource="http://purl.org/dc/dcmitype/StillImage" />
      </cc:Work>
    </rdf:RDF>
  </metadata>
  <defs
     id="defs11753" />
  <sodipodi:namedview
     pagecolor="#ffffff"
     bordercolor="#666666"
     borderopacity="1"
     objecttolerance="10"
     gridtolerance="10"
     guidetolerance="10"
     inkscape:pageopacity="0"
     inkscape:pageshadow="2"
     inkscape:window-width="640"
     inkscape:window-height="480"
     id="namedview11751"
     showgrid="false"
     inkscape:zoom="0.39333333"
     inkscape:cx="300"
     inkscape:cy="300"
     inkscape:window-x="0"
     inkscape:window-y="0"
     inkscape:window-maximized="0"
     inkscape:current-layer="svg11733" />
  <g
     id="g11757">
    <path
       id="path11735"
       fill="#bcbec0"
       d="m472 24.5v112h-464v-112c.027344-8.824219 7.175781-15.972656 16-16h432c8.824219.027344 15.972656 7.175781 16 16zm0 0" />
    <path
       id="path11737"
       fill="#ffe477"
       d="m24 168.5h432c8.835938 0 16-7.164062 16-16v-16h-464v16c0 8.835938 7.164062 16 16 16zm0 0" />
    <path
       id="path11739"
       fill="#66a7f6"
       d="m344 80.5h96v32h-96zm0 0" />
    <path
       id="path11741"
       d="m456 .5h-432c-13.253906 0-24 10.746094-24 24v128c0 13.253906 10.746094 24 24 24h432c13.253906 0 24-10.746094 24-24v-128c0-13.253906-10.746094-24-24-24zm-432 16h432c4.417969 0 8 3.582031 8 8v104h-448v-104c0-4.417969 3.582031-8 8-8zm432 144h-432c-4.417969 0-8-3.582031-8-8v-8h448v8c0 4.417969-3.582031 8-8 8zm0 0" />
    <path
       id="path11743"
       d="m253.121094 216.5c0-4.417969-3.582032-8-8-8-4.417969 0-8 3.582031-8 8 .183594 6.230469-1.3125 12.398438-4.328125 17.855469-7.878907 15.59375-7.878907 34.007812 0 49.601562 5.769531 11.21875 5.769531 24.539063 0 35.757813-4.066407 7.617187-6.105469 16.152344-5.914063 24.785156 0 4.417969 3.582032 8 8 8 4.417969 0 8-3.582031 8-8-.183594-6.238281 1.3125-12.410156 4.328125-17.871094 7.875-15.597656 7.875-34.003906 0-49.601562-5.769531-11.214844-5.769531-24.527344 0-35.742188 4.070313-7.617187 6.109375-16.152344 5.914063-24.785156zm0 0" />
    <path
       id="path11745"
       d="m125.121094 216.5c0-4.417969-3.582032-8-8-8-4.417969 0-8 3.582031-8 8 .183594 6.230469-1.3125 12.398438-4.328125 17.855469-7.878907 15.59375-7.878907 34.007812 0 49.601562 5.769531 11.21875 5.769531 24.539063 0 35.757813-4.066407 7.617187-6.105469 16.152344-5.914063 24.785156 0 4.417969 3.582032 8 8 8 4.417969 0 8-3.582031 8-8-.183594-6.238281 1.3125-12.410156 4.328125-17.871094 7.875-15.597656 7.875-34.003906 0-49.601562-5.769531-11.214844-5.769531-24.527344 0-35.742188 4.070313-7.617187 6.109375-16.152344 5.914063-24.785156zm0 0" />
    <path
       id="path11747"
       d="m381.121094 216.5c0-4.417969-3.582032-8-8-8-4.417969 0-8 3.582031-8 8 .183594 6.230469-1.3125 12.398438-4.328125 17.855469-7.878907 15.59375-7.878907 34.007812 0 49.601562 5.769531 11.21875 5.769531 24.539063 0 35.757813-4.066407 7.617187-6.105469 16.152344-5.914063 24.785156 0 4.417969 3.582032 8 8 8 4.417969 0 8-3.582031 8-8-.183594-6.238281 1.3125-12.410156 4.328125-17.871094 7.875-15.597656 7.875-34.003906 0-49.601562-5.769531-11.214844-5.769531-24.527344 0-35.742188 4.070313-7.617187 6.109375-16.152344 5.914063-24.785156zm0 0" />
    <path
       id="path11749"
       d="m344 120.5h96c4.417969 0 8-3.582031 8-8v-32c0-4.417969-3.582031-8-8-8h-96c-4.417969 0-8 3.582031-8 8v32c0 4.417969 3.582031 8 8 8zm8-32h80v16h-80zm0 0" />
  </g>
</svg>
