<?xml version="1.0" encoding="UTF-8" standalone="no"?>
<svg
   xmlns:dc="http://purl.org/dc/elements/1.1/"
   xmlns:cc="http://creativecommons.org/ns#"
   xmlns:rdf="http://www.w3.org/1999/02/22-rdf-syntax-ns#"
   xmlns:svg="http://www.w3.org/2000/svg"
   xmlns="http://www.w3.org/2000/svg"
   xmlns:sodipodi="http://sodipodi.sourceforge.net/DTD/sodipodi-0.dtd"
   xmlns:inkscape="http://www.inkscape.org/namespaces/inkscape"
   height="512pt"
   viewBox="0 0 512 512.00087"
   width="512pt"
   id="svg5076"
   version="1.1"
   inkscape:version="0.48.5 r10040"
   sodipodi:docname="big-data.svg">
  <metadata
     id="metadata5146">
    <rdf:RDF>
      <cc:Work
         rdf:about="">
        <dc:format>image/svg+xml</dc:format>
        <dc:type
           rdf:resource="http://purl.org/dc/dcmitype/StillImage" />
      </cc:Work>
    </rdf:RDF>
  </metadata>
  <defs
     id="defs5144" />
  <sodipodi:namedview
     pagecolor="#ffffff"
     bordercolor="#666666"
     borderopacity="1"
     objecttolerance="10"
     gridtolerance="10"
     guidetolerance="10"
     inkscape:pageopacity="0"
     inkscape:pageshadow="2"
     inkscape:window-width="640"
     inkscape:window-height="480"
     id="namedview5142"
     showgrid="false"
     inkscape:zoom="0.36875"
     inkscape:cx="320"
     inkscape:cy="320"
     inkscape:window-x="0"
     inkscape:window-y="0"
     inkscape:window-maximized="0"
     inkscape:current-layer="svg5076" />
  <g
     id="g5148">
    <path
       id="path5078"
       fill="#b3d8f4"
       d="m410.984375 128.597656c0-.183594.003906-.367187.003906-.546875 0-66.578125-53.96875-120.550781-120.546875-120.550781-51.867187 0-96.082031 32.757812-113.089844 78.714844-7.09375-4.097656-15.320312-6.453125-24.101562-6.453125-26.671875 0-48.289062 21.617187-48.289062 48.289062 0 .074219.003906.148438.003906.222657-54.410156 3.496093-97.464844 48.726562-97.464844 104.019531 0 57.574219 46.671875 104.246093 104.242188 104.246093h30.207031v-15.953124c0-5.457032 11.746093-10.417969 30.914062-14.101563 20.800781 4 50.351563 6.5 83.132813 6.5 32.785156 0 62.332031-2.5 83.136718-6.5 19.167969 3.683594 30.910157 8.644531 30.910157 14.101563v15.953124h30.207031c57.574219 0 104.246094-46.671874 104.246094-104.246093 0-53.949219-40.980469-98.324219-93.511719-103.695313zm0 0" />
    <path
       id="path5080"
       fill="#78b9eb"
       d="m262.960938 78.867188h-24.195313v84.648437h-25.835937l50.03125 50.496094zm0 0" />
    <path
       id="path5082"
       fill="#78b9eb"
       d="m289.03125 224.828125h24.195312v-84.644531h25.839844l-50.035156-50.5zm0 0" />
    <path
       id="path5084"
       fill="#fff"
       d="m339.132812 306.484375c-20.804687 4-50.351562 6.5-83.136718 6.5-32.78125 0-62.332032-2.5-83.132813-6.5-19.167969 3.683594-30.914062 8.644531-30.914062 14.101563 0 11.375 51.0625 20.597656 114.046875 20.597656 62.988281 0 114.046875-9.222656 114.046875-20.597656 0-5.457032-11.742188-10.417969-30.910157-14.101563zm0 0" />
    <path
       id="path5086"
       fill="#c6c5ca"
       d="m255.996094 341.183594c-62.984375 0-114.046875-9.222656-114.046875-20.597656v67.554687c0 11.375 51.0625 20.597656 114.046875 20.597656 62.988281 0 114.046875-9.222656 114.046875-20.597656v-67.554687c0 11.375-51.058594 20.597656-114.046875 20.597656zm0 0" />
    <path
       id="path5088"
       fill="#c6c5ca"
       d="m255.996094 436.941406c-62.984375 0-114.046875-9.222656-114.046875-20.601562v67.554687c0 11.378907 51.0625 20.601563 114.046875 20.601563 62.988281 0 114.046875-9.222656 114.046875-20.601563v-67.554687c0 11.378906-51.058594 20.601562-114.046875 20.601562zm0 0" />
    <path
       id="path5090"
       fill="#c6c5ca"
       d="m255.996094 245.429688c-62.984375 0-114.046875-9.222657-114.046875-20.601563v67.554687c0 11.378907 51.0625 20.601563 114.046875 20.601563 62.988281 0 114.046875-9.222656 114.046875-20.601563v-67.554687c0 11.378906-51.058594 20.601563-114.046875 20.601563zm0 0" />
    <path
       id="path5092"
       fill="#fff"
       d="m339.132812 402.238281c-20.804687 4.003907-50.351562 6.5-83.136718 6.5-32.78125 0-62.332032-2.496093-83.132813-6.5-19.167969 3.6875-30.914062 8.648438-30.914062 14.101563 0 11.378906 51.0625 20.601562 114.046875 20.601562 62.988281 0 114.046875-9.222656 114.046875-20.601562 0-5.453125-11.742188-10.414063-30.910157-14.101563zm0 0" />
    <path
       id="path5094"
       fill="#57a4ff"
       d="m242.960938 78.867188h-24.195313v84.648437h-25.835937l50.03125 50.496094zm0 0" />
    <path
       id="path5096"
       fill="#d7fc7e"
       d="m269.035156 224.828125h24.191406v-84.644531h25.839844l-50.03125-50.5zm0 0" />
    <path
       id="path5098"
       fill="#fff"
       d="m293.226562 205.351562v19.476563h-24.195312v-20.464844c-4.277344-.089843-8.625-.136719-13.035156-.136719-4.40625 0-8.753906.046876-13.035156.136719v9.648438l-9.300782-9.386719c-52.289062 1.875-91.710937 10.207031-91.710937 20.203125 0 11.378906 51.0625 20.601563 114.046875 20.601563 62.988281 0 114.046875-9.222657 114.046875-20.601563 0-9.023437-32.109375-16.6875-76.816407-19.476563zm0 0" />
    <g
       id="g5100"
       fill="#78b9eb">
      <path
         id="path5102"
         d="m183.246094 79.761719c8.785156 0 17.011718 2.355469 24.105468 6.453125 15.34375-41.453125 52.820313-72.171875 98.085938-77.789063-4.914062-.609375-9.917969-.925781-14.996094-.925781-49.449218 0-91.945312 29.777344-110.535156 72.378906 1.105469-.078125 2.21875-.117187 3.339844-.117187zm0 0" />
      <path
         id="path5104"
         d="m37.5 232.292969c0-55.292969 43.054688-100.527344 97.464844-104.019531 0-.074219-.003906-.148438-.003906-.222657 0-21.429687 13.957031-39.59375 33.273437-45.910156-4.714844-1.542969-9.753906-2.378906-14.984375-2.378906-26.667969 0-48.289062 21.617187-48.289062 48.289062 0 .074219.003906.148438.007812.222657-54.414062 3.496093-97.46875 48.726562-97.46875 104.019531 0 57.574219 46.671875 104.246093 104.242188 104.246093h30c-57.570313 0-104.242188-46.671874-104.242188-104.246093zm0 0" />
      <path
         id="path5106"
         d="m369.132812 306.484375c-5.386718 1.035156-11.355468 1.96875-17.816406 2.785156 11.835938 3.246094 18.726563 7.136719 18.726563 11.316407v15.953124h30v-15.953124c0-5.457032-11.742188-10.417969-30.910157-14.101563zm0 0" />
      <path
         id="path5108"
         d="m202.863281 306.484375c-4.488281.863281-8.566406 1.792969-12.183593 2.785156 18.5 2.339844 41.019531 3.714844 65.316406 3.714844 5.085937 0 10.09375-.0625 15-.179687-26.738282-.632813-50.554688-2.941407-68.132813-6.320313zm0 0" />
    </g>
    <path
       id="path5110"
       fill="#d8d7da"
       d="m171.949219 320.585938c0-4.179688 6.890625-8.066407 18.730469-11.316407-6.460938-.816406-12.433594-1.75-17.816407-2.785156-19.167969 3.683594-30.914062 8.644531-30.914062 14.101563 0 11.375 51.0625 20.597656 114.046875 20.597656 5.085937 0 10.09375-.058594 15-.175782-55.894532-1.328124-99.046875-9.964843-99.046875-20.421874zm0 0" />
    <path
       id="path5112"
       fill="#898890"
       d="m171.949219 483.894531v-53.628906c-18.628907-3.667969-30-8.554687-30-13.925781v67.554687c0 11.378907 51.0625 20.601563 114.046875 20.601563 5.085937 0 10.09375-.058594 15-.175782-55.894532-1.328124-99.046875-9.964843-99.046875-20.425781zm0 0" />
    <path
       id="path5114"
       fill="#898890"
       d="m285.996094 245.429688c33.265625 0 63.203125-2.574219 84.046875-6.675782v-13.925781c0 10.460937-43.148438 19.097656-99.046875 20.425781 4.910156.113282 9.917968.175782 15 .175782zm0 0" />
    <path
       id="path5116"
       fill="#898890"
       d="m171.949219 292.382812v-53.628906c-18.628907-3.667968-30-8.558594-30-13.925781v67.554687c0 11.378907 51.0625 20.601563 114.046875 20.601563 5.085937 0 10.09375-.0625 15-.179687-55.894532-1.324219-99.046875-9.964844-99.046875-20.421876zm0 0" />
    <path
       id="path5118"
       fill="#d8d7da"
       d="m171.949219 416.339844c0-4.179688 6.890625-8.066406 18.730469-11.3125-6.460938-.816406-12.433594-1.75-17.816407-2.785156-19.167969 3.683593-30.914062 8.644531-30.914062 14.097656 0 11.378906 51.0625 20.601562 114.046875 20.601562 5.085937 0 10.09375-.058594 15-.175781-55.894532-1.328125-99.046875-9.964844-99.046875-20.425781zm0 0" />
    <path
       id="path5120"
       fill="#898890"
       d="m171.949219 388.140625v-53.632813c-18.628907-3.664062-30-8.554687-30-13.921874v67.554687c0 11.375 51.0625 20.597656 114.046875 20.597656 5.085937 0 10.09375-.058593 15-.175781-55.894532-1.324219-99.046875-9.964844-99.046875-20.421875zm0 0" />
    <path
       id="path5122"
       fill="#d8d7da"
       d="m323.226562 208.1875c-7.433593-.980469-15.546874-1.804688-24.195312-2.441406v19.082031h24.195312zm0 0" />
    <path
       id="path5124"
       fill="#d8d7da"
       d="m171.949219 224.828125c0-8.09375 25.84375-15.097656 63.433593-18.464844l-1.722656-1.738281c-52.292968 1.875-91.710937 10.207031-91.710937 20.203125 0 11.378906 51.0625 20.601563 114.046875 20.601563 5.085937 0 10.089844-.0625 15-.175782-55.894532-1.328125-99.046875-9.964844-99.046875-20.425781zm0 0" />
    <path
       id="path5126"
       d="m250.460938 71.367188h-39.195313v84.648437h-36.324219l75.519532 76.222656zm-15 124.417968-24.542969-24.773437h15.351562v-84.644531h9.195313v109.417968zm0 0" />
    <path
       id="path5128"
       d="m337.054688 147.683594-75.523438-76.226563v160.871094h39.195312v-84.644531zm-51.328126-15v84.644531h-9.195312v-109.417969l24.542969 24.773438zm0 0" />
    <path
       id="path5130"
       d="m418.351562 122.011719c-3.167968-67.8125-59.328124-122.011719-127.910156-122.011719-52.328125 0-97.203125 31.351562-117.042968 76.03125-34.21875-13.257812-71.289063 9.640625-75.542969 45.382812-55.382813 6.882813-97.855469 54.355469-97.855469 110.878907 0 61.617187 50.128906 111.746093 111.746094 111.746093h10.207031v-15h-10.207031c-53.347656 0-96.746094-43.402343-96.746094-96.746093 0-50.875 39.730469-93.277344 90.449219-96.535157l7.0625-.453124c0-.222657-.042969-7.125-.050781-7.347657.050781-22.449219 18.328124-40.695312 40.789062-40.695312 7.140625 0 14.179688 1.882812 20.351562 5.449219l7.699219 4.445312 3.085938-8.339844c16.339843-44.152344 58.960937-73.816406 106.054687-73.816406 62.335938 0 113.050782 50.714844 113.050782 113.050781l-.027344 7.316407 6.753906.691406c49.472656 5.058594 86.777344 46.429687 86.777344 96.234375 0 53.34375-43.398438 96.746093-96.746094 96.746093h-10.207031v15h10.207031c61.617188 0 111.746094-50.128906 111.746094-111.746093 0-54.910157-39.902344-101.519531-93.644532-110.28125zm0 0" />
    <path
       id="path5132"
       d="m356.578125 207.230469c-10.40625-3.195313-25.125-5.851563-42.566406-7.683594l-1.566407 14.917969c29.316407 3.078125 43.035157 7.640625 48.1875 10.394531-9.722656 5.238281-45.226562 13.070313-104.636718 13.070313-59.367188 0-94.863282-7.820313-104.613282-13.058594 5.707032-3.007813 21.753907-8.210938 56.34375-11.183594l-1.285156-14.945312c-19.664062 1.6875-36.394531 4.355468-48.390625 7.71875-10.128906 2.835937-23.601562 7.828124-23.601562 18.367187v67.554687c0 5.671876 3.746093 10.277344 11.746093 14.101563-8.003906 3.816406-11.746093 8.417969-11.746093 14.101563v67.554687c0 5.671875 3.746093 10.277344 11.746093 14.097656-8.003906 3.820313-11.746093 8.417969-11.746093 14.101563v67.554687c0 10.234375 12.203125 17.003907 39.570312 21.949219 45.453125 8.210938 118.496094 8.210938 163.953125 0 27.367188-4.945312 39.570313-11.710938 39.570313-21.949219v-67.554687c0-5.683594-3.742188-10.28125-11.742188-14.101563 7.996094-3.820312 11.742188-8.425781 11.742188-14.097656v-67.554687c0-5.683594-3.742188-10.285157-11.742188-14.101563 7.996094-3.824219 11.742188-8.429687 11.742188-14.101563v-67.554687c.003906-10-11.964844-14.832031-20.964844-17.597656zm5.96875 33.117187v50.804688c-5.808594 5.125-42.125 14.332031-106.546875 14.332031-64.425781 0-100.738281-9.207031-106.546875-14.332031v-50.804688c42.84375 17.105469 172.140625 16.347656 213.09375 0zm-213.097656 95.757813c42.886719 17.117187 172.199219 16.324219 213.097656 0v50.800781c-5.808594 5.125-42.125 14.332031-106.546875 14.332031-64.425781 0-100.738281-9.207031-106.546875-14.332031v-50.800781zm106.546875 160.890625c-64.421875 0-100.738282-9.207032-106.546875-14.332032v-50.804687c42.847656 17.105469 172.144531 16.347656 213.097656 0v50.804687c-5.8125 5.125-42.125 14.332032-106.550781 14.332032zm104.59375-80.597656c-9.785156 5.234374-45.273438 13.042968-104.59375 13.042968-59.316406 0-94.804688-7.808594-104.59375-13.042968 2.910156-1.566407 9.046875-4.039063 21.480468-6.519532 46.058594 8.535156 120.695313 8.4375 166.230469 0 12.429688 2.480469 18.566407 4.953125 21.476563 6.519532zm0-95.757813c-9.785156 5.238281-45.273438 13.042969-104.59375 13.042969-59.316406 0-94.804688-7.804688-104.59375-13.042969 2.910156-1.566406 9.046875-4.039063 21.480468-6.519531 45.5625 8.445312 119.390626 8.464844 165.089844.207031.382813-.066406.761719-.136719 1.136719-.207031 12.433594 2.480468 18.574219 4.953125 21.480469 6.519531zm0 0" />
    <path
       id="path5134"
       fill="#fff"
       d="m400.253906 319.039062v-15c22.753906 0 44.40625-11.007812 57.914063-29.449218l12.101562 8.863281c-16.324219 22.28125-42.496093 35.585937-70.015625 35.585937zm75.910156-44.796874-13.117187-7.273438c2.191406-3.957031 4.015625-8.136719 5.417969-12.417969l14.257812 4.664063c-1.699218 5.183594-3.90625 10.242187-6.558594 15.027344zm9.292969-25.636719-14.734375-2.8125c.84375-4.417969 1.273438-8.960938 1.273438-13.5h15c0 5.480469-.515625 10.96875-1.539063 16.3125zm0 0" />
    <path
       id="path5136"
       fill="#fff"
       d="m255.996094 295.523438v-15c4.957031 0 9.941406-.058594 14.824218-.171876l.355469 14.996094c-5 .117188-10.105469.175782-15.179687.175782zm25.300781-.5-.605469-14.988282c4.996094-.203125 9.96875-.46875 14.777344-.792968l1.011719 14.964843c-4.941407.332031-10.050781.609375-15.183594.816407zm25.308594-1.601563-1.316407-14.941406c17.546876-1.546875 32.535157-3.894531 43.339844-6.785157l3.875 14.492188c-11.632812 3.109375-27.503906 5.609375-45.898437 7.234375zm0 0" />
    <path
       id="path5138"
       fill="#fff"
       d="m255.996094 391.238281v-15c4.957031 0 9.941406-.058593 14.824218-.171875l.355469 14.996094c-5 .117188-10.105469.175781-15.179687.175781zm25.300781-.5-.605469-14.988281c4.996094-.199219 9.96875-.46875 14.777344-.792969l1.011719 14.964844c-4.941407.335937-10.050781.609375-15.183594.816406zm25.308594-1.601562-1.316407-14.941407c17.546876-1.546874 32.535157-3.894531 43.339844-6.78125l3.875 14.488282c-11.632812 3.109375-27.503906 5.613281-45.898437 7.234375zm0 0" />
    <path
       id="path5140"
       fill="#fff"
       d="m255.996094 487.035156v-15c4.957031 0 9.941406-.058594 14.824218-.175781l.355469 14.996094c-5 .117187-10.105469.179687-15.179687.179687zm25.300781-.503906-.605469-14.988281c4.996094-.199219 9.96875-.46875 14.777344-.792969l1.011719 14.964844c-4.941407.335937-10.050781.609375-15.183594.816406zm25.308594-1.601562-1.316407-14.941407c17.542969-1.546875 32.53125-3.894531 43.34375-6.78125l3.871094 14.492188c-11.632812 3.109375-27.503906 5.609375-45.898437 7.230469zm0 0" />
  </g>
</svg>
