<svg height="496pt" viewBox="0 0 496 496" width="496pt" xmlns="http://www.w3.org/2000/svg" xmlns:xlink="http://www.w3.org/1999/xlink"><linearGradient id="a" gradientUnits="userSpaceOnUse" x1="248" x2="248" y1="496" y2="0"><stop offset="0" stop-color="#9f2fff"/><stop offset="1" stop-color="#0bb1d3"/></linearGradient><path d="m128 248c0-22.054688-17.945312-40-40-40s-40 17.945312-40 40 17.945312 40 40 40 40-17.945312 40-40zm-40 24c-13.230469 0-24-10.769531-24-24s10.769531-24 24-24 24 10.769531 24 24-10.769531 24-24 24zm360-112v-160h-299.3125l-68.6875 68.6875v91.3125h-13.769531l-6.542969 19.648438-18.519531-9.265626-30.785157 30.785157 9.257813 18.511719-19.640625 6.550781v43.53125l19.640625 6.550781-9.257813 18.511719 30.785157 30.785156 18.519531-9.265625 6.542969 19.65625h13.769531v160h368v-160h48v-176zm-304-132.6875v36.6875h-36.6875zm-72.359375 274.304688-3.5625-1.34375c-1.015625-.386719-2.015625-.785157-3-1.226563l-3.460937-1.550781-17.296876 8.65625-14.472656-14.472656 8.648438-17.296876-1.550782-3.460937c-.449218-1-.839843-2.011719-1.242187-3.035156l-1.351563-3.527344-18.351562-6.128906v-20.46875l18.351562-6.121094 1.351563-3.527344c.402344-1.023437.800781-2.042969 1.242187-3.035156l1.550782-3.460937-8.648438-17.296876 14.472656-14.472656 17.296876 8.648438 3.460937-1.550782c.984375-.441406 1.984375-.839843 3-1.226562l3.5625-1.34375 6.128906-18.375h20.46875l6.128907 18.382812 3.5625 1.34375c1.015624.386719 2.015624.785157 3 1.226563l3.460937 1.550781 17.296875-8.648437 14.472656 14.472656-8.648437 17.296875 1.550781 3.464844c.449219 1 .839844 2.007812 1.242188 3.03125l1.351562 3.527344 18.34375 6.121093v20.46875l-18.351562 6.121094-1.351563 3.527344c-.402344 1.023437-.800781 2.042969-1.242187 3.035156l-1.550782 3.460937 8.648438 17.296876-14.472656 14.472656-17.296876-8.648438-3.460937 1.550782c-.984375.441406-1.984375.839843-3 1.226562l-3.5625 1.34375-6.128906 18.375h-20.46875zm408.359375 18.382812h-304v16h256v144h-336v-144h13.769531l6.542969-19.648438 18.519531 9.265626 30.785157-30.785157-9.257813-18.511719 19.640625-6.550781v-43.53125l-19.640625-6.550781 9.257813-18.511719-30.785157-30.785156-18.519531 9.265625-6.542969-19.65625h-13.769531v-80h64v-64h272v144h-256v16h304zm-272-80h-16v-48h16zm96 0h-16v-48h16zm32 0h-16v-48h16zm96 0h-16v-48h16zm32 0h-16v-48h16zm-216 0c13.230469 0 24-10.769531 24-24s-10.769531-24-24-24-24 10.769531-24 24 10.769531 24 24 24zm0-32c4.414062 0 8 3.59375 8 8s-3.585938 8-8 8-8-3.59375-8-8 3.585938-8 8-8zm128 32c13.230469 0 24-10.769531 24-24s-10.769531-24-24-24-24 10.769531-24 24 10.769531 24 24 24zm0-32c4.414062 0 8 3.59375 8 8s-3.585938 8-8 8-8-3.59375-8-8 3.585938-8 8-8zm88 96h-16v-48h16zm-96 0h-16v-48h16zm-112-48h16v48h-16zm-16 48h-16v-48h16zm-32 0h-16v-48h16zm176-24c0 13.230469 10.769531 24 24 24s24-10.769531 24-24-10.769531-24-24-24-24 10.769531-24 24zm24-8c4.414062 0 8 3.59375 8 8s-3.585938 8-8 8-8-3.59375-8-8 3.585938-8 8-8zm-96 32c13.230469 0 24-10.769531 24-24s-10.769531-24-24-24-24 10.769531-24 24 10.769531 24 24 24zm0-32c4.414062 0 8 3.59375 8 8s-3.585938 8-8 8-8-3.59375-8-8 3.585938-8 8-8zm104-224h-16v-16h16zm-32 0h-112v-16h112zm32 32h-240v-16h240zm-288 32h-16v-16h16zm288 0h-272v-16h272zm0 32h-304v-16h304zm-288 224h-16v-16h16zm16-16h272v16h-272zm64 32h208v16h-208zm-16 16h-80v-16h80zm-80 16h304v16h-304zm288 32h16v16h-16zm-288 0h272v16h-272zm0 0" fill="url(#a)"/></svg>