<svg height="447pt" viewBox="-15 0 447 447" width="447pt" xmlns="http://www.w3.org/2000/svg"><path d="m311 6c47.714844-.003906 88.785156 33.699219 98.09375 80.496094 9.3125 46.796875-15.734375 93.652344-59.8125 111.914062-44.082031 18.257813-94.925781 2.835938-121.433594-36.835937-26.507812-39.671875-21.296875-92.546875 12.441406-126.285157 18.730469-18.785156 44.183594-29.328124 70.710938-29.289062zm71.429688 100c0-39.449219-31.980469-71.429688-71.429688-71.429688s-71.429688 31.980469-71.429688 71.429688 31.980469 71.429688 71.429688 71.429688 71.429688-31.980469 71.429688-71.429688zm0 0" fill="#f8ec7d"/><path d="m300.230469 67.839844h-14.230469v76.921875h30.769531c10.621094 0 19.230469-8.609375 19.230469-19.230469s-8.609375-19.230469-19.230469-19.230469c10.621094 0 19.230469-8.609375 19.230469-19.230469 0-10.621093-8.609375-19.230468-19.230469-19.230468zm10.769531-33.269532c39.449219 0 71.429688 31.980469 71.429688 71.429688s-31.980469 71.429688-71.429688 71.429688-71.429688-31.980469-71.429688-71.429688 31.980469-71.429688 71.429688-71.429688zm0 0" fill="#e48e66"/><path d="m316.769531 67.839844c10.621094 0 19.230469 8.609375 19.230469 19.230468 0 10.621094-8.609375 19.230469-19.230469 19.230469h-30.769531v-38.460937zm0 0" fill="#f8ec7d"/><path d="m316.769531 106.300781c10.621094 0 19.230469 8.609375 19.230469 19.230469s-8.609375 19.230469-19.230469 19.230469h-30.769531v-38.460938zm0 0" fill="#f8ec7d"/><path d="m319.5 387c0 9.390625-7.609375 17-17 17s-17-7.609375-17-17 7.609375-17 17-17 17 7.609375 17 17zm0 0" fill="#5acde0"/><path d="m261.5 387c0 9.390625-7.609375 17-17 17s-17-7.609375-17-17 7.609375-17 17-17 17 7.609375 17 17zm0 0" fill="#5acde0"/><path d="m319.5 247c0 9.390625-7.609375 17-17 17s-17-7.609375-17-17 7.609375-17 17-17 17 7.609375 17 17zm0 0" fill="#5acde0"/><path d="m261.5 247c0 9.390625-7.609375 17-17 17s-17-7.609375-17-17 7.609375-17 17-17 17 7.609375 17 17zm0 0" fill="#5acde0"/><path d="m350 337v100c0 5.523438-4.476562 10-10 10h-330c-5.523438 0-10-4.476562-10-10v-100c0-5.523438 4.476562-10 10-10h40v3h250v-3h40c5.523438 0 10 4.476562 10 10zm-30.5 50c0-9.390625-7.609375-17-17-17s-17 7.609375-17 17 7.609375 17 17 17 17-7.609375 17-17zm-58 0c0-9.390625-7.609375-17-17-17s-17 7.609375-17 17 7.609375 17 17 17 17-7.609375 17-17zm0 0" fill="#6fe3ff"/><path d="m350 198.109375v98.890625c0 5.523438-4.476562 10-10 10h-40v-4h-250v4h-40c-5.523438 0-10-4.476562-10-10v-100c0-5.523438 4.476562-10 10-10h40v3h206.71875c27.839844 17.960938 62.761719 20.996094 93.28125 8.109375zm-30.5 48.890625c0-9.390625-7.609375-17-17-17s-17 7.609375-17 17 7.609375 17 17 17 17-7.609375 17-17zm-58 0c0-9.390625-7.609375-17-17-17s-17 7.609375-17 17 7.609375 17 17 17 17-7.609375 17-17zm0 0" fill="#6fe3ff"/><path d="m10 47h220.261719c-25.144531 34.414062-25.71875 80.976562-1.433594 116h-178.828125v4h-40c-5.523438 0-10-4.476562-10-10v-100c0-5.523438 4.476562-10 10-10zm0 0" fill="#6fe3ff"/><g fill="#2561a1"><path d="m300 336h-250c-3.3125 0-6-2.6875-6-6v-27c0-3.3125 2.6875-6 6-6h250c3.3125 0 6 2.6875 6 6v27c0 3.3125-2.6875 6-6 6zm-244-12h238v-15h-238zm0 0"/><path d="m30.5 408c-3.3125 0-6-2.6875-6-6v-30c0-3.3125 2.6875-6 6-6s6 2.6875 6 6v30c0 3.3125-2.6875 6-6 6zm0 0"/><path d="m56.898438 408c-3.3125 0-6-2.6875-6-6v-30c0-3.3125 2.6875-6 6-6 3.316406 0 6 2.6875 6 6v30c0 3.3125-2.683594 6-6 6zm0 0"/><path d="m83.300781 408c-3.316406 0-6-2.6875-6-6v-30c0-3.3125 2.683594-6 6-6 3.3125 0 6 2.6875 6 6v30c0 3.3125-2.6875 6-6 6zm0 0"/><path d="m109.699219 408c-3.3125 0-6-2.6875-6-6v-30c0-3.3125 2.6875-6 6-6 3.316406 0 6 2.6875 6 6v30c0 3.3125-2.683594 6-6 6zm0 0"/><path d="m136.101562 408c-3.316406 0-6-2.6875-6-6v-30c0-3.3125 2.683594-6 6-6 3.3125 0 6 2.6875 6 6v30c0 3.3125-2.6875 6-6 6zm0 0"/><path d="m30.5 268c-3.3125 0-6-2.6875-6-6v-30c0-3.3125 2.6875-6 6-6s6 2.6875 6 6v30c0 3.3125-2.6875 6-6 6zm0 0"/><path d="m56.898438 268c-3.3125 0-6-2.6875-6-6v-30c0-3.3125 2.6875-6 6-6 3.316406 0 6 2.6875 6 6v30c0 3.3125-2.683594 6-6 6zm0 0"/><path d="m83.300781 268c-3.316406 0-6-2.6875-6-6v-30c0-3.3125 2.683594-6 6-6 3.3125 0 6 2.6875 6 6v30c0 3.3125-2.6875 6-6 6zm0 0"/><path d="m109.699219 268c-3.3125 0-6-2.6875-6-6v-30c0-3.3125 2.6875-6 6-6 3.316406 0 6 2.6875 6 6v30c0 3.3125-2.683594 6-6 6zm0 0"/><path d="m136.101562 268c-3.316406 0-6-2.6875-6-6v-30c0-3.3125 2.683594-6 6-6 3.3125 0 6 2.6875 6 6v30c0 3.3125-2.6875 6-6 6zm0 0"/><path d="m258.308594 196h-208.308594c-3.3125 0-6-2.6875-6-6v-27c0-3.3125 2.6875-6 6-6h178.828125v12h-172.828125v15h202.308594zm0 0"/><path d="m30.5 128c-3.3125 0-6-2.6875-6-6v-30c0-3.3125 2.6875-6 6-6s6 2.6875 6 6v30c0 3.3125-2.6875 6-6 6zm0 0"/><path d="m56.898438 128c-3.3125 0-6-2.6875-6-6v-30c0-3.3125 2.6875-6 6-6 3.316406 0 6 2.6875 6 6v30c0 3.3125-2.683594 6-6 6zm0 0"/><path d="m83.300781 128c-3.316406 0-6-2.6875-6-6v-30c0-3.3125 2.683594-6 6-6 3.3125 0 6 2.6875 6 6v30c0 3.3125-2.6875 6-6 6zm0 0"/><path d="m109.699219 128c-3.3125 0-6-2.6875-6-6v-30c0-3.3125 2.6875-6 6-6 3.316406 0 6 2.6875 6 6v30c0 3.3125-2.683594 6-6 6zm0 0"/><path d="m136.101562 128c-3.316406 0-6-2.6875-6-6v-30c0-3.3125 2.683594-6 6-6 3.3125 0 6 2.6875 6 6v30c0 3.3125-2.6875 6-6 6zm0 0"/></g><path d="m311 189.609375c-3.3125 0-6 2.6875-6 6v10.390625c0 3.3125 2.6875 6 6 6s6-2.6875 6-6v-10.390625c0-3.3125-2.6875-6-6-6zm0 0" fill="#6fe3ff"/><path d="m311 22.390625c3.3125 0 6-2.6875 6-6v-10.390625c0-3.3125-2.6875-6-6-6s-6 2.6875-6 6v10.390625c0 3.3125 2.6875 6 6 6zm0 0" fill="#6fe3ff"/><path d="m411 100h-10.390625c-3.3125 0-6 2.6875-6 6s2.6875 6 6 6h10.390625c3.3125 0 6-2.6875 6-6s-2.6875-6-6-6zm0 0" fill="#6fe3ff"/><path d="m221.390625 100h-10.390625c-3.3125 0-6 2.6875-6 6s2.6875 6 6 6h10.390625c3.3125 0 6-2.6875 6-6s-2.6875-6-6-6zm0 0" fill="#6fe3ff"/><path d="m377.46875 31.046875-7.351562 7.351563c-1.535157 1.511718-2.144532 3.730468-1.589844 5.8125.550781 2.082031 2.179687 3.710937 4.261718 4.261718 2.082032.554688 4.300782-.054687 5.8125-1.589844l7.351563-7.351562c1.558594-1.503906 2.183594-3.738281 1.636719-5.835938-.550782-2.097656-2.1875-3.734374-4.285156-4.285156-2.097657-.546875-4.332032.078125-5.835938 1.636719zm0 0" fill="#6fe3ff"/><path d="m243.398438 165.117188-7.347657 7.351562c-1.558593 1.503906-2.183593 3.738281-1.636719 5.835938.550782 2.097656 2.1875 3.734374 4.285157 4.285156 2.097656.546875 4.328125-.078125 5.835937-1.636719l7.351563-7.351563c2.308593-2.347656 2.292969-6.121093-.035157-8.449218-2.332031-2.328125-6.101562-2.34375-8.453124-.035156zm0 0" fill="#6fe3ff"/><path d="m244.53125 31.046875c-1.503906-1.558594-3.738281-2.183594-5.835938-1.636719-2.097656.550782-3.734374 2.1875-4.285156 4.285156-.546875 2.097657.078125 4.332032 1.636719 5.835938l7.351563 7.351562c2.347656 2.308594 6.121093 2.292969 8.449218-.035156s2.34375-6.101562.035156-8.449218zm0 0" fill="#6fe3ff"/><path d="m378.601562 165.117188c-2.351562-2.308594-6.121093-2.292969-8.453124.035156-2.328126 2.328125-2.34375 6.101562-.035157 8.449218l7.351563 7.351563c1.507812 1.558594 3.738281 2.183594 5.835937 1.636719 2.097657-.550782 3.734375-2.1875 4.285157-4.285156.546874-2.097657-.078126-4.332032-1.636719-5.835938zm0 0" fill="#6fe3ff"/><path d="m342 87.070312c-.015625-10.972656-7.109375-20.683593-17.558594-24.035156v-8.484375c0-3.316406-2.6875-6-6-6-3.316406 0-6 2.683594-6 6v7.289063h-6.210937v-7.289063c0-3.316406-2.6875-6-6-6s-6 2.683594-6 6v7.289063h-8.230469c-3.3125 0-6 2.6875-6 6v76.921875c0 3.3125 2.6875 6 6 6h8.230469v6.6875c0 3.316406 2.6875 6 6 6s6-2.683594 6-6v-6.6875h6.210937v6.6875c0 3.316406 2.683594 6 6 6 3.3125 0 6-2.683594 6-6v-7.875c8.734375-2.785157 15.273438-10.09375 17.070313-19.085938 1.796875-8.992187-1.429688-18.25-8.421875-24.179687.519531-.445313 1.03125-.90625 1.523437-1.398438 4.746094-4.722656 7.40625-11.144531 7.386719-17.839844zm-12 38.460938c.003906 3.507812-1.390625 6.875-3.871094 9.355469-2.484375 2.484375-5.847656 3.875-9.359375 3.875h-24.769531v-26.460938h24.769531c7.304688.007813 13.222657 5.925781 13.230469 13.230469zm-38-25.230469v-26.460937h24.769531c7.308594 0 13.230469 5.921875 13.230469 13.230468 0 7.304688-5.921875 13.230469-13.230469 13.230469zm0 0" fill="#6fe3ff"/></svg>