<?xml version="1.0" encoding="iso-8859-1"?>
<!-- Generator: Adobe Illustrator 19.0.0, SVG Export Plug-In . SVG Version: 6.00 Build 0)  -->
<svg xmlns="http://www.w3.org/2000/svg" xmlns:xlink="http://www.w3.org/1999/xlink" version="1.1" id="Capa_1" x="0px" y="0px" viewBox="0 0 512 512" style="enable-background:new 0 0 512 512;" xml:space="preserve" width="512" height="512">
<g>
	<g>
		<path style="fill:#58565C;" d="M189.735,437.5v50.434c0,9.149-7.417,16.566-16.566,16.566H106.9    c-9.149,0-16.566-7.417-16.566-16.566V437.5H189.735z"/>
	</g>
	<g>
		<path style="fill:#58565C;" d="M421.671,437.5v50.434c0,9.149-7.417,16.566-16.566,16.566h-66.269    c-9.149,0-16.566-7.417-16.566-16.566V437.5H421.671z"/>
	</g>
	<path style="fill:#FFD151;" d="M140.033,47.999V13.5c0-3.314,2.686-6,6-6h219.933c3.314,0,6,2.686,6,6v34.498H140.033z"/>
	<rect x="189.734" y="7.5" style="fill:#F79B4A;" width="132.534" height="40.499"/>
	<path style="fill:#00BCE7;" d="M57.201,429.947c0,9.149,7.417,16.566,16.566,16.566h364.467c9.149,0,16.566-7.417,16.566-16.566   l0.001-356.181c0-18.299-14.834-33.134-33.134-33.134H90.333c-18.299,0-33.134,14.834-33.134,33.134L57.201,429.947z"/>
	<path style="fill:#0094D4;" d="M421.668,40.633h-20.001c18.299,0,33.134,14.834,33.134,33.133l-0.001,356.181   c0,9.149-7.417,16.566-16.566,16.566h20.001c9.149,0,16.566-7.417,16.566-16.566l0.001-356.181   C454.801,55.468,439.967,40.633,421.668,40.633z"/>
	<path style="fill:#0094D4;" d="M454.8,256h43.7c3.314,0,6-2.686,6-6v-87.401c0-3.314-2.686-6-6-6h-43.7H57.2h-43.7   c-3.314,0-6,2.686-6,6V250c0,3.314,2.686,6,6,6h43.7H454.8z"/>
	<path style="fill:#58565C;" d="M454.801,297.414H333.035c-1.591,0-3.117,0.632-4.243,1.757l-13.051,13.051   c-1.125,1.125-2.651,1.757-4.243,1.757H200.501c-1.591,0-3.118-0.632-4.243-1.758l-13.05-13.051   c-1.125-1.125-2.651-1.758-4.243-1.758H57.201v99.398H454.8L454.801,297.414z"/>
	<path style="fill:#FFD151;" d="M150.599,363.679H96.332c-3.314,0-6-2.686-6-6v-21.133c0-3.314,2.686-6,6-6h54.267   c3.314,0,6,2.686,6,6v21.133C156.599,360.993,153.913,363.679,150.599,363.679z"/>
	<path style="fill:#FFD151;" d="M415.667,363.679H361.4c-3.314,0-6-2.686-6-6v-21.133c0-3.314,2.686-6,6-6h54.267   c3.314,0,6,2.686,6,6v21.133C421.667,360.993,418.981,363.679,415.667,363.679z"/>
	<path style="fill:#F79B4A;" d="M415.667,330.546h-20.001c3.314,0,6,2.686,6,6v21.133c0,3.314-2.686,6-6,6h20.001   c3.314,0,6-2.686,6-6v-21.133C421.667,333.232,418.981,330.546,415.667,330.546z"/>
	<path style="fill:#F79B4A;" d="M151.002,330.546h-20.001c3.314,0,6,2.686,6,6v21.133c0,3.314-2.686,6-6,6h20.001   c3.314,0,6-2.686,6-6v-21.133C157.002,333.232,154.316,330.546,151.002,330.546z"/>
	<rect x="57.2" y="106.899" style="fill:#B6E3EE;" width="397.599" height="165.669"/>
	<path style="fill:#FF2551;" d="M189.736,106.899V71.483c0-3.314,2.686-6,6-6h120.531c3.314,0,6,2.686,6,6v35.416H189.736z"/>
	<path style="fill:#C21750;" d="M316.267,65.483h-19.998c3.314,0,6,2.686,6,6v35.415h19.998V71.483   C322.267,68.169,319.581,65.483,316.267,65.483z"/>
	<rect x="434.8" y="106.899" style="fill:#96D2E0;" width="20" height="165.669"/>
	<rect x="434.8" y="297.414" style="fill:#49484D;" width="20" height="99.398"/>
</g>
<g>
	<path d="M504.5,149.099h-42.198l0-75.332c0-22.405-18.228-40.634-40.634-40.634h-42.201V7.5c0-4.143-3.358-7.5-7.5-7.5H140.033   c-4.142,0-7.5,3.357-7.5,7.5v25.633h-42.2c-22.406,0-40.634,18.229-40.634,40.634l0,75.332H7.501c-4.142,0-7.5,3.357-7.5,7.5V256   c0,4.143,3.358,7.5,7.5,7.5H49.7l0.001,166.447c0,13.271,10.796,24.066,24.066,24.066h9.067v33.921   c0,13.27,10.796,24.065,24.066,24.065h66.27c13.27,0,24.066-10.796,24.066-24.065v-33.921h117.534v33.921   c0,13.27,10.796,24.065,24.066,24.065h66.266c13.27,0,24.066-10.796,24.066-24.065v-33.921h9.067   c13.27,0,24.066-10.796,24.066-24.066l0-132.521c0-0.004,0.001-0.008,0.001-0.012c0-0.004-0.001-0.008-0.001-0.012l0-33.902H504.5   c4.142,0,7.5-3.357,7.5-7.5v-99.401C512,152.456,508.642,149.099,504.5,149.099z M64.7,256.004c0-0.002,0-0.003,0-0.004   s0-0.003,0-0.005l0-99.384c0-0.004,0.001-0.008,0.001-0.013c0-0.004-0.001-0.008-0.001-0.013l0-42.188h382.602l0,42.176   c0,0.008-0.001,0.016-0.001,0.025s0.001,0.016,0.001,0.025l0,99.358c0,0.006-0.001,0.012-0.001,0.019s0.001,0.013,0.001,0.019   v9.048H158.986c-4.142,0-7.5,3.357-7.5,7.5c0,4.143,3.358,7.5,7.5,7.5h288.315l0,9.847H330.55c-1.989,0-3.897,0.79-5.303,2.197   l-14.369,14.369H201.123l-14.368-14.369c-1.407-1.407-3.314-2.197-5.304-2.197H64.7l0-9.847h64.317c4.142,0,7.5-3.357,7.5-7.5   c0-4.143-3.358-7.5-7.5-7.5H64.7V256.004z M314.767,99.398H197.236V72.983h117.531V99.398z M64.7,304.914h113.644l14.368,14.369   c1.407,1.407,3.315,2.197,5.304,2.197h115.968c1.989,0,3.897-0.79,5.303-2.197l14.369-14.369h113.644l0,84.398h-382.6L64.7,304.914   z M364.466,33.133h-34.698V15h34.698V33.133z M197.233,33.133V15h117.535v18.133H197.233z M147.533,15h34.7v18.133h-34.7V15z    M90.333,48.133h331.335c14.134,0,25.634,11.499,25.634,25.634l0,25.632H329.767V65.483c0-4.143-3.358-7.5-7.5-7.5H189.736   c-4.142,0-7.5,3.357-7.5,7.5v33.915H64.699l0-25.632C64.699,59.632,76.199,48.133,90.333,48.133z M15,248.5v-84.401H49.7l0,84.401   H15z M182.235,487.935c0,4.999-4.067,9.065-9.066,9.065h-0.785v-9.066c0-4.143-3.358-7.5-7.5-7.5s-7.5,3.357-7.5,7.5V497h-34.702   v-9.07c0-4.143-3.358-7.5-7.5-7.5c-4.142,0-7.5,3.357-7.5,7.5V497h-0.783c-4.999,0-9.066-4.066-9.066-9.065v-33.921h34.701v9.071   c0,4.143,3.358,7.5,7.5,7.5c4.142,0,7.5-3.357,7.5-7.5v-9.071h34.7V487.935z M414.167,487.935c0,4.999-4.067,9.065-9.066,9.065   h-0.785v-9.066c0-4.143-3.358-7.5-7.5-7.5c-4.142,0-7.5,3.357-7.5,7.5V497h-34.699v-9.066c0-4.143-3.358-7.5-7.5-7.5   c-4.142,0-7.5,3.357-7.5,7.5V497h-0.783c-4.999,0-9.066-4.066-9.066-9.065v-33.921h34.701v9.071c0,4.143,3.358,7.5,7.5,7.5   s7.5-3.357,7.5-7.5v-9.071h34.697V487.935z M438.234,439.014H73.767c-4.999,0-9.066-4.067-9.066-9.066l0-25.635h382.6l0,25.635   C447.3,434.946,443.233,439.014,438.234,439.014z M497,248.5h-34.699l0-84.401H497V248.5z"/>
	<path d="M156.599,323.046H90.333c-4.142,0-7.5,3.357-7.5,7.5v33.133c0,4.143,3.358,7.5,7.5,7.5h66.267c4.142,0,7.5-3.357,7.5-7.5   v-33.133C164.099,326.403,160.741,323.046,156.599,323.046z M149.099,356.179H97.833v-18.133h51.267V356.179z"/>
	<path d="M421.667,323.046H355.4c-4.142,0-7.5,3.357-7.5,7.5v33.133c0,4.143,3.358,7.5,7.5,7.5h66.267c4.142,0,7.5-3.357,7.5-7.5   v-33.133C429.167,326.403,425.809,323.046,421.667,323.046z M414.167,356.179H362.9v-18.133h51.267V356.179z"/>
	<path d="M256.001,339.613c-4.142,0-7.5,3.357-7.5,7.5v16.568c0,4.143,3.358,7.5,7.5,7.5c4.142,0,7.5-3.357,7.5-7.5v-16.568   C263.501,342.971,260.144,339.613,256.001,339.613z"/>
	<path d="M280.852,339.613c-4.142,0-7.5,3.357-7.5,7.5v16.568c0,4.143,3.358,7.5,7.5,7.5c4.142,0,7.5-3.357,7.5-7.5v-16.568   C288.352,342.971,284.994,339.613,280.852,339.613z"/>
	<path d="M305.703,339.613c-4.142,0-7.5,3.357-7.5,7.5v16.568c0,4.143,3.358,7.5,7.5,7.5c4.142,0,7.5-3.357,7.5-7.5v-16.568   C313.203,342.971,309.845,339.613,305.703,339.613z"/>
	<path d="M231.151,339.613c-4.142,0-7.5,3.357-7.5,7.5v16.568c0,4.143,3.358,7.5,7.5,7.5c4.142,0,7.5-3.357,7.5-7.5v-16.568   C238.651,342.971,235.293,339.613,231.151,339.613z"/>
	<path d="M206.3,339.613c-4.142,0-7.5,3.357-7.5,7.5v16.568c0,4.143,3.358,7.5,7.5,7.5c4.142,0,7.5-3.357,7.5-7.5v-16.568   C213.8,342.971,210.442,339.613,206.3,339.613z"/>
	<path d="M106.901,81.266h33.133c4.142,0,7.5-3.357,7.5-7.5s-3.358-7.5-7.5-7.5h-33.133c-4.142,0-7.5,3.357-7.5,7.5   S102.759,81.266,106.901,81.266z"/>
	<path d="M371.97,81.266h33.132c4.142,0,7.5-3.357,7.5-7.5s-3.358-7.5-7.5-7.5H371.97c-4.142,0-7.5,3.357-7.5,7.5   S367.828,81.266,371.97,81.266z"/>
</g>















</svg>
