<svg height="480pt" viewBox="0 -52 480 480" width="480pt" xmlns="http://www.w3.org/2000/svg"><path d="m214.03125 137.398438-29.8125-29.8125c-10.96875-10.976563-10.96875-28.769532 0-39.75l59.609375-59.609376c10.980469-10.96875 28.773437-10.96875 39.75 0l196.421875 196.421876-53.5 22.929687-60.988281 26.140625-24.613281 10.546875zm0 0" fill="#e48e66"/><path d="m426.5 227.578125c10.128906 10.132813 10.128906 26.558594 0 36.6875l-6.878906 6.882813c-10.128906 10.128906-26.550782 10.128906-36.679688 0l-17.429687-17.429688zm0 0" fill="#6fe3ff"/><path d="m209.550781 164.796875c-4.550781-9.148437-2.746093-20.179687 4.480469-27.398437l68.777344 68.777343c-7.21875 7.230469-18.25 9.035157-27.398438 4.480469-2.308594-1.136719-4.414062-2.652344-6.230468-4.480469l-35.148438-35.160156c-1.824219-1.8125-3.335938-3.914063-4.480469-6.21875zm0 0" fill="#e2d574"/><path d="m56.058594 310.605469h74.140625v12h-74.140625zm0 0" fill="#6fe3ff"/><path d="m177.339844 290.394531-10.980469-4.835937 31.605469-71.742188 10.972656 4.863282-.234375.519531zm0 0" fill="#6fe3ff"/><g fill="#f8ec7d"><path d="m260 46.976562c-2.425781 0-4.613281-1.460937-5.542969-3.703124-.929687-2.242188-.414062-4.824219 1.300781-6.539063l4.46875-4.46875c1.511719-1.550781 3.734376-2.167969 5.828126-1.617187 2.089843.550781 3.726562 2.183593 4.277343 4.277343.546875 2.089844-.070312 4.316407-1.621093 5.824219l-4.46875 4.46875c-1.125 1.128906-2.652344 1.761719-4.242188 1.757812zm0 0"/><path d="m282.160156 69.128906c-2.429687 0-4.617187-1.464844-5.542968-3.707031-.929688-2.246094-.414063-4.828125 1.304687-6.542969l4.46875-4.457031c2.351563-2.308594 6.125-2.289063 8.453125.042969 2.328125 2.332031 2.335938 6.101562.023438 8.449218l-4.46875 4.460938c-1.125 1.125-2.648438 1.753906-4.238282 1.753906zm0 0"/><path d="m304.320312 91.289062c-2.429687 0-4.617187-1.464843-5.542968-3.707031-.929688-2.246093-.414063-4.828125 1.304687-6.542969l4.46875-4.457031c2.351563-2.308593 6.125-2.289062 8.453125.042969s2.335938 6.101562.023438 8.449219l-4.46875 4.460937c-1.125 1.125-2.648438 1.753906-4.238282 1.753906zm0 0"/><path d="m326.480469 113.449219c-2.429688-.003907-4.617188-1.464844-5.542969-3.707031-.929688-2.246094-.414062-4.828126 1.304688-6.542969l4.46875-4.457031c1.515624-1.535157 3.734374-2.140626 5.816406-1.585938 2.082031.554688 3.707031 2.183594 4.257812 4.265625.550782 2.082031-.058594 4.300781-1.597656 5.8125l-4.46875 4.460937c-1.125 1.125-2.648438 1.753907-4.238281 1.753907zm0 0"/><path d="m348.640625 135.605469c-2.425781.003906-4.617187-1.460938-5.542969-3.703125-.929687-2.242188-.417968-4.820313 1.300782-6.539063l4.46875-4.46875c2.34375-2.34375 6.144531-2.34375 8.484374 0 2.34375 2.34375 2.34375 6.144531 0 8.484375l-4.46875 4.472656c-1.125 1.125-2.652343 1.757813-4.242187 1.753907zm0 0"/><path d="m370.800781 157.765625c-2.425781 0-4.613281-1.457031-5.542969-3.699219-.929687-2.242187-.417968-4.820312 1.296876-6.535156l4.457031-4.472656c1.511719-1.535156 3.730469-2.148438 5.8125-1.597656 2.085937.550781 3.714843 2.175781 4.269531 4.257812s-.050781 4.304688-1.585938 5.816406l-4.460937 4.46875c-1.125 1.132813-2.652344 1.765625-4.246094 1.761719zm0 0"/><path d="m392.960938 179.925781c-2.425782 0-4.613282-1.460937-5.542969-3.699219-.929688-2.242187-.417969-4.820312 1.296875-6.539062l4.457031-4.46875c1.511719-1.539062 3.730469-2.148438 5.8125-1.597656 2.085937.550781 3.714844 2.175781 4.269531 4.257812.554688 2.082032-.050781 4.304688-1.585937 5.816406l-4.460938 4.46875c-1.125 1.132813-2.652343 1.765626-4.246093 1.761719zm0 0"/><path d="m415.121094 202.085938c-2.425782 0-4.613282-1.460938-5.542969-3.699219-.929687-2.242188-.417969-4.820313 1.292969-6.539063l4.460937-4.46875c1.511719-1.539062 3.730469-2.148437 5.8125-1.597656 2.085938.550781 3.714844 2.175781 4.269531 4.257812.550782 2.082032-.050781 4.304688-1.585937 5.816407l-4.460937 4.46875c-1.125 1.128906-2.652344 1.765625-4.246094 1.761719zm0 0"/></g><path d="m174.554688 282.621094c-4.855469-2.460938-10.222657-3.738282-15.664063-3.722656-19.226563.019531-34.808594 15.601562-34.832031 34.828124 0 1.113282.058594 2.273438.167968 3.445313.011719.132813.03125.265625.050782.402344 1.839844 16.5625 15.160156 29.503906 31.769531 30.867187 16.613281 1.359375 31.859375-9.238281 36.371094-25.285156 4.511719-16.042969-2.976563-33.035156-17.863281-40.53125zm0 0" fill="#e48e66"/><path d="m58.308594 316.605469c.042968.851562.0625 1.710937.0625 2.570312 0 31.171875-25.269532 56.441407-56.441406 56.441407h-1.929688v-112.878907h1.929688c30.171874 0 55.003906 23.730469 56.378906 53.867188zm0 0" fill="#cc7350"/><path d="m203.21875 216.765625c-12.5625-12.679687-12.511719-33.128906.109375-45.75l6.222656-6.21875c1.144531 2.304687 2.65625 4.40625 4.480469 6.21875l35.148438 35.160156c1.816406 1.828125 3.921874 3.34375 6.230468 4.480469l-6.230468 6.222656c-12.660157 12.660156-33.1875 12.660156-45.851563 0zm0 0" fill="#f8ec7d"/></svg>