<svg height="480pt" viewBox="-24 0 480 480" width="480pt" xmlns="http://www.w3.org/2000/svg" xmlns:xlink="http://www.w3.org/1999/xlink"><linearGradient id="a"><stop offset="0" stop-color="#fec183"/><stop offset=".173" stop-color="#fea981"/><stop offset=".538" stop-color="#fe6b7b"/><stop offset="1" stop-color="#ff1572"/></linearGradient><linearGradient id="b" gradientUnits="userSpaceOnUse" x1="-40" x2="470.312" xlink:href="#a" y1="240" y2="240"/><linearGradient id="c" gradientUnits="userSpaceOnUse" x1="-40" x2="470.312" xlink:href="#a" y1="152" y2="152"/><linearGradient id="d" gradientUnits="userSpaceOnUse" x1="-40" x2="470.312" xlink:href="#a" y1="216" y2="216"/><linearGradient id="e" gradientUnits="userSpaceOnUse" x1="-40" x2="470.312" xlink:href="#a" y1="352" y2="352"/><linearGradient id="f" gradientUnits="userSpaceOnUse" x1="-40" x2="470.312" xlink:href="#a" y1="336" y2="336"/><linearGradient id="g" gradientUnits="userSpaceOnUse" x1="-40" x2="470.312" xlink:href="#a" y1="416" y2="416"/><linearGradient id="h" gradientUnits="userSpaceOnUse" x1="-40" x2="470.312" xlink:href="#a" y1="400" y2="400"/><linearGradient id="i" gradientUnits="userSpaceOnUse" x1="-40" x2="470.312" xlink:href="#a" y1="139.576" y2="139.576"/><linearGradient id="j" gradientUnits="userSpaceOnUse" x1="-40" x2="470.312" xlink:href="#a" y1="203.576" y2="203.576"/><linearGradient id="k" gradientUnits="userSpaceOnUse" x1="-40" x2="470.312" xlink:href="#a" y1="267.576" y2="267.576"/><path d="m40 0v32h-40v448h267.3125l52.6875-52.6875v-256l109.65625-109.65625c3.121094-3.125 3.121094-8.1875 0-11.3125l-32-32c-3.125-3.121094-8.1875-3.121094-11.3125 0l-66.34375 66.34375v-52.6875h-40v-32h-48v32h-16v-32h-48v32h-16v-32h-48v32h-16v-32zm16 16h16v48h-16zm216 436.6875v-20.6875h20.6875zm120-417.375 20.6875 20.6875-44.6875 44.6875-20.6875-20.6875zm-56 56 20.6875 20.6875-132.6875 132.6875-20.6875-20.6875zm-126.015625 161.992188-26.785156 11.496093 11.464843-26.753906zm38.015625-237.304688h16v48h-16zm-64 0h16v48h-16zm-64 0h16v48h-16zm-16 32v32h48v-32h16v32h48v-32h16v32h48v-32h24v52.6875l-117.65625 117.65625c-.648438.777344-1.214844 1.617188-1.695312 2.503906l-.0625.152344-21.859376 51h-90.726562v16h96c1.082031.003906 2.15625-.21875 3.152344-.648438l55.847656-23.9375.152344-.0625c.886718-.480468 1.726562-1.046874 2.503906-1.695312l74.34375-74.34375v228.6875h-40c-4.417969 0-8 3.582031-8 8v40h-240v-416h24v32h48v-32zm0 0" fill="url(#b)"/><path d="m72 144h144v16h-144zm0 0" fill="url(#c)"/><path d="m72 208h96v16h-96zm0 0" fill="url(#d)"/><path d="m96 344h144v16h-144zm0 0" fill="url(#e)"/><path d="m32 360h48v-48h-48zm16-32h16v16h-16zm0 0" fill="url(#f)"/><path d="m96 408h144v16h-144zm0 0" fill="url(#g)"/><path d="m32 424h48v-48h-48zm16-32h16v16h-16zm0 0" fill="url(#h)"/><path d="m71.160156 123.574219-14.320312-7.148438-12.414063 24.839844-8.851562-4.425781-7.148438 14.320312 23.148438 11.574219zm0 0" fill="url(#i)"/><path d="m71.160156 187.574219-14.320312-7.148438-12.414063 24.839844-8.851562-4.425781-7.148438 14.320312 23.148438 11.574219zm0 0" fill="url(#j)"/><path d="m71.160156 251.574219-14.320312-7.148438-12.414063 24.839844-8.851562-4.425781-7.148438 14.320312 23.148438 11.574219zm0 0" fill="url(#k)"/></svg>