<svg height="512pt" viewBox="0 0 512 512" width="512pt" xmlns="http://www.w3.org/2000/svg"><path d="m512 256c0 2.320312-.03125 4.640625-.101562 6.941406-3.570313 134.429688-110.777344 243.019532-244.636719 248.808594-3.730469.171875-7.492188.25-11.261719.25-.828125 0-1.660156 0-2.480469-.011719-1.539062-.019531-3.078125-.039062-4.621093-.089843-10.148438-.269532-20.136719-1.136719-29.957032-2.570313-1.851562-.269531-3.691406-.558594-5.519531-.867187-1.121094-.191407-2.242187-.382813-3.351563-.589844-1.730468-.3125-3.449218-.640625-5.171874-.992188-116.898438-23.667968-204.898438-127-204.898438-250.878906 0-141.378906 114.621094-256 256-256 116.921875 0 215.53125 78.378906 246.160156 185.46875 2.480469 8.660156 4.511719 17.5 6.070313 26.511719 1.007812 5.859375 1.828125 11.789062 2.441406 17.78125.027344.339843.066406.667969.097656 1.007812.230469 2.320313.421875 4.660157.582031 7 .429688 6.019531.648438 12.101563.648438 18.230469zm0 0" fill="#ffbf00"/><path d="m511.898438 262.941406c-3.570313 134.429688-110.777344 243.019532-244.636719 248.808594-3.730469.171875-7.492188.25-11.261719.25-.828125 0-1.660156 0-2.480469-.011719l-123.28125-123.46875 252-266 129.113281 129.25c.257813 3.699219.449219 7.421875.546876 11.171875zm0 0" fill="#ebb200"/><path d="m130 122.535156h252v266h-252zm0 0" fill="#fff"/><path d="m256 122.53125h126v266h-126zm0 0" fill="#ebf6fc"/><g fill="#cde1e6"><path d="m160 223.421875h192v20h-192zm0 0"/><path d="m160 253.421875h192v20h-192zm0 0"/><path d="m160 152.421875h192v60h-192zm0 0"/></g><path d="m256 152.421875h96v60h-96zm0 0" fill="#b4d2d7"/><path d="m256 223.421875h96v20h-96zm0 0" fill="#b4d2d7"/><path d="m256 253.421875h96v20h-96zm0 0" fill="#b4d2d7"/><path d="m246.363281 408.585938 9.625-10.84375 9.628907 10.84375 7.882812 8.878906v-69.308594h-35v69.285156zm0 0" fill="#ff475a"/><path d="m273.5 348.148438v69.320312l-7.878906-8.878906-9.621094-10.839844v-49.601562zm0 0" fill="#f03049"/><path d="m294.5 340.164062-8.53125 9.738282 1.179688 12.894531-12.632813 2.855469-6.617187 11.136718-11.898438-5.125-11.898438 5.125-6.617187-11.136718-12.632813-2.855469 1.179688-12.894531-8.53125-9.738282 8.53125-9.738281-1.179688-12.894531 12.632813-2.855469 6.617187-11.136719 11.898438 5.125 11.898438-5.125 6.617187 11.136719 12.632813 2.855469-1.179688 12.894531zm0 0" fill="#ffbf00"/><path d="m285.96875 349.898438 1.179688 12.902343-12.636719 2.847657-1.011719 1.703124-5.601562 9.4375-11.898438-5.117187v-63l11.898438-5.132813 6.613281 11.140626 12.636719 2.851562-1.179688 12.898438 8.53125 9.742187zm0 0" fill="#ebb200"/><path d="m281 340.164062c0 13.808594-11.191406 25-25 25s-25-11.191406-25-25c0-13.804687 11.191406-25 25-25s25 11.195313 25 25zm0 0" fill="#ebb200"/><path d="m281 340.171875c0 6.988281-2.871094 13.308594-7.5 17.839844-4.5 4.429687-10.691406 7.160156-17.5 7.160156v-50c13.808594 0 25 11.1875 25 25zm0 0" fill="#c99c47"/></svg>