<?xml version="1.0" encoding="UTF-8" standalone="no"?>
<!-- Generator: Adobe Illustrator 19.0.0, SVG Export Plug-In . SVG Version: 6.00 Build 0)  -->

<svg
   xmlns:dc="http://purl.org/dc/elements/1.1/"
   xmlns:cc="http://creativecommons.org/ns#"
   xmlns:rdf="http://www.w3.org/1999/02/22-rdf-syntax-ns#"
   xmlns:svg="http://www.w3.org/2000/svg"
   xmlns="http://www.w3.org/2000/svg"
   xmlns:sodipodi="http://sodipodi.sourceforge.net/DTD/sodipodi-0.dtd"
   xmlns:inkscape="http://www.inkscape.org/namespaces/inkscape"
   version="1.1"
   id="Layer_1"
   x="0px"
   y="0px"
   viewBox="0 0 512.003 512.003"
   style="enable-background:new 0 0 512.003 512.003;"
   xml:space="preserve"
   inkscape:version="0.48.5 r10040"
   width="100%"
   height="100%"
   sodipodi:docname="customer.svg"><metadata
   id="metadata11938"><rdf:RDF><cc:Work
       rdf:about=""><dc:format>image/svg+xml</dc:format><dc:type
         rdf:resource="http://purl.org/dc/dcmitype/StillImage" /><dc:title></dc:title></cc:Work></rdf:RDF></metadata><defs
   id="defs11936" /><sodipodi:namedview
   pagecolor="#ffffff"
   bordercolor="#666666"
   borderopacity="1"
   objecttolerance="10"
   gridtolerance="10"
   guidetolerance="10"
   inkscape:pageopacity="0"
   inkscape:pageshadow="2"
   inkscape:window-width="1920"
   inkscape:window-height="1018"
   id="namedview11934"
   showgrid="false"
   inkscape:zoom="0.9218696"
   inkscape:cx="565.63263"
   inkscape:cy="294.63957"
   inkscape:window-x="-8"
   inkscape:window-y="-8"
   inkscape:window-maximized="1"
   inkscape:current-layer="Layer_1" />

































<g
   id="g12448"><path
     inkscape:connector-curvature="0"
     id="path11898"
     d="m 363.582,247.187 12.775,-6.388 c 2.99,-1.495 4.879,-4.551 4.879,-7.895 V 199.68 c 0,-3.343 -1.889,-6.4 -4.879,-7.895 l -12.775,-6.388 v 61.79 z"
     style="fill:#e6af78;fill-opacity:1" /><path
     inkscape:connector-curvature="0"
     id="path11858"
     d="m 148.422,247.187 -12.775,-6.388 c -2.99,-1.495 -4.879,-4.551 -4.879,-7.895 V 199.68 c 0,-3.343 1.889,-6.4 4.879,-7.895 l 12.775,-6.388 v 61.79 z"
     style="fill:#e6af78;fill-opacity:1" /><polygon
     id="polygon11860"
     points="335.446,361.939 335.446,300.15 176.558,300.15 176.558,361.939 256.002,432.556 "
     style="fill:#E6AF78;" /><path
     id="path11862"
     d="M458.286,390.843l-109.229-25.701c-1.65-0.388-3.167-1.047-4.587-1.846l-88.469,51.607L170.982,360.8  c-2.201,2.072-4.933,3.612-8.036,4.343L53.717,390.844c-15.95,3.753-27.222,17.985-27.222,34.37v69.134  c0,9.751,7.904,17.654,17.654,17.654h423.702c9.751,0,17.654-7.904,17.654-17.654v-69.134  C485.507,408.828,474.235,394.595,458.286,390.843z"
     style="fill:#B4E1FA;" /><path
     id="path11864"
     d="M176.558,300.15v65.193c100.078,36.057,158.888-54.185,158.888-54.185v-11.009H176.558V300.15z"
     style="fill:#D29B6E;" /><path
     id="path11866"
     d="M141.249,97.127l7.692,169.228c0.718,15.809,8.47,30.47,21.13,39.965l36.498,27.374  c9.168,6.875,20.318,10.593,31.778,10.593h35.309c11.46,0,22.61-3.717,31.778-10.593l36.498-27.374  c12.66-9.496,20.412-24.155,21.13-39.965l7.692-169.228C370.753,97.127,141.249,97.127,141.249,97.127z"
     style="fill:#F0C087;" /><path
     id="path11868"
     d="M229.521,132.435c35.309,0,88.271-8.827,100.833-35.309H141.249l7.692,169.228  c0.718,15.809,8.47,30.469,21.131,39.965l36.498,27.374c9.168,6.875,20.318,10.593,31.778,10.593h17.654  c-17.654,0-52.963-35.309-52.963-79.444c0-21.586,0-79.444,0-105.926C203.039,150.089,211.866,132.435,229.521,132.435z"
     style="fill:#E6AF78;" /><g
     id="g11870">
	<path
   id="path11872"
   d="M91.3,454.714l-57.199-51.382c-4.793,6.069-7.603,13.706-7.603,21.882v69.134   c0,9.751,7.904,17.654,17.654,17.654h61.79v-24.454C105.941,475.021,100.618,463.084,91.3,454.714z"
   style="fill:#A0D2F0;" />
	<path
   id="path11874"
   d="M420.705,454.714l57.199-51.382c4.793,6.069,7.603,13.706,7.603,21.882v69.134   c0,9.751-7.904,17.654-17.654,17.654h-61.79v-24.454C406.063,475.021,411.386,463.084,420.705,454.714z"
   style="fill:#A0D2F0;" />
</g><polygon
     id="polygon11876"
     points="278.07,512.001 233.934,512.001 239.451,432.556 272.553,432.556 "
     style="fill:#5B5D6E;" /><path
     id="path11878"
     d="M278.07,414.902h-44.136v16.613c0,5.451,4.418,9.869,9.869,9.869H268.2  c5.451,0,9.869-4.418,9.869-9.869v-16.613H278.07z"
     style="fill:#515262;" /><g
     id="g11880">
	<path
   id="path11882"
   d="M175.319,342.287l80.684,72.615c0,0-22.596,11.407-50.48,34.398   c-5.752,4.742-14.453,2.821-17.538-3.966l-37.907-83.394l11.992-17.987C165.054,339.473,171.318,338.687,175.319,342.287z"
   style="fill:#A0D2F0;" />
	<path
   id="path11884"
   d="M336.686,342.287l-80.684,72.615c0,0,22.596,11.407,50.48,34.398   c5.752,4.742,14.453,2.821,17.538-3.966l37.907-83.394l-11.992-17.987C346.95,339.473,340.686,338.687,336.686,342.287z"
   style="fill:#A0D2F0;" />
</g><path
     id="path11886"
     d="M309.516,38.647l8.275,58.48c37.775,7.555,43.219,66.837,44.003,83.769  c0.142,3.073,1.123,6.04,2.79,8.625l14.413,22.358c0,0-4.933-36.964,17.654-61.79C396.652,150.089,404.408,3.338,309.516,38.647z"
     style="fill:#785550;" /><path
     id="path11888"
     d="M149.709,22.831l13.056,8.919c-59.031,43.584-47.998,118.339-47.998,118.339  c17.654,17.654,17.654,61.79,17.654,61.79l17.654-17.654c0,0-6.813-50.998,26.481-70.617c30.895-18.206,57.928-8.827,85.513-8.827  c73.927,0,94.616-27.861,91.03-61.79c-1.856-17.556-28.698-54.126-97.098-52.963C228.397,0.497,176.558,8.855,149.709,22.831z"
     style="fill:#694B4B;" /><path
     id="path11890"
     d="M144.559,107.057c0,0-9.379-36.964,18.206-75.306c-59.031,43.584-47.998,118.339-47.998,118.339  c17.654,17.654,17.654,61.79,17.654,61.79l17.654-17.654c0,0-6.813-50.998,26.481-70.617c30.895-18.206,57.928-8.827,85.513-8.827  c12.023,0,22.5-0.805,31.832-2.185C236.969,114.505,203.408,71.38,144.559,107.057z"
     style="fill:#5A4146;" /><path
     id="path11902"
     d="M370.755,494.346h-61.79c-4.875,0-8.827,3.952-8.827,8.827v8.827h79.444v-8.827  C379.582,498.299,375.629,494.346,370.755,494.346z"
     style="fill:#A0D2F0;" /><g
     id="g11904">
</g><g
     id="g11906">
</g><g
     id="g11908">
</g><g
     id="g11910">
</g><g
     id="g11912">
</g><g
     id="g11914">
</g><g
     id="g11916">
</g><g
     id="g11918">
</g><g
     id="g11920">
</g><g
     id="g11922">
</g><g
     id="g11924">
</g><g
     id="g11926">
</g><g
     id="g11928">
</g><g
     id="g11930">
</g><g
     id="g11932">
</g></g>
</svg>