<?xml version="1.0" encoding="UTF-8" standalone="no"?>
<!-- Generator: Adobe Illustrator 19.0.0, SVG Export Plug-In . SVG Version: 6.00 Build 0)  -->

<svg
   xmlns:dc="http://purl.org/dc/elements/1.1/"
   xmlns:cc="http://creativecommons.org/ns#"
   xmlns:rdf="http://www.w3.org/1999/02/22-rdf-syntax-ns#"
   xmlns:svg="http://www.w3.org/2000/svg"
   xmlns="http://www.w3.org/2000/svg"
   xmlns:sodipodi="http://sodipodi.sourceforge.net/DTD/sodipodi-0.dtd"
   xmlns:inkscape="http://www.inkscape.org/namespaces/inkscape"
   version="1.1"
   id="Layer_1"
   x="0px"
   y="0px"
   viewBox="0 0 512 512"
   style="enable-background:new 0 0 512 512;"
   xml:space="preserve"
   inkscape:version="0.48.5 r10040"
   width="100%"
   height="100%"
   sodipodi:docname="danger.svg"><metadata
   id="metadata8463"><rdf:RDF><cc:Work
       rdf:about=""><dc:format>image/svg+xml</dc:format><dc:type
         rdf:resource="http://purl.org/dc/dcmitype/StillImage" /></cc:Work></rdf:RDF></metadata><defs
   id="defs8461" /><sodipodi:namedview
   pagecolor="#ffffff"
   bordercolor="#666666"
   borderopacity="1"
   objecttolerance="10"
   gridtolerance="10"
   guidetolerance="10"
   inkscape:pageopacity="0"
   inkscape:pageshadow="2"
   inkscape:window-width="640"
   inkscape:window-height="480"
   id="namedview8459"
   showgrid="false"
   inkscape:zoom="0.4609375"
   inkscape:cx="256"
   inkscape:cy="256"
   inkscape:window-x="0"
   inkscape:window-y="0"
   inkscape:window-maximized="0"
   inkscape:current-layer="Layer_1" />




















<g
   id="g8465"><path
     id="path8417"
     d="M255.999,512c-17.982,0-35.964-6.844-49.654-20.533L20.534,305.654  c-27.379-27.38-27.379-71.928,0-99.307L206.345,20.534c27.379-27.379,71.927-27.379,99.307,0l185.813,185.813  c27.379,27.38,27.379,71.928,0,99.307l0,0L305.653,491.466C291.964,505.156,273.982,512,255.999,512z"
     style="fill:#6D6D6D;" /><path
     id="path8419"
     d="M491.466,206.346L305.653,20.534c-27.38-27.379-71.928-27.379-99.307,0L20.534,206.346  c-27.379,27.38-27.379,71.928,0,99.307l185.813,185.813C220.036,505.156,238.017,512,255.999,512s35.965-6.844,49.654-20.533  l185.813-185.813C518.845,278.274,518.845,233.725,491.466,206.346z M475.724,289.913L289.913,475.724  c-9.037,9.037-21.081,14.014-33.913,14.014c-12.831,0-24.875-4.978-33.913-14.013L36.275,289.913  c-18.699-18.7-18.699-49.126,0-67.826L222.086,36.275c9.35-9.35,21.631-14.024,33.912-14.024c12.282,0,24.564,4.675,33.913,14.024  l185.811,185.813C494.423,240.787,494.423,271.213,475.724,289.913z"
     style="fill:#444444;" /><path
     id="path8421"
     d="M272.55,53.636l185.811,185.813c9.127,9.126,9.127,23.976,0.001,33.102L272.55,458.363  c-9.126,9.127-23.976,9.126-33.102,0.001L53.636,272.551c-9.127-9.126-9.127-23.976-0.001-33.102L239.448,53.636  c4.563-4.563,10.556-6.845,16.551-6.845C261.993,46.792,267.988,49.074,272.55,53.636z"
     style="fill:#FFCB39;" /><path
     id="path8423"
     d="M458.363,272.551L306.037,424.876l105.534-145.982c9.126-12.624,9.126-33.165-0.001-45.789  L306.036,87.122l152.327,152.327C467.489,248.575,467.489,263.425,458.363,272.551z"
     style="fill:#FF9600;" /><path
     id="path8425"
     d="M283.826,361.739c0,15.368-12.458,27.826-27.826,27.826s-27.826-12.458-27.826-27.826  s12.458-27.826,27.826-27.826S283.826,346.371,283.826,361.739z M255.999,111.304c-15.368,0-27.826,12.458-27.826,27.826v122.435  c0,15.368,12.458,27.826,27.826,27.826s27.826-12.458,27.826-27.826V139.13C283.826,123.762,271.367,111.304,255.999,111.304z"
     style="fill:#6D6D6D;" /><path
     id="path8427"
     d="M283.826,139.13v122.435c0,15.368-12.458,27.826-27.826,27.826c-5.07,0-9.819-1.362-13.913-3.732  c8.314-4.812,13.913-13.796,13.913-24.094V139.13c0-10.298-5.599-19.282-13.913-24.094c4.094-2.37,8.843-3.732,13.913-3.732  C271.367,111.304,283.826,123.762,283.826,139.13z M255.999,333.913c-5.07,0-9.819,1.362-13.913,3.732  c8.314,4.812,13.913,13.796,13.913,24.094s-5.599,19.282-13.913,24.094c4.094,2.37,8.843,3.732,13.913,3.732  c15.368,0,27.826-12.458,27.826-27.826S271.367,333.913,255.999,333.913z"
     style="fill:#444444;" /><g
     id="g8429">
</g><g
     id="g8431">
</g><g
     id="g8433">
</g><g
     id="g8435">
</g><g
     id="g8437">
</g><g
     id="g8439">
</g><g
     id="g8441">
</g><g
     id="g8443">
</g><g
     id="g8445">
</g><g
     id="g8447">
</g><g
     id="g8449">
</g><g
     id="g8451">
</g><g
     id="g8453">
</g><g
     id="g8455">
</g><g
     id="g8457">
</g></g>
</svg>