<?xml version="1.0" encoding="iso-8859-1"?>
<!-- Generator: Adobe Illustrator 19.0.0, SVG Export Plug-In . SVG Version: 6.00 Build 0)  -->
<svg version="1.1" id="Capa_1" xmlns="http://www.w3.org/2000/svg" xmlns:xlink="http://www.w3.org/1999/xlink" x="0px" y="0px"
	 viewBox="0 0 496 496" style="enable-background:new 0 0 496 496;" xml:space="preserve">
<g>
	<path style="fill:#FFA64D;" d="M224,120h-96V40h96V120z"/>
	<path style="fill:#FFA64D;" d="M368,360h-96v-80h96V360z"/>
</g>
<g>
	<path style="fill:#333333;" d="M496,312V184h-41.704c-3.92-12.648-9.008-24.912-15.168-36.616l29.496-29.496L400,49.28V0H96v49.28
		l-68.616,68.616l29.496,29.496c-6.168,11.696-11.256,23.96-15.176,36.608H0v128h41.704c3.92,12.64,9.008,24.912,15.168,36.616
		l-29.496,29.496l90.504,90.504l29.496-29.496c11.704,6.168,23.976,11.248,36.616,15.168V496h128v-41.704
		c12.64-3.92,24.912-9.008,36.616-15.168l29.496,29.496l90.504-90.504l-29.496-29.496c6.168-11.704,11.248-23.976,15.168-36.616H496
		V312z M112,16h272v208h16v-47.456c10.472,22.208,16,46.448,16,71.456c0,25.016-5.536,49.256-16,71.456V240h-16v144H112V16z
		 M319.464,400c-22.208,10.472-46.456,16-71.464,16c-25.016,0-49.256-5.536-71.456-16H319.464z M96,319.456
		C85.536,297.248,80,273.008,80,248c0-25.016,5.536-49.256,16-71.456V319.456z M440.608,301.848
		c-4.312,15.432-10.48,30.32-18.344,44.256l-2.984,5.288l26.712,26.712l-67.88,67.88L351.4,419.272l-5.288,2.984
		c-13.936,7.864-28.832,14.032-44.256,18.344L296,442.24V480h-96v-37.76l-5.848-1.632c-15.432-4.312-30.32-10.48-44.256-18.344
		l-5.288-2.984l-26.712,26.712l-67.88-67.88L76.728,351.4l-2.984-5.288C65.88,332.176,59.712,317.28,55.4,301.856L53.76,296H16v-96
		h37.76l1.632-5.848c4.312-15.432,10.48-30.32,18.344-44.264l2.984-5.288l-26.712-26.712L96,71.904v72.528
		C75.104,175.024,64,210.752,64,248s11.104,72.976,32,103.576V400h48.424c30.592,20.896,66.32,32,103.576,32
		c37.248,0,72.976-11.104,103.576-32H400v-48.424c20.896-30.6,32-66.328,32-103.576s-11.104-72.968-32-103.568V71.904l45.992,45.992
		l-26.712,26.712l2.984,5.288c7.864,13.944,14.032,28.832,18.344,44.264l1.632,5.84H480v96h-37.76L440.608,301.848z"/>
	<rect x="240" y="40" style="fill:#333333;" width="16" height="16"/>
	<rect x="272" y="40" style="fill:#333333;" width="96" height="16"/>
	<rect x="240" y="72" style="fill:#333333;" width="128" height="16"/>
	<rect x="240" y="104" style="fill:#333333;" width="16" height="16"/>
	<rect x="272" y="104" style="fill:#333333;" width="64" height="16"/>
	<rect x="352" y="104" style="fill:#333333;" width="16" height="16"/>
	<rect x="240" y="280" style="fill:#333333;" width="16" height="16"/>
	<rect x="128" y="280" style="fill:#333333;" width="96" height="16"/>
	<rect x="128" y="312" style="fill:#333333;" width="128" height="16"/>
	<rect x="240" y="344" style="fill:#333333;" width="16" height="16"/>
	<rect x="160" y="344" style="fill:#333333;" width="64" height="16"/>
	<rect x="128" y="344" style="fill:#333333;" width="16" height="16"/>
	<rect x="168" y="160" style="fill:#333333;" width="160" height="16"/>
	<rect x="168" y="224" style="fill:#333333;" width="160" height="16"/>
	<rect x="168" y="192" style="fill:#333333;" width="128" height="16"/>
	<rect x="312" y="192" style="fill:#333333;" width="16" height="16"/>
</g>
<g>
</g>
<g>
</g>
<g>
</g>
<g>
</g>
<g>
</g>
<g>
</g>
<g>
</g>
<g>
</g>
<g>
</g>
<g>
</g>
<g>
</g>
<g>
</g>
<g>
</g>
<g>
</g>
<g>
</g>
</svg>
