<?xml version="1.0" encoding="iso-8859-1"?>
<!-- Generator: Adobe Illustrator 19.0.0, SVG Export Plug-In . SVG Version: 6.00 Build 0)  -->
<svg version="1.1" id="Layer_1" xmlns="http://www.w3.org/2000/svg" xmlns:xlink="http://www.w3.org/1999/xlink" x="0px" y="0px"
	 viewBox="0 0 503.607 503.607" style="enable-background:new 0 0 503.607 503.607;" xml:space="preserve">
<g transform="translate(1 1)">
	<polygon style="fill:#FFE100;" points="288.574,494.213 204.639,494.213 171.066,385.098 171.066,292.77 322.148,292.77 
		322.148,385.098 	"/>
	<polygon style="fill:#FFA800;" points="305.361,292.77 305.361,385.098 271.787,494.213 288.574,494.213 322.148,385.098 
		322.148,292.77 	"/>
	<polygon style="fill:#FFFFFF;" points="187.852,292.77 187.852,385.098 221.426,494.213 204.639,494.213 171.066,385.098 
		171.066,292.77 	"/>
	<path style="fill:#63D3FD;" d="M204.639,292.77c0,23.502,18.466,41.967,41.967,41.967s41.967-18.466,41.967-41.967H204.639z"/>
	<g>
		<polygon style="fill:#FFE100;" points="213.033,259.197 213.033,200.443 179.459,200.443 179.459,292.77 229.82,292.77 
			229.82,259.197 		"/>
		<polygon style="fill:#FFE100;" points="280.18,200.443 280.18,259.197 263.393,259.197 263.393,292.77 313.754,292.77 
			313.754,200.443 		"/>
	</g>
	<polygon style="fill:#63D3FD;" points="213.033,192.049 213.033,259.197 229.82,259.197 229.82,292.77 263.393,292.77 
		263.393,259.197 280.18,259.197 280.18,192.049 	"/>
	<polygon style="fill:#FFE100;" points="162.672,158.475 364.115,158.475 364.115,7.393 162.672,7.393 	"/>
	<polygon style="fill:#63D3FD;" points="322.148,32.574 322.148,99.721 296.967,99.721 296.967,116.508 271.787,116.508 
		271.787,133.295 221.426,133.295 221.426,116.508 196.246,116.508 196.246,99.721 171.066,99.721 171.066,32.574 	"/>
	<polygon style="fill:#3DB9F9;" points="305.361,99.721 322.148,99.721 322.148,32.574 305.361,32.574 	"/>
	<path d="M288.574,502.607h-83.934c-3.357,0-6.715-2.518-8.393-5.875l-33.574-109.115c0-0.839,0-1.679,0-2.518V292.77
		c0-5.036,3.357-8.393,8.393-8.393h151.082c5.036,0,8.393,3.357,8.393,8.393v92.328c0,0.839,0,1.679,0,2.518l-33.574,109.115
		C295.289,500.089,291.931,502.607,288.574,502.607z M210.515,485.82h71.344l31.895-101.561v-83.095H179.459v82.256L210.515,485.82z
		"/>
	<path d="M246.607,343.131c-27.698,0-50.361-22.662-50.361-50.361c0-5.036,3.357-8.393,8.393-8.393h83.934
		c5.036,0,8.393,3.357,8.393,8.393C296.967,320.469,274.305,343.131,246.607,343.131z M213.872,301.164
		c3.357,14.269,16.787,25.18,32.734,25.18s28.538-10.911,32.734-25.18H213.872z"/>
	<path d="M263.393,301.164H229.82c-5.036,0-8.393-3.357-8.393-8.393v-25.18h-8.393c-5.036,0-8.393-3.357-8.393-8.393v-67.148
		c0-5.036,3.357-8.393,8.393-8.393h67.148c5.036,0,8.393,3.357,8.393,8.393v67.148c0,5.036-3.357,8.393-8.393,8.393h-8.393v25.18
		C271.787,297.807,268.43,301.164,263.393,301.164z M238.213,284.377H255v-25.18c0-5.036,3.357-8.393,8.393-8.393h8.393v-50.361
		h-50.361v50.361h8.393c5.036,0,8.393,3.357,8.393,8.393V284.377z"/>
	<path d="M229.82,301.164h-50.361c-5.036,0-8.393-3.357-8.393-8.393v-92.328c0-5.036,3.357-8.393,8.393-8.393h33.574
		c5.036,0,8.393,3.357,8.393,8.393v50.361h8.393c5.036,0,8.393,3.357,8.393,8.393v33.574
		C238.213,297.807,234.856,301.164,229.82,301.164z M187.852,284.377h33.574V267.59h-8.393c-5.036,0-8.393-3.357-8.393-8.393
		v-50.361h-16.787V284.377z"/>
	<path d="M313.754,301.164h-50.361c-5.036,0-8.393-3.357-8.393-8.393v-33.574c0-5.036,3.357-8.393,8.393-8.393h8.393v-50.361
		c0-5.036,3.357-8.393,8.393-8.393h33.574c5.036,0,8.393,3.357,8.393,8.393v92.328C322.148,297.807,318.79,301.164,313.754,301.164z
		 M271.787,284.377h33.574v-75.541h-16.787v50.361c0,5.036-3.357,8.393-8.393,8.393h-8.393V284.377z"/>
	<path d="M221.426,469.033h-26.859c-5.036,0-8.393-3.357-8.393-8.393c0-5.036,3.357-8.393,8.393-8.393h26.859
		c5.036,0,8.393,3.357,8.393,8.393C229.82,465.675,226.462,469.033,221.426,469.033z"/>
	<path d="M298.646,469.033h-26.859c-5.036,0-8.393-3.357-8.393-8.393c0-5.036,3.357-8.393,8.393-8.393h26.859
		c5.036,0,8.393,3.357,8.393,8.393C307.039,465.675,303.682,469.033,298.646,469.033z"/>
	<path d="M221.426,435.459h-37.77c-5.036,0-8.393-3.357-8.393-8.393s3.357-8.393,8.393-8.393h37.77c5.036,0,8.393,3.357,8.393,8.393
		S226.462,435.459,221.426,435.459z"/>
	<path d="M309.557,435.459h-37.771c-5.036,0-8.393-3.357-8.393-8.393s3.357-8.393,8.393-8.393h37.771
		c5.036,0,8.393,3.357,8.393,8.393S313.754,435.459,309.557,435.459z"/>
	<path d="M221.426,401.885h-47.843c-5.036,0-8.393-3.357-8.393-8.393c0-5.036,3.357-8.393,8.393-8.393h47.843
		c5.036,0,8.393,3.357,8.393,8.393C229.82,398.528,226.462,401.885,221.426,401.885z"/>
	<path d="M319.629,401.885h-47.843c-5.036,0-8.393-3.357-8.393-8.393c0-5.036,3.357-8.393,8.393-8.393h47.843
		c5.036,0,8.393,3.357,8.393,8.393C328.023,398.528,323.826,401.885,319.629,401.885z"/>
	<path d="M221.426,368.311h-50.361c-5.036,0-8.393-3.357-8.393-8.393c0-5.036,3.357-8.393,8.393-8.393h50.361
		c5.036,0,8.393,3.357,8.393,8.393C229.82,364.954,226.462,368.311,221.426,368.311z"/>
	<path d="M322.148,368.311h-50.361c-5.036,0-8.393-3.357-8.393-8.393c0-5.036,3.357-8.393,8.393-8.393h50.361
		c5.036,0,8.393,3.357,8.393,8.393C330.541,364.954,327.184,368.311,322.148,368.311z"/>
	<path d="M271.787,141.689h-50.361c-5.036,0-8.393-3.357-8.393-8.393v-8.393h-16.787c-5.036,0-8.393-3.357-8.393-8.393v-8.393
		h-16.787c-5.036,0-8.393-3.357-8.393-8.393V32.574c0-5.036,3.357-8.393,8.393-8.393h151.082c5.036,0,8.393,3.357,8.393,8.393
		v67.148c0,5.036-3.357,8.393-8.393,8.393h-16.787v8.393c0,5.036-3.357,8.393-8.393,8.393H280.18v8.393
		C280.18,138.331,276.823,141.689,271.787,141.689z M229.82,124.902h33.574v-8.393c0-5.036,3.357-8.393,8.393-8.393h16.787v-8.393
		c0-5.036,3.357-8.393,8.393-8.393h16.787V40.967H179.459v50.361h16.787c5.036,0,8.393,3.357,8.393,8.393v8.393h16.787
		c5.036,0,8.393,3.357,8.393,8.393V124.902z"/>
	<path d="M196.246,57.754c-5.036,0-8.393-3.357-8.393-8.393V32.574c0-5.036,3.357-8.393,8.393-8.393
		c5.036,0,8.393,3.357,8.393,8.393v16.787C204.639,54.397,201.282,57.754,196.246,57.754z"/>
	<path d="M221.426,57.754c-5.036,0-8.393-3.357-8.393-8.393V32.574c0-5.036,3.357-8.393,8.393-8.393
		c5.036,0,8.393,3.357,8.393,8.393v16.787C229.82,54.397,226.462,57.754,221.426,57.754z"/>
	<path d="M246.607,57.754c-5.036,0-8.393-3.357-8.393-8.393V32.574c0-5.036,3.357-8.393,8.393-8.393
		c5.036,0,8.393,3.357,8.393,8.393v16.787C255,54.397,251.643,57.754,246.607,57.754z"/>
	<path d="M271.787,57.754c-5.036,0-8.393-3.357-8.393-8.393V32.574c0-5.036,3.357-8.393,8.393-8.393s8.393,3.357,8.393,8.393v16.787
		C280.18,54.397,276.823,57.754,271.787,57.754z"/>
	<path d="M296.967,57.754c-5.036,0-8.393-3.357-8.393-8.393V32.574c0-5.036,3.357-8.393,8.393-8.393s8.393,3.357,8.393,8.393v16.787
		C305.361,54.397,302.003,57.754,296.967,57.754z"/>
	<path d="M347.328,166.869H145.885c-5.036,0-8.393-3.357-8.393-8.393V7.393c0-5.036,3.357-8.393,8.393-8.393h201.443
		c5.036,0,8.393,3.357,8.393,8.393v151.082C355.721,163.511,352.364,166.869,347.328,166.869z M154.279,150.082h184.656V15.787
		H154.279V150.082z"/>
</g>
<g>
</g>
<g>
</g>
<g>
</g>
<g>
</g>
<g>
</g>
<g>
</g>
<g>
</g>
<g>
</g>
<g>
</g>
<g>
</g>
<g>
</g>
<g>
</g>
<g>
</g>
<g>
</g>
<g>
</g>
</svg>
