<?xml version="1.0" encoding="iso-8859-1"?>
<!-- Generator: Adobe Illustrator 19.0.0, SVG Export Plug-In . SVG Version: 6.00 Build 0)  -->
<svg version="1.1" id="Capa_1" xmlns="http://www.w3.org/2000/svg" xmlns:xlink="http://www.w3.org/1999/xlink" x="0px" y="0px"
	 viewBox="0 0 496 496" style="enable-background:new 0 0 496 496;" xml:space="preserve">
<g>
	<rect x="447.984" y="384" style="fill:#333333;" width="16" height="16"/>
	<path style="fill:#333333;" d="M496,136V0h-80v24h-88v40h-48v376h48v56h168V360h-80v24h-88v40h-32V264h32v56h168V184h-80v24h-88v40
		h-32V80h32v56H496z M432,400v-24h48v72h-16v16h16v16H344v-16h104v-16H344v-48H432z M344,304v-16h136v16H344z M432,224v-24h48v72
		H344v-48H432z M344,120v-16h136v16H344z M432,40V16h48v72H344V40H432z"/>
	<rect x="447.984" y="24" style="fill:#333333;" width="16" height="16"/>
	<rect x="447.984" y="208" style="fill:#333333;" width="16" height="16"/>
	<path style="fill:#333333;" d="M128,192c-35.288,0-64,28.712-64,64s28.712,64,64,64s64-28.712,64-64S163.288,192,128,192z M128,304
		c-26.472,0-48-21.528-48-48s21.528-48,48-48s48,21.528,48,48S154.472,304,128,304z"/>
	<path style="fill:#333333;" d="M220.536,208.72l20.592-20.6l-45.248-45.248l-20.6,20.592c-4.904-2.496-10.016-4.616-15.28-6.32V128
		H96v29.144c-5.264,1.704-10.376,3.816-15.28,6.32l-20.6-20.592L14.864,188.12l20.592,20.6c-2.496,4.904-4.616,10.016-6.32,15.28H0
		v64h29.144c1.704,5.264,3.824,10.376,6.32,15.28l-20.6,20.6l45.248,45.248l20.6-20.592c4.904,2.504,10.016,4.616,15.28,6.32V384h64
		v-29.144c5.264-1.704,10.376-3.824,15.28-6.32l20.6,20.592l45.248-45.248l-20.592-20.6c2.496-4.904,4.616-10.016,6.32-15.28h29.144
		v-64h-29.144C225.152,218.736,223.04,213.624,220.536,208.72z M240,272h-25.344l-1.552,6c-2.056,7.976-5.2,15.584-9.36,22.616
		l-3.152,5.344l17.912,17.92l-22.624,22.624l-17.92-17.912l-5.344,3.152c-7.032,4.16-14.64,7.304-22.616,9.36l-6,1.552V368h-32
		v-25.352l-6-1.544c-7.976-2.056-15.584-5.2-22.616-9.36l-5.344-3.152l-17.92,17.912L37.496,323.88l17.912-17.92l-3.152-5.344
		c-4.16-7.032-7.304-14.64-9.36-22.616l-1.552-6H16v-32h25.344l1.552-6c2.056-7.976,5.2-15.584,9.36-22.616l3.152-5.344
		l-17.912-17.92l22.624-22.624l17.92,17.912l5.344-3.152c7.032-4.16,14.64-7.304,22.616-9.36l6-1.544V144h32v25.344l6,1.552
		c7.976,2.056,15.584,5.2,22.616,9.36l5.344,3.152l17.92-17.912l22.624,22.624l-17.912,17.92l3.152,5.344
		c4.16,7.032,7.304,14.64,9.36,22.616l1.552,6H240L240,272L240,272z"/>
</g>
<g>
	<path style="fill:#FFA64D;" d="M184,120V96H32V32h152V8l72,56L184,120z"/>
	<path style="fill:#FFA64D;" d="M80,488L8,432l72-56v24h152v64H80C80,464,80,488,80,488z"/>
	<rect x="343.984" y="104" style="fill:#FFA64D;" width="136" height="16"/>
	<rect x="343.984" y="288" style="fill:#FFA64D;" width="136" height="16"/>
	<rect x="343.984" y="464" style="fill:#FFA64D;" width="136" height="16"/>
</g>
<g>
</g>
<g>
</g>
<g>
</g>
<g>
</g>
<g>
</g>
<g>
</g>
<g>
</g>
<g>
</g>
<g>
</g>
<g>
</g>
<g>
</g>
<g>
</g>
<g>
</g>
<g>
</g>
<g>
</g>
</svg>
