<svg height="404pt" viewBox="0 -9 404.00001 404" width="404pt" xmlns="http://www.w3.org/2000/svg"><path d="m353.46875 109.820312c24.058594.015626 43.550781 19.53125 43.53125 43.589844l-.128906 182.839844c-.019532 24.058594-19.539063 43.550781-43.601563 43.53125l-298.121093-.222656c24.046874 0 43.542968-19.484375 43.5625-43.527344l.128906-182.839844c.023437-24.054687 19.535156-43.542968 43.589844-43.53125l201.179687.148438zm-45.167969 120.128907c.683594-.507813.886719-1.441407.480469-2.1875l-13.210938-22.222657c-.519531-.859374-1.128906-1.089843-1.820312-.667968l-.148438.070312-15.820312 7.289063-.722656-.550781c-3.425782-2.582032-7.152344-4.738282-11.097656-6.417969l-.832032-.363281-1.570312-17.308594c-.121094-.757813-.734375-1.335938-1.5-1.417969h-25.808594c-.71875-.019531-1.347656.480469-1.488281 1.1875l-1.589844 17.539063-.832031.363281c-3.960938 1.597656-7.675782 3.746093-11.039063 6.378906l-.742187.597656-15.859375-7.296875c-.683594-.273437-1.460938-.066406-1.917969.507813l-12.953125 22.289062c-.414063.765625-.203125 1.71875.5 2.230469l14.230469 10.121094-.128906.910156c-.355469 2.113281-.554688 4.25-.589844 6.390625.035156 2.128906.230468 4.257813.582031 6.359375l.136719.929688-.777344.558593-14.109375 9.613281c-.667969.511719-.859375 1.433594-.453125 2.167969l12.921875 22.230469c.191406.371094.507813.664062.890625.828125.316406.097656.65625.03125.917969-.167969l.152343-.070312 15.820313-7.28125.71875.542968c3.425781 2.578126 7.152344 4.734376 11.097656 6.417969l.832031.359375 1.570313 17.3125c.121094.757813.734375 1.339844 1.5 1.417969h25.820313c.714843.015625 1.339843-.484375 1.480468-1.1875l1.589844-17.542969.828125-.359375c3.964844-1.597656 7.683594-3.746093 11.050781-6.378906l.730469-.601563 15.859375 7.300782c.683594.265625 1.460938.0625 1.921875-.511719l12.949219-22.289063c.421875-.761718.207031-1.71875-.5-2.230468l-13.320313-10.148438.128907-.878906c.351562-2.113281.542968-4.25.582031-6.390625-.035157-2.140625-.234375-4.277344-.589844-6.390625l-.132813-.910156zm0 0" fill="#e48e66"/><path d="m300.089844 57.351562c24.058594.015626 43.546875 19.53125 43.53125 43.589844l-.011719 8.867188-201.179687-.148438c-24.054688-.011718-43.566407 19.476563-43.589844 43.53125l-.128906 182.839844c-.019532 24.042969-19.515626 43.527344-43.5625 43.527344h-4.617188c-24.058594-.015625-43.546875-19.53125-43.53125-43.589844l.210938-285.4375c.015624-24.058594 19.53125-43.550781 43.589843-43.53125l97.71875.070312c12.234375.007813 23.902344 5.160157 32.152344 14.199219l29.636719 32.46875c2.058594 2.261719 4.972656 3.550781 8.03125 3.550781zm0 0" fill="#f8ec7d"/><path d="m308.78125 227.761719c.40625.746093.203125 1.679687-.480469 2.1875l-14.261719 10.140625.132813.910156c.355469 2.113281.554687 4.25.589844 6.390625-.039063 2.140625-.230469 4.277344-.582031 6.390625l-.128907.878906 13.320313 10.148438c.707031.511718.921875 1.46875.5 2.230468l-12.949219 22.289063c-.460937.574219-1.238281.777344-1.921875.511719l-15.859375-7.300782-.730469.601563c-3.367187 2.632813-7.085937 4.78125-11.050781 6.378906l-.828125.359375-1.589844 17.542969c-.140625.703125-.765625 1.203125-1.480468 1.1875h-25.820313c-.765625-.078125-1.378906-.660156-1.5-1.417969l-1.570313-17.3125-.832031-.359375c-3.945312-1.683593-7.671875-3.839843-11.097656-6.417969l-.71875-.542968-15.820313 7.28125-.152343.070312c-.261719.199219-.601563.265625-.917969.167969-.382812-.164063-.699219-.457031-.890625-.828125l-12.921875-22.230469c-.40625-.734375-.214844-1.65625.453125-2.167969l14.109375-9.613281.777344-.558593-.136719-.929688c-.351563-2.101562-.546875-4.230469-.582031-6.359375.035156-2.140625.234375-4.277344.589844-6.390625l.128906-.910156-14.230469-10.121094c-.703125-.511719-.914063-1.464844-.5-2.230469l12.953125-22.289062c.457031-.574219 1.234375-.78125 1.917969-.507813l15.859375 7.296875.742187-.597656c3.363281-2.632813 7.078125-4.78125 11.039063-6.378906l.832031-.363281 1.589844-17.539063c.140625-.707031.769531-1.207031 1.488281-1.1875h25.808594c.765625.082031 1.378906.660156 1.5 1.417969l1.570312 17.308594.832032.363281c3.945312 1.679687 7.671874 3.835937 11.097656 6.417969l.722656.550781 15.820312-7.289063.148438-.070312c.691406-.421875 1.300781-.191406 1.820312.667968zm-34.519531 19.628906c0-13.953125-11.3125-25.261719-25.261719-25.261719s-25.261719 11.308594-25.261719 25.261719c0 13.949219 11.3125 25.257813 25.261719 25.257813 6.722656.078124 13.191406-2.5625 17.945312-7.316407 4.753907-4.75 7.390626-11.21875 7.316407-17.941406zm0 0" fill="#6fe3ff"/><path d="m274.261719 247.390625c0 13.949219-11.3125 25.257813-25.261719 25.257813s-25.261719-11.308594-25.261719-25.257813c0-13.953125 11.3125-25.261719 25.261719-25.261719s25.261719 11.308594 25.261719 25.261719zm0 0" fill="#6fe3ff"/><g fill="#63316d"><path d="m353.476562 102.820312h-2.859374v-1.871093c-.007813-27.914063-22.613282-50.550781-50.523438-50.601563l-81.753906-.058594c-1.089844-.003906-2.128906-.464843-2.863282-1.269531l-29.636718-32.46875c-9.582032-10.476562-23.117188-16.457031-37.316406-16.4804685l-97.71875-.0703125h-.042969c-27.90625.00390625-50.535157 22.617188-50.550781 50.523438l-.210938 285.441406c-.0195312 27.925781 22.601562 50.582031 50.53125 50.597656h4.613281l298.121094.222656h.042969c27.910156-.003906 50.539062-22.617187 50.5625-50.527344l.128906-182.839843c-.011719-27.910157-22.613281-50.546875-50.523438-50.597657zm-298.328124 269.738282-.003907 12.34375-.035156-12.34375h-4.574219c-20.191406-.011719-36.546875-16.390625-36.535156-36.582032l.210938-285.441406c.011718-20.179687 16.371093-36.53125 36.550781-36.535156h.035156l97.71875.070312c10.265625.019532 20.054687 4.34375 26.984375 11.917969l29.636719 32.464844c3.386719 3.710937 8.175781 5.832031 13.199219 5.835937l81.75.0625c20.179687.035157 36.523437 16.398438 36.535156 36.582032v1.875l-194.183594-.148438h-.023438c-27.898437.03125-50.515624 22.628906-50.574218 50.53125l-.128906 182.835938c-.046876 20.171875-16.390626 36.503906-36.5625 36.53125zm334.722656-36.316406c-.019532 20.183593-16.382813 36.535156-36.5625 36.539062h-.035156l-263.265626-.191406c10.019532-9.515625 15.695313-22.730469 15.699219-36.550782l.128907-182.839843c.042968-20.171875 16.394531-36.511719 36.570312-36.535157h.015625l211.039063.160157c20.179687.035156 36.527343 16.398437 36.539062 36.582031zm0 0"/><path d="m312.539062 235.519531c3.542969-2.644531 4.515626-7.535156 2.257813-11.335937l-13.234375-22.265625c-1.140625-2.003907-3.046875-3.460938-5.285156-4.027344-1.921875-.460937-3.945313-.203125-5.6875.730469l-12.027344 5.539062c-2.1875-1.464844-4.46875-2.785156-6.828125-3.949218l-1.25-13.757813-.117187-.492187c-.855469-3.917969-4.296876-6.730469-8.308594-6.789063h-25.808594c-4.390625-.011719-8.0625 3.324219-8.472656 7.691406l-1.210938 13.332031c-2.390625 1.136719-4.695312 2.453126-6.890625 3.929688l-12.046875-5.542969-.347656-.148437c-3.9375-1.566406-8.429688-.046875-10.605469 3.585937l-12.867187 22.152344c-2.242188 3.828125-1.25 8.722656 2.296875 11.378906l10.960937 7.800781c-.148437 1.339844-.222656 2.6875-.226562 4.039063.003906 1.324219.074218 2.644531.214844 3.960937l-11.324219 7.714844-.320313.230469c-3.492187 2.652344-4.449218 7.496094-2.222656 11.273437l12.9375 22.261719c1.035156 1.792969 2.675781 3.160157 4.621094 3.867188l.300781.09375c2.035156.605469 4.226563.375 6.089844-.644531l12.015625-5.527344c2.183594 1.464844 4.460937 2.785156 6.816406 3.945312l1.25 13.75.113281.480469c.847657 3.929687 4.292969 6.753906 8.3125 6.8125h25.820313c4.386718.007813 8.058594-3.328125 8.464844-7.699219l1.207031-13.328125c2.394531-1.136719 4.699219-2.449219 6.898437-3.929687l12.042969 5.542968.417969.175782c3.921875 1.507812 8.359375-.015625 10.53125-3.613282l12.871094-22.167968c2.238281-3.8125 1.253906-8.699219-2.289063-11.347656l-10.085937-7.6875c.308593-2.726563.3125-5.480469.011718-8.207032l10.820313-7.695312zm-26.03125 1.335938.734376 5.164062c.308593 1.773438.480468 3.570313.519531 5.371094-.039063 1.796875-.207031 3.589844-.5 5.363281l-.738281 4.96875 12.941406 9.859375-8.035156 13.828125-15.339844-7.0625-4.105469 3.375c-2.871094 2.222656-6.039063 4.03125-9.410156 5.375l-4.636719 2.015625-1.5 16.5h-15.773438l-1.5-16.5-4.664062-2.023437c-3.433594-1.464844-6.679688-3.339844-9.660156-5.585938l-4.058594-3.042968-15.097656 6.949218-7.910156-13.605468 9.949218-6.777344 4.398438-3.152344-.769532-5.109375c-.683593-3.558594-.679687-7.214844.011719-10.773437l.730469-5.132813-13.773438-9.796875 7.957032-13.695312 15.3125 7.050781 4.144531-3.359375c2.867187-2.222656 6.03125-4.03125 9.398437-5.378906l4.640626-2.015626 1.5-16.5h15.777343l1.5 16.5 4.648438 2.027344c3.417969 1.453125 6.644531 3.316406 9.613281 5.546875l4.066406 3.109375 15.191406-7 8.167969 13.742188zm0 0"/><path d="m249 215.128906c-17.816406 0-32.261719 14.445313-32.261719 32.261719s14.445313 32.257813 32.261719 32.257813 32.261719-14.441407 32.261719-32.257813c.089843-8.585937-3.277344-16.84375-9.347657-22.914063-6.070312-6.070312-14.328124-9.4375-22.914062-9.347656zm0 50.519532c-10.085938 0-18.261719-8.171876-18.261719-18.257813s8.175781-18.261719 18.261719-18.261719 18.261719 8.175782 18.261719 18.261719c.050781 4.859375-1.855469 9.53125-5.292969 12.96875-3.433594 3.4375-8.109375 5.34375-12.96875 5.289063zm0 0"/><path d="m243.25 141.710938c33.441406 0 60.699219 17.335937 77.363281 35.5625l-24.332031-.800782c-3.84375-.09375-7.046875 2.925782-7.171875 6.769532-.125 3.839843 2.871094 7.066406 6.710937 7.222656l37.449219 1.230468c2.566407.957032 5.457031.332032 7.394531-1.605468 1.933594-1.9375 2.5625-4.828125 1.601563-7.394532l-1.238281-37.441406c-.15625-3.84375-3.382813-6.839844-7.226563-6.710937-3.84375.125-6.863281 3.328125-6.765625 7.171875l.609375 18.53125c-19.253906-19.652344-48.4375-36.542969-84.394531-36.542969-69.554688 0-116.28125 60.121094-116.28125 116.273437 0 3.863282 3.136719 7 7 7 3.867188 0 7-3.136718 7-7 0-23.902343 10.328125-49.648437 27.625-68.863281 18.933594-21.339843 46.128906-33.503906 74.65625-33.402343zm0 0"/><path d="m353.96875 236.980469c-3.863281 0-7 3.132812-7 7 0 23.898437-10.324219 49.644531-27.617188 68.863281-18.933593 21.339844-46.125 33.507812-74.652343 33.40625-33.625 0-60.5625-16.84375-77.449219-35.566406l24.410156.800781c3.84375.09375 7.042969-2.925781 7.171875-6.769531.125-3.839844-2.871093-7.066406-6.710937-7.222656l-37.445313-1.230469c-2.5625-.957031-5.449219-.332031-7.386719 1.605469-1.933593 1.9375-2.5625 4.824218-1.601562 7.390624l1.238281 37.441407c.121094 3.773437 3.214844 6.765625 6.988281 6.769531h.238282c3.863281-.128906 6.890625-3.363281 6.761718-7.226562l-.609374-18.53125c19.253906 19.652343 48.4375 36.542968 84.394531 36.542968 69.550781 0 116.269531-60.121094 116.269531-116.273437.003906-3.867188-3.132812-7-7-7zm0 0"/></g></svg>