<?xml version="1.0" encoding="UTF-8" standalone="no"?>
<!-- Generator: Adobe Illustrator 19.0.0, SVG Export Plug-In . SVG Version: 6.00 Build 0)  -->

<svg
   xmlns:dc="http://purl.org/dc/elements/1.1/"
   xmlns:cc="http://creativecommons.org/ns#"
   xmlns:rdf="http://www.w3.org/1999/02/22-rdf-syntax-ns#"
   xmlns:svg="http://www.w3.org/2000/svg"
   xmlns="http://www.w3.org/2000/svg"
   xmlns:sodipodi="http://sodipodi.sourceforge.net/DTD/sodipodi-0.dtd"
   xmlns:inkscape="http://www.inkscape.org/namespaces/inkscape"
   version="1.1"
   id="Capa_1"
   x="0px"
   y="0px"
   viewBox="0 0 512.004 512.004"
   style="enable-background:new 0 0 512.004 512.004;"
   xml:space="preserve"
   inkscape:version="0.48.5 r10040"
   width="100%"
   height="100%"
   sodipodi:docname="gas-meter.svg"><metadata
   id="metadata11225"><rdf:RDF><cc:Work
       rdf:about=""><dc:format>image/svg+xml</dc:format><dc:type
         rdf:resource="http://purl.org/dc/dcmitype/StillImage" /></cc:Work></rdf:RDF></metadata><defs
   id="defs11223" /><sodipodi:namedview
   pagecolor="#ffffff"
   bordercolor="#666666"
   borderopacity="1"
   objecttolerance="10"
   gridtolerance="10"
   guidetolerance="10"
   inkscape:pageopacity="0"
   inkscape:pageshadow="2"
   inkscape:window-width="640"
   inkscape:window-height="480"
   id="namedview11221"
   showgrid="false"
   inkscape:zoom="0.4609339"
   inkscape:cx="256.002"
   inkscape:cy="256.002"
   inkscape:window-x="0"
   inkscape:window-y="0"
   inkscape:window-maximized="0"
   inkscape:current-layer="Capa_1" />















<g
   id="g11227"><g
     id="g11131">
	<g
   id="g11133"
   transform="translate(1 1)">
		<g
   id="g11135">
			<path
   id="path11137"
   d="M24.602,220.867h460.8c9.426,0,17.067,7.641,17.067,17.067v136.533     c0,9.426-7.641,17.067-17.067,17.067h-460.8c-9.426,0-17.067-7.641-17.067-17.067V237.933     C7.535,228.508,15.176,220.867,24.602,220.867z"
   style="fill:#4527A0;" />
			<path
   id="path11139"
   d="M24.602,220.867h435.2c9.426,0,17.067,7.641,17.067,17.067v136.533     c0,9.426-7.641,17.067-17.067,17.067h-435.2c-9.426,0-17.067-7.641-17.067-17.067V237.933     C7.535,228.508,15.176,220.867,24.602,220.867z"
   style="fill:#673AB7;" />
			<path
   id="path11141"
   d="M451.269,306.2c0,108.395-87.872,196.267-196.267,196.267c-4.352,0-8.619-0.171-12.8-0.427     c-85.828-5.589-158.012-66.423-178.061-150.063s16.712-170.589,90.679-214.481h200.363     C414.775,172.799,451.304,236.937,451.269,306.2z"
   style="fill:#6A1B9A;" />
			<path
   id="path11143"
   d="M425.669,306.2c-0.03,103.413-80.276,189.071-183.467,195.84     c-85.828-5.589-158.012-66.423-178.061-150.063s16.712-170.589,90.679-214.481h174.763     C389.175,172.799,425.704,236.937,425.669,306.2z"
   style="fill:#9D27B0;" />
			<path
   id="path11145"
   d="M417.135,306.2c-0.08,89.511-72.623,162.053-162.133,162.133c-4.267,0-8.619-0.171-12.8-0.512     c-73.511-5.796-133.843-60.486-146.804-133.077s24.716-144.781,91.679-175.659h135.851     C380.323,185.567,417.095,242.99,417.135,306.2z"
   style="fill:#9E9E9E;" />
			<path
   id="path11147"
   d="M391.535,306.2c-0.081,84.547-65.056,154.869-149.333,161.621     c-73.511-5.796-133.843-60.486-146.804-133.077s24.716-144.781,91.679-175.659h110.251     C354.723,185.567,391.495,242.99,391.535,306.2z"
   style="fill:#F5F5F5;" />
		</g>
		<g
   id="g11149">
			<path
   id="path11151"
   d="M279.663,111.555h-0.085"
   style="fill:none;stroke:#000000;stroke-width:2;stroke-linecap:round;" />
			<path
   id="path11153"
   d="M255.002,144.067h-0.171"
   style="fill:none;stroke:#000000;stroke-width:2;stroke-linecap:round;" />
		</g>
		<g
   id="g11155">
			<path
   id="path11157"
   d="M161.135,229.4h187.733c4.713,0,8.533,3.821,8.533,8.533v34.133c0,4.713-3.82,8.533-8.533,8.533     H161.135c-4.713,0-8.533-3.82-8.533-8.533v-34.133C152.602,233.221,156.423,229.4,161.135,229.4z"
   style="fill:#607D8B;" />
			<path
   id="path11159"
   d="M395.631,98.328c-15.957,18.859-72.875,79.872-140.629,79.872     c-3.848,0.018-7.694-0.181-11.52-0.597c-62.635-6.229-114.091-61.525-129.109-79.275c-2.635-3.164-2.635-7.759,0-10.923     c15.019-17.749,66.475-73.045,129.109-79.275c3.826-0.416,7.672-0.616,11.52-0.597c67.755,0,124.672,61.013,140.629,79.872     C398.267,90.569,398.267,95.164,395.631,98.328z"
   style="fill:#9E9E9E;" />
			<path
   id="path11161"
   d="M372.421,98.328c-14.933,17.749-66.389,72.96-128.939,79.275     c-62.635-6.229-114.091-61.525-129.109-79.275c-2.635-3.164-2.635-7.759,0-10.923c15.019-17.749,66.475-73.045,129.109-79.275     c62.549,6.315,114.005,61.525,128.939,79.275C375.153,90.534,375.153,95.2,372.421,98.328z"
   style="fill:#F5F5F5;" />
			<path
   id="path11163"
   d="M341.53,92.867c-0.075,47.097-38.236,85.258-85.333,85.333c-4.49,0.023-8.973-0.348-13.397-1.109     c-41.43-6.561-71.936-42.278-71.936-84.224s30.506-77.663,71.936-84.224c4.425-0.761,8.908-1.132,13.397-1.109     C303.294,7.609,341.455,45.77,341.53,92.867z"
   style="fill:#1566C0;" />
			<ellipse
   d="m 314.73499,92.866997 c 0,46.515633 -32.20684,84.224003 -71.93599,84.224003 -39.72916,0 -71.936,-37.70837 -71.936,-84.224003 0,-46.51563 32.20684,-84.2239993 71.936,-84.2239993 39.72915,0 71.93599,37.7083693 71.93599,84.2239993 z"
   id="ellipse11165"
   ry="84.224"
   rx="71.936"
   cy="92.867"
   cx="242.799"
   style="fill:#2296F3;" />
			<circle
   d="m 280.602,118.467 c 0,14.13849 -11.46151,25.6 -25.6,25.6 -14.13849,0 -25.6,-11.46151 -25.6,-25.6 0,-14.13849 11.46151,-25.599998 25.6,-25.599998 14.13849,0 25.6,11.461508 25.6,25.599998 z"
   id="circle11167"
   r="25.6"
   cy="118.467"
   cx="255.002"
   style="fill:#37474F;" />
			<path
   id="path11169"
   d="M297.669,394.861c0.012,4.497-0.828,8.956-2.475,13.141c-6.704,16.193-22.671,26.6-40.192,26.197     c-2.542-0.026-5.08-0.225-7.595-0.597c-18.232-2.506-32.528-16.908-34.901-35.157c-0.085-1.195-0.171-2.389-0.171-3.584     c-0.03-1.169,0.027-2.338,0.171-3.499c1.058-10.431,6.406-19.952,14.763-26.283c1.554-1.311,3.241-2.455,5.035-3.413     c0.235-0.2,0.493-0.371,0.768-0.512c1.027,10.46,7.294,19.683,16.64,24.491c-5.797-7.959-8.932-17.546-8.96-27.392v-0.427     c0.093-9.072,2.853-17.915,7.936-25.429c0.512-0.683,0.939-1.451,1.451-2.133c4.869-6.558,11.212-11.878,18.517-15.531     c-1.372,4.135-2.148,8.446-2.304,12.8c-0.071,0.595-0.1,1.193-0.085,1.792c0.105,13.413,5.832,26.167,15.787,35.157     c4.528,3.801,8.393,8.328,11.435,13.397C296.217,383.125,297.651,388.948,297.669,394.861z"
   style="fill:#C52828;" />
			<path
   id="path11171"
   d="M272.069,394.861c0.012,4.436-0.562,8.855-1.707,13.141c-2.397,12.088-11.199,21.904-22.955,25.6     c-1.704,0.414-3.452,0.614-5.205,0.597c-15.531,0-28.331-15.701-29.696-35.755c-0.085-1.195-0.171-2.389-0.171-3.584     c-0.03-1.169,0.027-2.338,0.171-3.499c1.058-10.431,6.406-19.952,14.763-26.283c2.133,0.853,5.547-3.755,5.803-3.925     c1.027,10.46,7.294,19.683,16.64,24.491c-5.797-7.959-8.932-17.546-8.96-27.392v-0.427c0.093-9.072,2.853-17.915,7.936-25.429     c0.512-0.683,0.939-1.451,1.451-2.133c-0.028,12.281,3.825,24.257,11.008,34.219c3.342,4.03,6.048,8.548,8.021,13.397     C271.118,383.328,272.1,389.075,272.069,394.861z"
   style="fill:#F44335;" />
		</g>
	</g>
	<g
   id="g11173">
		<path
   id="path11175"
   d="M486.402,213.333h-48.64c-15.721-30.481-38.827-56.539-67.209-75.793c11.673-10.058,22.567-20.986,32.589-32.691    c5.392-6.332,5.392-15.641,0-21.973C387.569,64.512,333.809,6.963,267.727,0.631C264.22,0.227,260.693,0.016,257.163,0    c-0.205,0-0.393,0-0.597,0c-0.205,0-0.375,0-0.563,0C184.604,0,125.34,63.437,108.879,82.876c-5.392,6.332-5.392,15.641,0,21.973    c10.021,11.705,20.915,22.633,32.589,32.691c-28.388,19.252-51.5,45.31-67.226,75.793h-48.64c-14.138,0-25.6,11.462-25.6,25.6    v136.533c0,14.138,11.462,25.6,25.6,25.6h48.469c35.09,68.125,105.3,110.937,181.931,110.937s146.841-42.812,181.931-110.937    h48.469c14.138,0,25.6-11.462,25.6-25.6V238.933C512.002,224.795,500.541,213.333,486.402,213.333z M390.061,93.867    c-15.286,17.904-32.756,33.82-52.002,47.377c17.28-29.209,17.28-65.511,0-94.72C357.301,60.072,374.771,75.977,390.061,93.867z     M256.557,17.067c3.209,0,6.383,0.23,9.532,0.529c38.703,4.493,67.898,37.274,67.898,76.237s-29.195,71.744-67.898,76.237    c-3.157,0.299-6.332,0.512-9.54,0.529c-41.505-1.24-74.509-35.246-74.506-76.77C182.044,52.304,215.051,18.302,256.557,17.067z     M256.002,187.733c0.188,0,0.375,0,0.563,0c0.188,0,0.393,0,0.597,0c3.53-0.016,7.057-0.227,10.564-0.631    c19.658-2.183,38.714-8.122,56.132-17.493c64.071,31.541,97.952,103.08,81.76,172.634    c-16.192,69.554-78.186,118.773-149.6,118.773s-133.407-49.219-149.6-118.773s17.688-141.093,81.76-172.634    C209.002,181.011,232.267,187.228,256.002,187.733z M121.909,93.909c16.321-19.165,35.163-36.029,56.013-50.133    c-19.502,30.55-19.502,69.64,0,100.19C157.087,129.873,138.246,113.036,121.909,93.909z M25.602,384    c-4.713,0-8.533-3.821-8.533-8.533v-8.533h8.533c4.713,0,8.533-3.82,8.533-8.533s-3.821-8.533-8.533-8.533h-8.533V332.8h8.533    c4.713,0,8.533-3.82,8.533-8.533s-3.821-8.533-8.533-8.533h-8.533v-17.067h8.533c4.713,0,8.533-3.821,8.533-8.533    c0-4.713-3.821-8.533-8.533-8.533h-8.533v-17.067h8.533c4.713,0,8.533-3.821,8.533-8.533c0-4.713-3.821-8.533-8.533-8.533h-8.533    v-8.533c0-4.713,3.821-8.533,8.533-8.533h40.713C46.203,279.618,46.163,334.754,66.204,384H25.602z M256.002,494.933    c-83.504,0.053-156.993-55.09-180.286-135.28s9.217-166.122,79.754-210.815c4.838,3.661,9.907,7.27,15.275,10.735    c-66.93,38.596-99.584,117.341-79.606,191.975s87.602,126.538,164.863,126.538s144.886-51.904,164.863-126.538    c19.977-74.634-12.676-153.379-79.606-191.975c5.367-3.465,10.436-7.074,15.275-10.735    c70.538,44.692,103.047,130.625,79.754,210.815S339.506,494.986,256.002,494.933z M486.402,384H445.8    c20.04-49.246,20.001-104.383-0.111-153.6h40.713c4.713,0,8.533,3.821,8.533,8.533v8.533h-8.533c-4.713,0-8.533,3.821-8.533,8.533    c0,4.713,3.82,8.533,8.533,8.533h8.533V281.6h-8.533c-4.713,0-8.533,3.821-8.533,8.533c0,4.713,3.82,8.533,8.533,8.533h8.533    v17.067h-8.533c-4.713,0-8.533,3.821-8.533,8.533s3.82,8.533,8.533,8.533h8.533v17.067h-8.533c-4.713,0-8.533,3.82-8.533,8.533    s3.82,8.533,8.533,8.533h8.533v8.533C494.935,380.18,491.115,384,486.402,384z" />
		<path
   id="path11177"
   d="M145.069,273.067c0,9.426,7.641,17.067,17.067,17.067h187.733c9.426,0,17.067-7.641,17.067-17.067v-34.133    c0-9.426-7.641-17.067-17.067-17.067H162.135c-9.426,0-17.067,7.641-17.067,17.067V273.067z M281.602,273.067h-17.067v-34.133    h17.067V273.067z M298.669,238.933h17.067v34.133h-17.067V238.933z M247.469,273.067h-17.067v-34.133h17.067V273.067z     M213.335,273.067h-17.067v-34.133h17.067V273.067z M349.869,273.067h-17.067v-34.133h17.067V273.067z M162.135,238.933h17.067    v34.133h-17.067V238.933z" />
		<path
   id="path11179"
   d="M187.735,324.267h-42.667c-4.713,0-8.533,3.82-8.533,8.533s3.821,8.533,8.533,8.533h42.667    c4.713,0,8.533-3.82,8.533-8.533S192.448,324.267,187.735,324.267z" />
		<path
   id="path11181"
   d="M187.735,358.4h-42.667c-4.713,0-8.533,3.82-8.533,8.533s3.821,8.533,8.533,8.533h42.667c4.713,0,8.533-3.82,8.533-8.533    S192.448,358.4,187.735,358.4z" />
		<path
   id="path11183"
   d="M324.269,324.267c-4.713,0-8.533,3.82-8.533,8.533s3.82,8.533,8.533,8.533h42.667c4.713,0,8.533-3.82,8.533-8.533    s-3.821-8.533-8.533-8.533H324.269z" />
		<path
   id="path11185"
   d="M366.935,358.4h-42.667c-4.713,0-8.533,3.82-8.533,8.533s3.82,8.533,8.533,8.533h42.667c4.713,0,8.533-3.82,8.533-8.533    S371.648,358.4,366.935,358.4z" />
		<path
   id="path11187"
   d="M255.695,153.6h0.137h0.171c1.189,0.001,2.376-0.062,3.558-0.188c18.506-1.825,32.201-18.044,30.9-36.594    s-17.128-32.698-35.707-31.92c-18.58,0.778-33.168,16.198-32.916,34.792c0.253,18.594,15.255,33.612,33.849,33.884L255.695,153.6z     M242.741,108.749c2.841-3.53,6.978-5.774,11.486-6.229c0.606-0.06,1.212-0.094,1.818-0.094    c9.063,0.042,16.512,7.16,16.966,16.212s-6.246,16.879-15.259,17.828c-6.866,0.721-13.489-2.764-16.783-8.832    c-3.293-6.067-2.607-13.521,1.738-18.885H242.741z" />
		<path
   id="path11189"
   d="M289.026,359.356l-0.188-0.162c-8.215-7.354-12.943-17.834-13.022-28.86v-1.485c0.131-3.548,0.769-7.06,1.894-10.428    c1.086-3.279,0.087-6.89-2.529-9.145c-2.616-2.256-6.334-2.711-9.418-1.155c-9.383,4.734-17.387,11.808-23.236,20.54    c-4.988,7.471-8.084,16.043-9.02,24.977c-1.272,0.078-2.51,0.436-3.627,1.05c-15.215,8.162-24.814,23.926-25.079,41.19    c0.982,27.327,23.869,48.718,51.2,47.855c21.054,0.352,40.176-12.223,48.196-31.693c4.655-12.11,3.871-25.637-2.15-37.129    C298.64,369.012,294.234,363.749,289.026,359.356z M288.267,405.922c-5.485,12.875-18.274,21.098-32.264,20.745    c-17.902,0.852-33.141-12.893-34.133-30.788c0.026-7.148,2.709-14.031,7.526-19.311c3.8,7.497,9.823,13.636,17.246,17.579    c3.495,1.876,7.821,1.098,10.442-1.88c2.621-2.977,2.845-7.368,0.54-10.596c-9.412-12.908-9.753-30.322-0.853-43.588    c0.683-1.024,1.414-2.02,2.193-2.987c1.27,13.993,7.737,27.002,18.125,36.463c0.07,0.073,0.144,0.141,0.222,0.205    c3.792,3.126,7.041,6.857,9.617,11.042c2.116,4.032,3.217,8.519,3.209,13.073C290.14,399.313,289.506,402.719,288.267,405.922z" />
	</g>
</g><g
     id="g11191">
</g><g
     id="g11193">
</g><g
     id="g11195">
</g><g
     id="g11197">
</g><g
     id="g11199">
</g><g
     id="g11201">
</g><g
     id="g11203">
</g><g
     id="g11205">
</g><g
     id="g11207">
</g><g
     id="g11209">
</g><g
     id="g11211">
</g><g
     id="g11213">
</g><g
     id="g11215">
</g><g
     id="g11217">
</g><g
     id="g11219">
</g></g>
</svg>