<?xml version="1.0" encoding="UTF-8" standalone="no"?>
<!-- Generator: Adobe Illustrator 18.1.1, SVG Export Plug-In . SVG Version: 6.00 Build 0)  -->

<svg
   xmlns:dc="http://purl.org/dc/elements/1.1/"
   xmlns:cc="http://creativecommons.org/ns#"
   xmlns:rdf="http://www.w3.org/1999/02/22-rdf-syntax-ns#"
   xmlns:svg="http://www.w3.org/2000/svg"
   xmlns="http://www.w3.org/2000/svg"
   xmlns:sodipodi="http://sodipodi.sourceforge.net/DTD/sodipodi-0.dtd"
   xmlns:inkscape="http://www.inkscape.org/namespaces/inkscape"
   version="1.1"
   id="Capa_1"
   x="0px"
   y="0px"
   viewBox="0 0 14.537 14.537"
   style="enable-background:new 0 0 14.537 14.537;"
   xml:space="preserve"
   inkscape:version="0.48.5 r10040"
   width="100%"
   height="100%"
   sodipodi:docname="healthmonitor.svg"><metadata
   id="metadata13088"><rdf:RDF><cc:Work
       rdf:about=""><dc:format>image/svg+xml</dc:format><dc:type
         rdf:resource="http://purl.org/dc/dcmitype/StillImage" /></cc:Work></rdf:RDF></metadata><defs
   id="defs13086">
	
</defs><sodipodi:namedview
   pagecolor="#ffffff"
   bordercolor="#666666"
   borderopacity="1"
   objecttolerance="10"
   gridtolerance="10"
   guidetolerance="10"
   inkscape:pageopacity="0"
   inkscape:pageshadow="2"
   inkscape:window-width="640"
   inkscape:window-height="480"
   id="namedview13084"
   showgrid="false"
   inkscape:zoom="16.234436"
   inkscape:cx="7.2685"
   inkscape:cy="7.2685"
   inkscape:window-x="0"
   inkscape:window-y="0"
   inkscape:window-maximized="0"
   inkscape:current-layer="Capa_1" />
<g
   id="g13048">
		<path
   inkscape:connector-curvature="0"
   id="path13050"
   d="M 13.66,0 H 0.877 C 0.393,0 0,0.394 0,0.877 V 13.66 c 0,0.483 0.394,0.877 0.877,0.877 H 13.66 c 0.483,0 0.877,-0.394 0.877,-0.877 V 0.878 C 14.537,0.394 14.143,0 13.66,0 z M 13.484,13.485 H 1.052 V 1.053 h 12.432 v 12.432 z"
   style="fill:#030104" />
		<path
   inkscape:connector-curvature="0"
   id="path13052"
   d="m 2.126,8.744 h 1.605 c 0.15,0 0.282,-0.101 0.322,-0.245 l 0.492,-1.78 0.703,3.904 c 0.031,0.171 0.185,0.291 0.358,0.273 0.172,-0.015 0.305,-0.159 0.305,-0.332 v -1.82 h 0.95 c 0.166,0 0.307,-0.121 0.331,-0.286 L 7.718,4.839 8.86,11.144 c 0.029,0.158 0.167,0.273 0.327,0.273 0.001,0 0.001,0 0.002,0 0.16,0 0.298,-0.113 0.328,-0.27 l 0.51,-2.627 h 0.256 l 0.385,0.652 c 0.059,0.1 0.165,0.162 0.281,0.164 0.109,0.004 0.225,-0.055 0.287,-0.152 l 0.383,-0.59 h 0.461 c 0.185,0 0.334,-0.15 0.334,-0.334 0,-0.186 -0.149,-0.335 -0.334,-0.335 h -0.642 c -0.112,0 -0.219,0.058 -0.28,0.152 L 10.97,8.367 10.763,8.015 C 10.703,7.913 10.593,7.851 10.475,7.851 H 9.752 c -0.16,0 -0.298,0.113 -0.328,0.27 L 9.201,9.269 8.012,2.702 C 7.983,2.541 7.836,2.419 7.677,2.427 7.513,2.43 7.375,2.551 7.352,2.714 L 6.573,8.074 H 5.578 C 5.541,8.074 5.506,8.08 5.473,8.091 L 4.944,5.154 C 4.916,5.001 4.786,4.886 4.63,4.88 4.458,4.856 4.334,4.974 4.293,5.125 L 3.478,8.075 H 2.126 c -0.185,0 -0.334,0.149 -0.334,0.334 0,0.185 0.149,0.335 0.334,0.335 z"
   style="fill:#030104" />
	</g>
<g
   id="g13054">
</g>
<g
   id="g13056">
</g>
<g
   id="g13058">
</g>
<g
   id="g13060">
</g>
<g
   id="g13062">
</g>
<g
   id="g13064">
</g>
<g
   id="g13066">
</g>
<g
   id="g13068">
</g>
<g
   id="g13070">
</g>
<g
   id="g13072">
</g>
<g
   id="g13074">
</g>
<g
   id="g13076">
</g>
<g
   id="g13078">
</g>
<g
   id="g13080">
</g>
<g
   id="g13082">
</g>
</svg>