<?xml version="1.0" encoding="iso-8859-1"?>
<!-- Generator: Adobe Illustrator 19.0.0, SVG Export Plug-In . SVG Version: 6.00 Build 0)  -->
<svg version="1.1" id="Capa_1" xmlns="http://www.w3.org/2000/svg" xmlns:xlink="http://www.w3.org/1999/xlink" x="0px" y="0px"
	 viewBox="0 0 512.002 512.002" style="enable-background:new 0 0 512.002 512.002;" xml:space="preserve">
<path style="fill:#FFD151;" d="M477.838,420.837v84.981c0,3.414-2.767,6.18-6.18,6.18h-79.141h-273.03H40.345
	c-3.414,0-6.18-2.767-6.18-6.18v-84.981H477.838z"/>
<rect x="34.167" y="420.833" style="fill:#F79B4A;" width="443.669" height="26.781"/>
<path style="fill:#49484D;" d="M392.515,426.677h96.207c3.414,0,6.18-2.767,6.18-6.18V262.213c0-3.414-2.767-6.18-6.18-6.18h-96.207
	H119.487H23.28c-3.414,0-6.18,2.767-6.18,6.18v158.283c0,3.414,2.767,6.18,6.18,6.18h96.207H392.515z"/>
<rect x="128.014" y="80.714" style="fill:#985335;" width="255.965" height="43.468"/>
<rect x="363.379" y="80.714" style="fill:#87462A;" width="20.601" height="43.468"/>
<path style="fill:#58565C;" d="M386.336,119.519H125.667c-3.414,0-6.18,2.767-6.18,6.18V512h273.03V125.699
	C392.516,122.285,389.75,119.519,386.336,119.519z"/>
<path style="fill:#FFD151;" d="M401.048,57.441v21.77c0,3.414-2.767,6.18-6.18,6.18H117.135c-3.414,0-6.18-2.767-6.18-6.18v-21.77
	c0-3.414,2.767-6.18,6.18-6.18h277.733C398.28,51.261,401.048,54.028,401.048,57.441z"/>
<path style="fill:#F79B4A;" d="M394.868,51.261h-20.601c3.414,0,6.18,2.767,6.18,6.18v21.77c0,3.414-2.767,6.18-6.18,6.18h20.601
	c3.414,0,6.18-2.767,6.18-6.18v-21.77C401.048,54.028,398.28,51.261,394.868,51.261z"/>
<path style="fill:#58565C;" d="M292.483,85.392H219.52c-3.414,0-6.18-2.767-6.18-6.18V6.25c0-3.414,2.767-6.18,6.18-6.18h72.963
	c3.414,0,6.18,2.767,6.18,6.18v72.962C298.663,82.626,295.896,85.392,292.483,85.392z"/>
<g>
	<path style="fill:#49484D;" d="M292.483,0h-20.601c3.414,0,6.18,2.767,6.18,6.18v73.032c0,3.414-2.767,6.18-6.18,6.18h20.601
		c3.414,0,6.18-2.767,6.18-6.18V6.18C298.663,2.767,295.896,0,292.483,0z"/>
	<path style="fill:#49484D;" d="M371.916,125.699V512h20.601V125.699c0-3.414-2.767-6.18-6.18-6.18h-20.601
		C369.149,119.519,371.916,122.285,371.916,125.699z"/>
</g>
<path style="fill:#FFFFFF;" d="M273.065,13.676c-4.266,0-7.725,3.458-7.725,7.725v13.604h-18.677V21.401
	c0-4.267-3.459-7.725-7.725-7.725c-4.266,0-7.725,3.458-7.725,7.725v42.66c0,4.267,3.459,7.725,7.725,7.725
	c4.266,0,7.725-3.458,7.725-7.725V50.455h18.677v13.606c0,4.267,3.459,7.725,7.725,7.725s7.725-3.458,7.725-7.725v-42.66
	C280.79,17.135,277.331,13.676,273.065,13.676z"/>
<rect x="204.814" y="396.123" style="fill:#00BCE7;" width="102.386" height="115.88"/>
<g>
	<path style="fill:#FFD151;" d="M230.406,453.082c-4.266,0-7.725,3.458-7.725,7.725v8.533c0,4.266,3.459,7.725,7.725,7.725
		c4.266,0,7.725-3.459,7.725-7.725v-8.533C238.131,456.54,234.672,453.082,230.406,453.082z"/>
	<path style="fill:#FFD151;" d="M281.596,453.082c-4.266,0-7.725,3.458-7.725,7.725v8.533c0,4.266,3.459,7.725,7.725,7.725
		s7.725-3.459,7.725-7.725v-8.533C289.322,456.54,285.864,453.082,281.596,453.082z"/>
</g>
<rect x="248.014" y="396.123" style="fill:#0094D4;" width="15.451" height="115.88"/>
<g>
	<path style="fill:#00BCE7;" d="M181.563,324.291h-21.768c-3.414,0-6.18-2.767-6.18-6.18v-21.768c0-3.414,2.767-6.18,6.18-6.18
		h21.768c3.414,0,6.18,2.767,6.18,6.18v21.768C187.743,321.524,184.976,324.291,181.563,324.291z"/>
	<path style="fill:#00BCE7;" d="M352.207,324.291h-21.769c-3.414,0-6.18-2.767-6.18-6.18v-21.768c0-3.414,2.767-6.18,6.18-6.18
		h21.768c3.414,0,6.18,2.767,6.18,6.18v21.768C358.387,321.524,355.619,324.291,352.207,324.291z"/>
	<path style="fill:#00BCE7;" d="M266.619,324.291h-21.768c-3.414,0-6.18-2.767-6.18-6.18v-21.768c0-3.414,2.767-6.18,6.18-6.18
		h21.768c3.414,0,6.18,2.767,6.18,6.18v21.768C272.799,321.524,270.032,324.291,266.619,324.291z"/>
	<path style="fill:#00BCE7;" d="M181.563,256.033h-21.768c-3.414,0-6.18-2.767-6.18-6.18v-21.768c0-3.414,2.767-6.18,6.18-6.18
		h21.768c3.414,0,6.18,2.767,6.18,6.18v21.768C187.743,253.266,184.976,256.033,181.563,256.033z"/>
	<path style="fill:#00BCE7;" d="M352.207,256.033h-21.769c-3.414,0-6.18-2.767-6.18-6.18v-21.768c0-3.414,2.767-6.18,6.18-6.18
		h21.768c3.414,0,6.18,2.767,6.18,6.18v21.768C358.387,253.266,355.619,256.033,352.207,256.033z"/>
	<path style="fill:#00BCE7;" d="M266.619,256.033h-21.768c-3.414,0-6.18-2.767-6.18-6.18v-21.768c0-3.414,2.767-6.18,6.18-6.18
		h21.768c3.414,0,6.18,2.767,6.18,6.18v21.768C272.799,253.266,270.032,256.033,266.619,256.033z"/>
	<path style="fill:#00BCE7;" d="M181.563,187.776h-21.768c-3.414,0-6.18-2.767-6.18-6.18v-21.768c0-3.414,2.767-6.18,6.18-6.18
		h21.768c3.414,0,6.18,2.767,6.18,6.18v21.768C187.743,185.009,184.976,187.776,181.563,187.776z"/>
	<path style="fill:#00BCE7;" d="M352.207,187.776h-21.769c-3.414,0-6.18-2.767-6.18-6.18v-21.768c0-3.414,2.767-6.18,6.18-6.18
		h21.768c3.414,0,6.18,2.767,6.18,6.18v21.768C358.387,185.009,355.619,187.776,352.207,187.776z"/>
	<path style="fill:#00BCE7;" d="M266.619,187.776h-21.768c-3.414,0-6.18-2.767-6.18-6.18v-21.768c0-3.414,2.767-6.18,6.18-6.18
		h21.768c3.414,0,6.18,2.767,6.18,6.18v21.768C272.799,185.009,270.032,187.776,266.619,187.776z"/>
	<path style="fill:#00BCE7;" d="M79.177,324.291H57.408c-3.414,0-6.18-2.767-6.18-6.18v-21.768c0-3.414,2.767-6.18,6.18-6.18h21.769
		c3.414,0,6.18,2.767,6.18,6.18v21.768C85.357,321.524,82.59,324.291,79.177,324.291z"/>
	<path style="fill:#00BCE7;" d="M454.594,324.291h-21.768c-3.414,0-6.18-2.767-6.18-6.18v-21.768c0-3.414,2.767-6.18,6.18-6.18
		h21.768c3.414,0,6.18,2.767,6.18,6.18v21.768C460.774,321.524,458.006,324.291,454.594,324.291z"/>
	<path style="fill:#00BCE7;" d="M79.177,392.548H57.408c-3.414,0-6.18-2.767-6.18-6.18V364.6c0-3.414,2.767-6.18,6.18-6.18h21.769
		c3.414,0,6.18,2.767,6.18,6.18v21.768C85.357,389.782,82.59,392.548,79.177,392.548z"/>
	<path style="fill:#00BCE7;" d="M454.594,392.548h-21.768c-3.414,0-6.18-2.767-6.18-6.18V364.6c0-3.414,2.767-6.18,6.18-6.18h21.768
		c3.414,0,6.18,2.767,6.18,6.18v21.768C460.774,389.782,458.006,392.548,454.594,392.548z"/>
</g>
<path style="fill:#FFD151;" d="M342.13,512v-34.133c0-4.267,3.459-7.725,7.725-7.725c4.266,0,7.725,3.458,7.725,7.725V512H342.13z"
	/>
<path style="fill:#00CE96;" d="M356.473,477.867h-13.236c-3.414,0-6.18-2.767-6.18-6.18v-38.829c0-3.414,2.767-6.18,6.18-6.18
	h13.236c3.414,0,6.18,2.767,6.18,6.18v38.829C362.653,475.1,359.887,477.867,356.473,477.867z"/>
<path style="fill:#FFD151;" d="M154.423,512v-34.133c0-4.267,3.459-7.725,7.725-7.725c4.266,0,7.725,3.458,7.725,7.725V512H154.423z
	"/>
<path style="fill:#00CE96;" d="M168.766,477.867H155.53c-3.414,0-6.18-2.767-6.18-6.18v-38.829c0-3.414,2.767-6.18,6.18-6.18h13.236
	c3.414,0,6.18,2.767,6.18,6.18v38.829C174.946,475.1,172.179,477.867,168.766,477.867z"/>
<path style="fill:#FFD151;" d="M193.926,375.485h124.154c3.414,0,6.18,2.767,6.18,6.18v21.769c0,3.414-2.767,6.18-6.18,6.18H193.926
	c-3.414,0-6.18-2.767-6.18-6.18v-21.769C187.745,378.251,190.512,375.485,193.926,375.485z"/>
<path style="fill:#F79B4A;" d="M318.078,375.484h-20.601c3.414,0,6.18,2.767,6.18,6.18v21.77c0,3.414-2.767,6.18-6.18,6.18h20.601
	c3.414,0,6.18-2.767,6.18-6.18v-21.77C324.259,378.25,321.492,375.484,318.078,375.484z"/>
<rect x="392.518" y="256.037" style="fill:#3A393D;" width="20.601" height="170.647"/>
<g>
</g>
<g>
</g>
<g>
</g>
<g>
</g>
<g>
</g>
<g>
</g>
<g>
</g>
<g>
</g>
<g>
</g>
<g>
</g>
<g>
</g>
<g>
</g>
<g>
</g>
<g>
</g>
<g>
</g>
</svg>
