<?xml version="1.0" encoding="iso-8859-1"?>
<!-- Generator: Adobe Illustrator 19.0.0, SVG Export Plug-In . SVG Version: 6.00 Build 0)  -->
<svg xmlns="http://www.w3.org/2000/svg" xmlns:xlink="http://www.w3.org/1999/xlink" version="1.1" id="Capa_1" x="0px" y="0px" viewBox="0 0 512 512" style="enable-background:new 0 0 512 512;" xml:space="preserve" width="512px" height="512px">
<g>
	<g>
		<path d="M499.136,64.312l-160-32c-2.08-0.416-4.208-0.416-6.288,0L176,63.688L19.136,32.312c-4.704-0.96-9.568,0.272-13.28,3.312    C2.144,38.664,0,43.208,0,48.008v384c0,7.632,5.376,14.192,12.864,15.68l160,32c2.08,0.416,4.208,0.416,6.288,0L336,448.328    l156.864,31.36c1.04,0.208,2.096,0.32,3.136,0.32c3.664,0,7.264-1.264,10.144-3.632c3.712-3.04,5.856-7.568,5.856-12.368v-384    C512,72.376,506.624,65.8,499.136,64.312z M96,80.312l76.864,15.376c2.08,0.432,4.192,0.432,6.272,0L320,67.528v95.36    L177.024,191.48L96,164.472V80.312z M160,444.472l-128-25.6v-79.36l128,25.6V444.472z M480,444.472l-64-12.784v-76.8l64,10.656    V444.472z M480,333.112l-77.36-12.896c-4.656-0.784-9.392,0.528-12.976,3.568c-3.584,3.04-5.664,7.52-5.664,12.224v89.28    l-44.864-8.976c-2.08-0.416-4.192-0.416-6.272,0L192,444.488v-92.48c0-7.632-5.376-14.192-12.864-15.68L32,306.888v-45.376    l139.408,41.824c2.496,0.736,5.152,0.88,7.728,0.352L320,275.512v92.48h32v-112c0-4.8-2.144-9.328-5.856-12.368    c-3.696-3.04-8.592-4.272-13.28-3.312l-156.08,31.216L32,228.104V67.512l32,6.4v102.08c0,6.896,4.4,13.008,10.944,15.184l96,32    c1.648,0.544,3.344,0.816,5.056,0.816c1.04,0,2.096-0.096,3.136-0.32l160-32C346.624,190.2,352,183.624,352,176.008V67.528l32,6.4    v70.08c0,7.824,5.664,14.496,13.36,15.776L480,173.56V333.112z M480,141.112l-64-10.672V80.328l64,12.8V141.112z" fill="#006DF0"/>
	</g>
</g>
<g>
</g>
<g>
</g>
<g>
</g>
<g>
</g>
<g>
</g>
<g>
</g>
<g>
</g>
<g>
</g>
<g>
</g>
<g>
</g>
<g>
</g>
<g>
</g>
<g>
</g>
<g>
</g>
<g>
</g>
</svg>
