<?xml version="1.0" encoding="iso-8859-1"?>
<!-- Generator: Adobe Illustrator 19.0.0, SVG Export Plug-In . SVG Version: 6.00 Build 0)  -->
<svg version="1.1" id="Layer_1" xmlns="http://www.w3.org/2000/svg" xmlns:xlink="http://www.w3.org/1999/xlink" x="0px" y="0px"
	 viewBox="0 0 512 512" style="enable-background:new 0 0 512 512;" xml:space="preserve">
<path style="fill:#546F7A;" d="M475.271,78.267c-0.574-3.655-3.724-6.348-7.423-6.348c-88.978,0-206.8-70.139-207.979-70.847
	c-2.381-1.43-5.358-1.43-7.739,0C250.95,1.781,133.129,71.92,44.151,71.92c-3.7,0-6.849,2.693-7.423,6.348
	c-0.549,3.495-13.225,86.714,6.687,182.221c11.752,56.37,32.514,105.12,61.708,144.899c36.632,49.913,86.597,85.654,148.505,106.23
	c0.769,0.255,1.57,0.384,2.37,0.384s1.601-0.128,2.37-0.384c61.909-20.576,111.874-56.317,148.505-106.23
	c29.194-39.779,49.956-88.529,61.708-144.899C488.497,164.981,475.821,81.763,475.271,78.267z"/>
<path style="fill:#465A65;" d="M475.271,78.267c-0.574-3.655-3.724-6.348-7.423-6.348c-6.672,0-13.508-0.402-20.444-1.131
	c2.648,20.673,10.341,97.448-7.69,183.932c-12.207,58.552-33.773,109.188-64.096,150.506
	c-33.766,46.007-78.447,80.412-133.018,102.514c3.634,1.345,7.309,2.64,11.028,3.876c0.769,0.255,1.57,0.384,2.37,0.384
	c0.8,0,1.601-0.128,2.37-0.384c61.909-20.576,111.874-56.317,148.505-106.23c29.194-39.779,49.956-88.529,61.708-144.899
	C488.497,164.981,475.821,81.763,475.271,78.267z"/>
<path style="fill:#EFE7E4;" d="M432.632,112.738c-0.574-3.655-3.723-6.348-7.423-6.348c-70.641,0-164.402-55.808-165.34-56.372
	c-2.38-1.43-5.358-1.43-7.739,0c-0.939,0.564-94.63,56.371-165.338,56.371c-3.699,0-6.849,2.693-7.423,6.348
	c-0.44,2.803-10.605,69.537,5.355,146.088c9.431,45.237,26.102,84.373,49.549,116.321c29.448,40.124,69.606,68.854,119.357,85.388
	c0.769,0.255,1.57,0.384,2.37,0.384c0.8,0,1.601-0.128,2.37-0.384c49.752-16.536,89.91-45.265,119.358-85.388
	c23.447-31.947,40.118-71.084,49.55-116.321C443.238,182.274,433.073,115.54,432.632,112.738z"/>
<path style="fill:#D8D1D0;" d="M432.632,112.738c-0.574-3.655-3.723-6.348-7.423-6.348c-6.618,0-13.439-0.49-20.368-1.379
	c2.511,22.525,6.91,82.45-7.023,149.275c-10.242,49.126-28.347,91.628-53.81,126.321c-24.74,33.71-56.447,60.006-94.547,78.501
	c1.383,0.484,2.77,0.961,4.168,1.426c0.769,0.255,1.57,0.384,2.37,0.384c0.8,0,1.601-0.128,2.37-0.384
	c49.752-16.536,89.91-45.265,119.358-85.388c23.447-31.947,40.118-71.084,49.55-116.321
	C443.238,182.274,433.073,115.54,432.632,112.738z"/>
<path style="fill:#68B9D8;" d="M256.103,234.963c-0.068-0.001-0.137-0.001-0.205,0c-48.986,0.67-90.371,40.844-90.371,87.727v26.635
	c0,4.15,3.364,7.514,7.514,7.514H338.96c4.15,0,7.514-3.364,7.514-7.514v-26.635C346.473,275.806,305.089,235.633,256.103,234.963z"
	/>
<path style="fill:#3695B2;" d="M256.103,234.963c-0.068-0.001-0.137-0.001-0.205,0c-4.727,0.065-9.382,0.501-13.937,1.272
	c42.649,7.217,76.434,44.097,76.434,86.455v26.635c0,4.15-3.364,7.514-7.514,7.514h28.079c4.15,0,7.514-3.364,7.514-7.514V322.69
	C346.473,275.806,305.089,235.633,256.103,234.963z"/>
<path style="fill:#D3333C;" d="M265.522,265.957H256h-9.523l-10.65-20.69c6.521-1.73,13.29-2.697,20.172-2.791
	c6.883,0.094,13.651,1.061,20.172,2.791L265.522,265.957z"/>
<path style="fill:#F2464F;" d="M284.803,312.627l-11.405-49.507c-0.811-3.523-3.947-6.018-7.562-6.018h-19.67
	c-3.615,0-6.752,2.496-7.563,6.018l-11.405,49.507c-0.628,2.726,0.259,5.578,2.323,7.467l21.24,19.44
	c1.483,1.358,3.361,2.036,5.24,2.036c1.879,0,3.757-0.678,5.24-2.036l21.24-19.44C284.544,318.205,285.431,315.353,284.803,312.627z
	"/>
<g>
	<path style="fill:#D3333C;" d="M273.398,263.12c-0.811-3.523-3.947-6.018-7.562-6.018H255.04l-4.544,8.856l11.042,47.934
		l-19.397,17.753l8.62,7.89c1.483,1.358,3.361,2.036,5.24,2.036c1.879,0,3.757-0.678,5.24-2.036l21.24-19.44
		c2.064-1.889,2.951-4.742,2.323-7.467L273.398,263.12z"/>
	<path style="fill:#D3333C;" d="M256.103,234.963c-0.068-0.001-0.137-0.001-0.205,0c-10.799,0.148-21.227,2.218-30.925,5.854
		l13.055,25.142h35.948l12.568-25.322C276.982,237.112,266.722,235.108,256.103,234.963z"/>
</g>
<path style="fill:#AF273B;" d="M265.832,235.64l-15.336,30.317h5.505h17.973l12.568-25.322
	C279.937,238.201,272.992,236.513,265.832,235.64z"/>
<path style="fill:#FFC89F;" d="M256,121.62c-26.004,0-47.16,21.156-47.16,47.16v34.117c0,26.004,21.156,47.16,47.16,47.16l0,0
	c26.004,0,47.16-21.156,47.16-47.16V168.78C303.161,142.776,282.005,121.62,256,121.62z"/>
<path style="fill:#F7B081;" d="M256,121.62c-4.816,0-9.464,0.729-13.844,2.077c19.27,5.929,33.318,23.895,33.318,45.084v34.117
	c0,21.188-14.048,39.155-33.318,45.084c4.38,1.347,9.028,2.077,13.844,2.077l0,0c26.004,0,47.16-21.156,47.16-47.16V168.78
	C303.161,142.776,282.005,121.62,256,121.62z"/>
<path d="M303.161,185.834V168.78c0-26.004-21.156-47.16-47.161-47.16c-26.004,0-47.16,21.156-47.16,47.16v17.059h7.514
	c34.653,0,47.278-23.398,47.278-23.398s8.824,23.285,32.016,23.393H303.161z"/>
<g>
</g>
<g>
</g>
<g>
</g>
<g>
</g>
<g>
</g>
<g>
</g>
<g>
</g>
<g>
</g>
<g>
</g>
<g>
</g>
<g>
</g>
<g>
</g>
<g>
</g>
<g>
</g>
<g>
</g>
</svg>
