<?xml version="1.0" encoding="UTF-8" standalone="no"?>
<svg
   xmlns:dc="http://purl.org/dc/elements/1.1/"
   xmlns:cc="http://creativecommons.org/ns#"
   xmlns:rdf="http://www.w3.org/1999/02/22-rdf-syntax-ns#"
   xmlns:svg="http://www.w3.org/2000/svg"
   xmlns="http://www.w3.org/2000/svg"
   xmlns:sodipodi="http://sodipodi.sourceforge.net/DTD/sodipodi-0.dtd"
   xmlns:inkscape="http://www.inkscape.org/namespaces/inkscape"
   id="_x33_0"
   enable-background="new 0 0 64 64"
   height="512"
   viewBox="0 0 64 64"
   width="512"
   version="1.1"
   inkscape:version="0.48.5 r10040"
   sodipodi:docname="intrusion-alarm.svg">
  <metadata
     id="metadata4095">
    <rdf:RDF>
      <cc:Work
         rdf:about="">
        <dc:format>image/svg+xml</dc:format>
        <dc:type
           rdf:resource="http://purl.org/dc/dcmitype/StillImage" />
      </cc:Work>
    </rdf:RDF>
  </metadata>
  <defs
     id="defs4093" />
  <sodipodi:namedview
     pagecolor="#ffffff"
     bordercolor="#666666"
     borderopacity="1"
     objecttolerance="10"
     gridtolerance="10"
     guidetolerance="10"
     inkscape:pageopacity="0"
     inkscape:pageshadow="2"
     inkscape:window-width="640"
     inkscape:window-height="480"
     id="namedview4091"
     showgrid="false"
     inkscape:zoom="0.4609375"
     inkscape:cx="256"
     inkscape:cy="256"
     inkscape:window-x="0"
     inkscape:window-y="0"
     inkscape:window-maximized="0"
     inkscape:current-layer="_x33_0" />
  <g
     id="g4097">
    <path
       id="path4069"
       fill="#969faa"
       d="m62 2v5.64c0 .12-.01.24-.03.36h-10.97-12-36.97c-.02-.12-.03-.24-.03-.36v-5.64z" />
    <path
       id="path4071"
       fill="#ccd1d9"
       d="m61.97 8c-.02.12-.05.23-.1.34l-5.38 14.36c-.3.78-1.04 1.3-1.88 1.3h-.61-10-12-12-10-.61c-.84 0-1.58-.52-1.88-1.3l-5.38-14.36c-.05-.11-.08-.22-.1-.34h36.97v6c0 3.31 2.69 6 6 6 1.66 0 3.16-.67 4.24-1.76 1.09-1.08 1.76-2.58 1.76-4.24v-6z" />
    <path
       id="path4073"
       fill="#ffeaa7"
       d="m51 8v6c0 1.66-.67 3.16-1.76 4.24-1.08 1.09-2.58 1.76-4.24 1.76-3.31 0-6-2.69-6-6v-6z" />
    <path
       id="path4075"
       fill="#fcd770"
       d="m50 34v1c0 1.66-1.34 3-3 3h-30c-1.66 0-3-1.34-3-3v-1h10 8 8z" />
    <circle
       id="circle4077"
       r="2"
       fill="#fc6e51"
       cy="14"
       cx="45" />
    <path
       id="path4079"
       fill="#ffeaa7"
       d="m44 24h-12-12-10l4 10h10 8 8 10l4-10z" />
    <path
       id="path4081"
       d="m45 17c1.654 0 3-1.346 3-3s-1.346-3-3-3-3 1.346-3 3 1.346 3 3 3zm0-4c.551 0 1 .448 1 1s-.449 1-1 1-1-.448-1-1 .449-1 1-1z" />
    <path
       id="path4083"
       d="m1 1v6.638c0 .361.064.717.191 1.054l5.386 14.362c.429 1.143 1.527 1.914 2.744 1.941l3.679 9.197v.808c0 2.206 1.794 4 4 4h30c2.206 0 4-1.794 4-4v-.808l3.679-9.198c1.217-.027 2.314-.798 2.744-1.941l5.386-14.362c.127-.337.191-.692.191-1.053v-6.638zm60 2v4h-58v-4zm-21 6h10v5c0 2.757-2.243 5-5 5s-5-2.243-5-5zm-28.523 16h7.846l3.2 8h-7.846zm21.523 8v-8h9.523l-3.2 8zm-2 0h-6.323l-3.2-8h9.523zm16 4h-30c-1.103 0-2-.897-2-2h34c0 1.103-.897 2-2 2zm2.323-4h-7.846l3.2-8h7.846zm6.227-10.649c-.146.388-.522.649-.936.649h-45.228c-.415 0-.791-.261-.937-.649l-5.006-13.351h34.557v5c0 3.859 3.14 7 7 7s7-3.141 7-7v-5h8.557z" />
    <path
       id="path4085"
       d="m32 61c-7.659 0-14.862-3.088-20.281-8.695l-1.438 1.391c5.8 5.999 13.513 9.304 21.719 9.304s15.919-3.305 21.719-9.305l-1.438-1.391c-5.419 5.608-12.622 8.696-20.281 8.696z" />
    <path
       id="path4087"
       d="m14.295 49.709c4.881 4.853 11.293 7.278 17.705 7.278s12.824-2.426 17.705-7.278l-1.41-1.418c-8.985 8.932-23.604 8.932-32.59 0z" />
    <path
       id="path4089"
       d="m45.681 45.732-1.361-1.465c-6.793 6.307-17.846 6.307-24.639 0l-1.361 1.465c3.772 3.503 8.726 5.254 13.681 5.254s9.908-1.751 13.68-5.254z" />
  </g>
</svg>
