<svg height="512pt" viewBox="-26 0 512 512" width="512pt" xmlns="http://www.w3.org/2000/svg"><path d="m10 10h240v492h-240zm0 0" fill="#d9e7ec"/><path d="m130 296c-38.660156 0-70 31.339844-70 70s31.339844 70 70 70c27.921875 0 52.03125-16.351562 63.261719-40v-60c-11.230469-23.648438-35.339844-40-63.261719-40zm0 0" fill="#50536e"/><path d="m450 356v20c0 11.050781-8.949219 20-20 20h-40v-60h40c11.050781 0 20 8.949219 20 20zm0 0" fill="#ffd659"/><path d="m350 336h40v60h-40zm0 0" fill="#50536e"/><path d="m350 336v60c-39.167969 0-164.175781 0-220 0-11.050781 0-20-8.949219-20-20v-20c0-11.050781 8.949219-20 20-20zm0 0" fill="#ffd659"/><path d="m350 113v120c-6.738281 0-213.203125 0-220 0v-120zm0 0" fill="#ffd659"/><path d="m350 73v40h-220v-40zm0 0" fill="#50536e"/><path d="m60 173c0 5.523438-4.476562 10-10 10s-10-4.476562-10-10 4.476562-10 10-10 10 4.476562 10 10zm0 0"/><path d="m460 376v-20c0-16.542969-13.457031-30-30-30h-170v-83h90c5.523438 0 10-4.476562 10-10v-160c0-5.523438-4.476562-10-10-10h-90v-53c0-5.523438-4.476562-10-10-10h-240c-5.523438 0-10 4.476562-10 10v492c0 5.523438 4.476562 10 10 10h240c5.523438 0 10-4.476562 10-10v-96h170c16.542969 0 30-13.457031 30-30zm-20-20v20c0 5.515625-4.484375 10-10 10h-30v-40h30c5.515625 0 10 4.484375 10 10zm-310 30c-5.515625 0-10-4.484375-10-10v-20c0-5.515625 4.484375-10 10-10h210v40zm0 19.988281h44.6875c-11.234375 12.488281-27.464844 20.011719-44.6875 20.011719-33.085938 0-60-26.914062-60-60s26.914062-60 60-60c17.222656 0 33.453125 7.515625 44.6875 20h-44.6875c-16.542969 0-30 13.457031-30 30v20c0 16.542969 13.457031 29.988281 30 29.988281zm230-59.988281h20v40h-20zm-220-123v-100h200v100zm200-120h-200v-20h200zm-100 389h-220v-472h220v43h-100v-10c0-5.523438-4.476562-10-10-10s-10 4.476562-10 10v200c0 5.523438 4.476562 10 10 10s10-4.476562 10-10v-10h100v83h-40.722656c-14.183594-24.488281-40.710938-40-69.277344-40-44.113281 0-80 35.886719-80 80s35.886719 80 80 80c28.566406 0 55.09375-15.511719 69.277344-40h40.722656zm0 0"/><path d="m290 143c-13.035156 0-24.152344 8.359375-28.28125 20h-91.71875c-5.523438 0-10 4.476562-10 10s4.476562 10 10 10h10v10c0 5.523438 4.476562 10 10 10s10-4.476562 10-10v-10h20v10c0 5.523438 4.476562 10 10 10s10-4.476562 10-10v-10h21.71875c4.128906 11.640625 15.246094 20 28.28125 20 16.542969 0 30-13.457031 30-30s-13.457031-30-30-30zm0 40c-5.515625 0-10-4.484375-10-10s4.484375-10 10-10 10 4.484375 10 10-4.484375 10-10 10zm0 0"/><path d="m50 143c5.523438 0 10-4.476562 10-10v-80c0-5.523438-4.476562-10-10-10s-10 4.476562-10 10v80c0 5.523438 4.476562 10 10 10zm0 0"/></svg>