<?xml version="1.0" encoding="UTF-8" standalone="no"?>
<!-- Generator: Adobe Illustrator 19.0.0, SVG Export Plug-In . SVG Version: 6.00 Build 0)  -->

<svg
   xmlns:dc="http://purl.org/dc/elements/1.1/"
   xmlns:cc="http://creativecommons.org/ns#"
   xmlns:rdf="http://www.w3.org/1999/02/22-rdf-syntax-ns#"
   xmlns:svg="http://www.w3.org/2000/svg"
   xmlns="http://www.w3.org/2000/svg"
   xmlns:sodipodi="http://sodipodi.sourceforge.net/DTD/sodipodi-0.dtd"
   xmlns:inkscape="http://www.inkscape.org/namespaces/inkscape"
   version="1.1"
   id="Layer_1"
   x="0px"
   y="0px"
   viewBox="0 0 512 512"
   style="enable-background:new 0 0 512 512;"
   xml:space="preserve"
   inkscape:version="0.48.5 r10040"
   width="100%"
   height="100%"
   sodipodi:docname="laptop.svg"><metadata
   id="metadata6409"><rdf:RDF><cc:Work
       rdf:about=""><dc:format>image/svg+xml</dc:format><dc:type
         rdf:resource="http://purl.org/dc/dcmitype/StillImage" /></cc:Work></rdf:RDF></metadata><defs
   id="defs6407" /><sodipodi:namedview
   pagecolor="#ffffff"
   bordercolor="#666666"
   borderopacity="1"
   objecttolerance="10"
   gridtolerance="10"
   guidetolerance="10"
   inkscape:pageopacity="0"
   inkscape:pageshadow="2"
   inkscape:window-width="640"
   inkscape:window-height="480"
   id="namedview6405"
   showgrid="false"
   inkscape:zoom="0.4609375"
   inkscape:cx="256"
   inkscape:cy="256"
   inkscape:window-x="146"
   inkscape:window-y="40"
   inkscape:window-maximized="0"
   inkscape:current-layer="Layer_1" />
<circle
   style="fill:#00aad4"
   cx="256"
   cy="256"
   r="256"
   id="circle6355" />
<path
   style="fill:#B3B3B3;"
   d="M0,404h512v12l0,0c0,6.6-5.4,12-12,12H12c-6.596,0-12-5.4-12-12l0,0V404z"
   id="path6357" />
<polygon
   style="fill:#E6E6E6;"
   points="432,332 80,332 0,404 512,404 "
   id="polygon6359" />
<polygon
   style="fill:#F5F5F5;"
   points="41.696,388 86.14,348 425.86,348 470.304,388 "
   id="polygon6361" />
<path
   style="fill:#E6E6E6;"
   d="M288,404c0,4.416-3.584,8-8,8h-56c-4.416,0-8-3.584-8-8H288z"
   id="path6363" />
<path
   style="fill:#263740;"
   d="M80,332V116c0-6.6,5.404-12,12-12h328c6.6,0,12,5.4,12,12v216H80z"
   id="path6365" />
<rect
   x="104"
   y="128"
   style="fill:#406A80;"
   width="304"
   height="184"
   id="rect6367" />
<circle
   style="fill:#70CCBD;"
   cx="412"
   cy="340"
   r="4"
   id="circle6369" />
<circle
   style="fill:#CC584C;"
   cx="256"
   cy="116"
   r="4"
   id="circle6371" />
<path
   style="fill:#263740;"
   d="M460,420h-40c-2.208,0-4-1.788-4-4s1.792-4,4-4h40c2.212,0,4,1.788,4,4S462.212,420,460,420z"
   id="path6373" />
<g
   id="g6375">
</g>
<g
   id="g6377">
</g>
<g
   id="g6379">
</g>
<g
   id="g6381">
</g>
<g
   id="g6383">
</g>
<g
   id="g6385">
</g>
<g
   id="g6387">
</g>
<g
   id="g6389">
</g>
<g
   id="g6391">
</g>
<g
   id="g6393">
</g>
<g
   id="g6395">
</g>
<g
   id="g6397">
</g>
<g
   id="g6399">
</g>
<g
   id="g6401">
</g>
<g
   id="g6403">
</g>
</svg>