<?xml version="1.0" encoding="iso-8859-1"?>
<!-- Generator: Adobe Illustrator 19.0.0, SVG Export Plug-In . SVG Version: 6.00 Build 0)  -->
<svg version="1.1" id="Layer_1" xmlns="http://www.w3.org/2000/svg" xmlns:xlink="http://www.w3.org/1999/xlink" x="0px" y="0px"
	 viewBox="0 0 512 512" style="enable-background:new 0 0 512 512;" xml:space="preserve">
<rect x="72" y="10" style="fill:#FFFFFF;" width="368" height="492"/>
<rect x="102" y="44" style="fill:#64C5F2;" width="308" height="240.33"/>
<path d="M440,512H72c-5.522,0-10-4.477-10-10V10c0-5.523,4.478-10,10-10h368c5.522,0,10,4.477,10,10v492
	C450,507.523,445.522,512,440,512z M82,492h348V20H82V492z"/>
<path d="M181.147,458h-59.354c-5.522,0-10-4.477-10-10s4.478-10,10-10h59.354c5.522,0,10,4.477,10,10S186.67,458,181.147,458z"/>
<path d="M207.973,372.001h-86.179c-5.522,0-10-4.477-10-10s4.478-10,10-10h86.179c5.522,0,10,4.477,10,10
	S213.495,372.001,207.973,372.001z"/>
<path d="M240.632,372.001h-0.131c-5.522,0-10-4.477-10-10s4.478-10,10-10h0.131c5.522,0,10,4.477,10,10
	S246.154,372.001,240.632,372.001z"/>
<path d="M207.973,415h-86.179c-5.522,0-10-4.477-10-10s4.478-10,10-10h86.179c5.522,0,10,4.477,10,10S213.495,415,207.973,415z"/>
<path d="M240.632,415h-0.131c-5.522,0-10-4.477-10-10s4.478-10,10-10h0.131c5.522,0,10,4.477,10,10S246.154,415,240.632,415z"/>
<path d="M324.505,124.616c-6.171-10.688-19.553-15.585-37.682-13.836C279.27,94.199,268.34,85.065,256,85.065
	s-23.27,9.134-30.822,25.715c-18.141-1.751-31.512,3.149-37.682,13.836c-6.171,10.688-3.726,24.72,6.858,39.552
	c-10.583,14.831-13.029,28.865-6.858,39.551c5.353,9.271,16.12,14.192,30.719,14.192c2.23,0,4.559-0.126,6.962-0.357
	c7.552,16.581,18.482,25.716,30.823,25.716s23.271-9.135,30.824-25.716c2.404,0.232,4.73,0.357,6.961,0.357
	c14.598,0,25.367-4.922,30.72-14.192c6.171-10.687,3.725-24.72-6.858-39.551C328.229,149.336,330.676,135.303,324.505,124.616z
	 M307.185,134.616c1.239,2.146,0.917,6.987-3.308,14.104c-2.667-2.483-5.51-4.916-8.51-7.282c-0.549-3.783-1.235-7.462-2.052-11.015
	c0.189-0.002,0.383-0.008,0.568-0.008C301.8,130.416,305.974,132.519,307.185,134.616z M245.512,182.333
	c-3.455-1.995-6.795-4.124-9.989-6.343c-0.326-3.876-0.499-7.834-0.499-11.823s0.173-7.947,0.499-11.823
	c3.194-2.22,6.534-4.349,9.989-6.343s6.969-3.823,10.488-5.479c3.52,1.656,7.033,3.485,10.488,5.479s6.795,4.124,9.989,6.343
	c0.326,3.876,0.499,7.834,0.499,11.823s-0.173,7.947-0.499,11.823c-3.194,2.22-6.534,4.349-9.989,6.343s-6.969,3.823-10.488,5.479
	C252.481,186.157,248.967,184.328,245.512,182.333z M256,105.065c2.478,0,6.509,2.7,10.561,9.917
	c-3.484,1.068-7.012,2.313-10.561,3.729c-3.548-1.416-7.077-2.661-10.561-3.729C249.491,107.765,253.522,105.065,256,105.065z
	 M204.816,134.616c1.211-2.098,5.383-4.2,13.302-4.2c0.185,0,0.379,0.006,0.568,0.008c-0.817,3.552-1.504,7.232-2.052,11.015
	c-3,2.365-5.843,4.799-8.51,7.282C203.9,141.603,203.577,136.762,204.816,134.616z M204.816,193.718
	c-1.239-2.146-0.917-6.987,3.308-14.104c2.667,2.483,5.51,4.917,8.51,7.282c0.548,3.781,1.235,7.459,2.051,11.01
	C210.41,198.005,206.055,195.864,204.816,193.718z M256,223.269c-2.478,0-6.509-2.7-10.56-9.917
	c3.484-1.068,7.012-2.313,10.561-3.729c3.548,1.416,7.077,2.66,10.56,3.729C262.509,220.569,258.478,223.269,256,223.269z
	 M307.185,193.718c-1.238,2.146-5.593,4.289-13.87,4.188c0.817-3.552,1.503-7.229,2.051-11.011c3-2.365,5.843-4.799,8.51-7.282
	C308.101,186.731,308.424,191.573,307.185,193.718z"/>
<polygon style="fill:#FAB617;" points="336.591,318.333 353.681,339.1 380.45,336.5 377.85,363.269 398.617,380.359 377.85,397.45 
	380.45,424.218 353.681,421.619 336.591,442.385 319.501,421.619 292.732,424.218 295.332,397.45 274.565,380.359 295.332,363.269 
	292.732,336.5 319.501,339.1 "/>
<g>
	<polygon style="fill:#E23225;" points="292.923,424.218 276.356,453.665 301.493,450.636 311.439,473.92 329.755,442.196 
		319.501,421.619 	"/>
	<polygon style="fill:#E23225;" points="343.441,442.16 361.777,473.92 371.723,450.636 396.86,453.665 380.293,424.218 
		353.667,419.333 	"/>
</g>
<path d="M390.232,421.49l-1.914-19.704l16.653-13.705c2.309-1.899,3.646-4.732,3.646-7.721s-1.337-5.822-3.646-7.721l-16.653-13.705
	l2.085-21.466c0.289-2.976-0.769-5.924-2.882-8.038c-2.114-2.114-5.055-3.166-8.038-2.882l-21.467,2.084l-13.704-16.653
	c-1.899-2.308-4.732-3.646-7.722-3.646s-5.822,1.337-7.722,3.646l-13.704,16.653l-21.467-2.084c-2.98-0.287-5.924,0.769-8.038,2.882
	c-2.113,2.114-3.171,5.063-2.882,8.038l2.085,21.466l-16.653,13.705c-2.309,1.899-3.646,4.732-3.646,7.721s1.337,5.822,3.646,7.721
	l16.653,13.705l-1.921,19.777l-15.302,27.198c-1.847,3.284-1.692,7.327,0.401,10.459c2.094,3.133,5.769,4.825,9.511,4.372
	l17.69-2.131l7,16.387c1.488,3.483,4.816,5.827,8.598,6.054c0.2,0.012,0.401,0.018,0.601,0.018c3.557,0,6.865-1.894,8.658-5
	l15.357-26.6c0.375,0.043,0.753,0.066,1.134,0.066c0.392,0,0.78-0.026,1.165-0.071l15.36,26.605c1.793,3.106,5.102,5,8.658,5
	c0.199,0,0.4-0.006,0.601-0.018c3.781-0.227,7.109-2.57,8.598-6.054l7-16.387l17.69,2.131c3.746,0.453,7.417-1.239,9.511-4.372
	c2.094-3.132,2.248-7.176,0.401-10.459L390.232,421.49z M301.686,370.99c2.571-2.116,3.921-5.373,3.599-8.688l-1.425-14.674
	l14.675,1.425c3.31,0.321,6.572-1.027,8.688-3.599l9.368-11.384l9.368,11.384c2.117,2.571,5.381,3.919,8.688,3.599l14.675-1.425
	l-1.425,14.674c-0.322,3.315,1.027,6.572,3.599,8.688l11.384,9.369l-11.384,9.369c-2.571,2.116-3.921,5.373-3.599,8.688
	l1.425,14.674l-14.675-1.425c-3.307-0.32-6.571,1.028-8.688,3.599l-9.368,11.384l-9.368-11.384c-1.91-2.32-4.749-3.646-7.721-3.646
	c-0.321,0-0.645,0.016-0.968,0.047l-14.675,1.425l1.425-14.674c0.322-3.315-1.027-6.572-3.599-8.688l-11.384-9.369L301.686,370.99z
	 M312.779,451.6l-2.09-4.892c-1.745-4.087-5.971-6.525-10.393-6l-5.554,0.669l4.349-7.729l16.073-1.561l5.218,6.341L312.779,451.6z
	 M372.919,440.708c-4.409-0.527-8.647,1.914-10.393,6l-2.09,4.892l-7.618-13.196l5.198-6.317l16.109,1.564l4.347,7.726
	L372.919,440.708z"/>
<path d="M172.344,294.333h-0.145c-5.522,0-10-4.477-10-10s4.478-10,10-10h0.145c5.522,0,10,4.477,10,10
	S177.866,294.333,172.344,294.333z"/>
<path d="M410,294.329H207.901c-5.522,0-10-4.477-10-10s4.478-10,10-10H400V54.001H112v220.328h25.734c5.522,0,10,4.477,10,10
	s-4.478,10-10,10H102c-5.522,0-10-4.477-10-10V44.001c0-5.523,4.478-10,10-10h308c5.522,0,10,4.477,10,10v240.328
	C420,289.852,415.522,294.329,410,294.329z"/>
<g>
</g>
<g>
</g>
<g>
</g>
<g>
</g>
<g>
</g>
<g>
</g>
<g>
</g>
<g>
</g>
<g>
</g>
<g>
</g>
<g>
</g>
<g>
</g>
<g>
</g>
<g>
</g>
<g>
</g>
</svg>
