<?xml version="1.0" encoding="UTF-8" standalone="no"?>
<!-- Generator: Adobe Illustrator 19.0.0, SVG Export Plug-In . SVG Version: 6.00 Build 0)  -->

<svg
   xmlns:dc="http://purl.org/dc/elements/1.1/"
   xmlns:cc="http://creativecommons.org/ns#"
   xmlns:rdf="http://www.w3.org/1999/02/22-rdf-syntax-ns#"
   xmlns:svg="http://www.w3.org/2000/svg"
   xmlns="http://www.w3.org/2000/svg"
   xmlns:sodipodi="http://sodipodi.sourceforge.net/DTD/sodipodi-0.dtd"
   xmlns:inkscape="http://www.inkscape.org/namespaces/inkscape"
   version="1.1"
   id="Layer_1"
   x="0px"
   y="0px"
   viewBox="0 0 383.224 383.224"
   style="enable-background:new 0 0 383.224 383.224;"
   xml:space="preserve"
   inkscape:version="0.48.5 r10040"
   width="100%"
   height="100%"
   sodipodi:docname="microchip.svg"><metadata
   id="metadata9654"><rdf:RDF><cc:Work
       rdf:about=""><dc:format>image/svg+xml</dc:format><dc:type
         rdf:resource="http://purl.org/dc/dcmitype/StillImage" /></cc:Work></rdf:RDF></metadata><defs
   id="defs9652" /><sodipodi:namedview
   pagecolor="#ffffff"
   bordercolor="#666666"
   borderopacity="1"
   objecttolerance="10"
   gridtolerance="10"
   guidetolerance="10"
   inkscape:pageopacity="0"
   inkscape:pageshadow="2"
   inkscape:window-width="640"
   inkscape:window-height="480"
   id="namedview9650"
   showgrid="false"
   inkscape:zoom="0.61582782"
   inkscape:cx="191.612"
   inkscape:cy="192.42392"
   inkscape:window-x="0"
   inkscape:window-y="0"
   inkscape:window-maximized="0"
   inkscape:current-layer="Layer_1" />


















<g
   id="g9656"><rect
     id="rect9548"
     height="259.62"
     width="259.62"
     style="fill:#FFFFFF;"
     y="61.802"
     x="61.802" /><g
     id="g9550">
	<rect
   id="rect9552"
   height="12.347"
   width="12.347"
   style="fill:#193651;"
   y="279.984"
   x="90.828" />
	<rect
   id="rect9554"
   height="11.766"
   width="12.347"
   style="fill:#193651;"
   y="161.939"
   x="90.828" />
	<rect
   id="rect9556"
   height="11.766"
   width="12.347"
   style="fill:#193651;"
   y="256.517"
   x="90.828" />
	<rect
   id="rect9558"
   height="12.347"
   width="12.347"
   style="fill:#193651;"
   y="185.406"
   x="90.828" />
	<rect
   id="rect9560"
   height="11.766"
   width="12.347"
   style="fill:#193651;"
   y="114.941"
   x="90.828" />
	<rect
   id="rect9562"
   height="11.766"
   width="12.347"
   style="fill:#193651;"
   y="233.051"
   x="90.828" />
	<rect
   id="rect9564"
   height="11.766"
   width="12.347"
   style="fill:#193651;"
   y="209.519"
   x="90.828" />
	<rect
   id="rect9566"
   height="11.766"
   width="12.347"
   style="fill:#193651;"
   y="138.473"
   x="90.828" />
	<rect
   id="rect9568"
   height="12.347"
   width="12.347"
   style="fill:#193651;"
   y="90.828"
   x="90.828" />
	<rect
   id="rect9570"
   height="12.347"
   width="12.347"
   style="fill:#193651;"
   y="90.828"
   x="185.406" />
	<rect
   id="rect9572"
   height="12.347"
   width="11.766"
   style="fill:#193651;"
   y="90.828"
   x="138.473" />
	<rect
   id="rect9574"
   height="12.347"
   width="11.766"
   style="fill:#193651;"
   y="90.828"
   x="114.941" />
	<rect
   id="rect9576"
   height="12.347"
   width="11.766"
   style="fill:#193651;"
   y="90.828"
   x="209.519" />
	<rect
   id="rect9578"
   height="12.347"
   width="11.766"
   style="fill:#193651;"
   y="90.828"
   x="161.939" />
	<rect
   id="rect9580"
   height="12.347"
   width="11.766"
   style="fill:#193651;"
   y="90.828"
   x="256.517" />
	<rect
   id="rect9582"
   height="12.347"
   width="11.766"
   style="fill:#193651;"
   y="90.828"
   x="233.051" />
	<rect
   id="rect9584"
   height="12.347"
   width="12.347"
   style="fill:#193651;"
   y="90.828"
   x="279.984" />
	<rect
   id="rect9586"
   height="11.766"
   width="12.347"
   style="fill:#193651;"
   y="233.051"
   x="279.984" />
	<rect
   id="rect9588"
   height="11.766"
   width="12.347"
   style="fill:#193651;"
   y="256.517"
   x="279.984" />
	<rect
   id="rect9590"
   height="11.766"
   width="12.347"
   style="fill:#193651;"
   y="161.939"
   x="279.984" />
	<rect
   id="rect9592"
   height="11.766"
   width="12.347"
   style="fill:#193651;"
   y="138.473"
   x="279.984" />
	<rect
   id="rect9594"
   height="11.766"
   width="12.347"
   style="fill:#193651;"
   y="209.519"
   x="279.984" />
	<rect
   id="rect9596"
   height="12.347"
   width="12.347"
   style="fill:#193651;"
   y="185.406"
   x="279.984" />
	<rect
   id="rect9598"
   height="11.766"
   width="12.347"
   style="fill:#193651;"
   y="114.941"
   x="279.984" />
	<rect
   id="rect9600"
   height="12.347"
   width="12.347"
   style="fill:#193651;"
   y="279.984"
   x="279.984" />
	<rect
   id="rect9602"
   height="12.347"
   width="11.766"
   style="fill:#193651;"
   y="279.984"
   x="233.051" />
	<rect
   id="rect9604"
   height="12.347"
   width="11.766"
   style="fill:#193651;"
   y="279.984"
   x="256.517" />
	<rect
   id="rect9606"
   height="12.347"
   width="11.766"
   style="fill:#193651;"
   y="279.984"
   x="209.519" />
	<rect
   id="rect9608"
   height="12.347"
   width="12.347"
   style="fill:#193651;"
   y="279.984"
   x="185.406" />
	<rect
   id="rect9610"
   height="12.347"
   width="11.766"
   style="fill:#193651;"
   y="279.984"
   x="138.473" />
	<rect
   id="rect9612"
   height="12.347"
   width="11.766"
   style="fill:#193651;"
   y="279.984"
   x="161.939" />
	<rect
   id="rect9614"
   height="12.347"
   width="11.766"
   style="fill:#193651;"
   y="279.984"
   x="114.941" />
</g><rect
     id="rect9616"
     height="114.36"
     width="114.36"
     style="fill:#F16051;"
     y="134.723"
     x="134.723" /><path
     id="path9618"
     d="M383.224,100.137V87.79h-55.661V55.661h-32.129V0h-12.347v55.661h-36.461V0h-12.347v55.661h-36.461V0  h-12.347v55.661h-36.525V0h-12.347v55.661h-36.461V0H87.79v55.661H55.596V87.79H0v12.347h55.661v36.461H0v12.347h55.661v36.461H0  v12.347h55.661v36.525H0v12.347h55.661v36.461H0v12.347h55.661v32.129H87.79v55.661h12.347v-55.661h36.461v55.661h12.347v-55.661  h36.461v55.661h12.347v-55.661h36.525v55.661h12.347v-55.661h36.461v55.661h12.348v-55.661h32.129v-32.129h55.661v-12.347h-55.661  v-36.461h55.661v-12.347h-55.661v-36.461h55.661v-12.347h-55.661v-36.525h55.661v-12.347h-55.661v-36.461H383.224z M315.281,315.281  H68.008V68.008h247.273V315.281z"
     style="fill:#193651;" /><g
     id="g9620">
</g><g
     id="g9622">
</g><g
     id="g9624">
</g><g
     id="g9626">
</g><g
     id="g9628">
</g><g
     id="g9630">
</g><g
     id="g9632">
</g><g
     id="g9634">
</g><g
     id="g9636">
</g><g
     id="g9638">
</g><g
     id="g9640">
</g><g
     id="g9642">
</g><g
     id="g9644">
</g><g
     id="g9646">
</g><g
     id="g9648">
</g></g>
</svg>