<?xml version="1.0" encoding="iso-8859-1"?>
<!-- Generator: Adobe Illustrator 19.0.0, SVG Export Plug-In . SVG Version: 6.00 Build 0)  -->
<svg version="1.1" id="Capa_1" xmlns="http://www.w3.org/2000/svg" xmlns:xlink="http://www.w3.org/1999/xlink" x="0px" y="0px"
	 viewBox="0 0 512.556 512.556" style="enable-background:new 0 0 512.556 512.556;" xml:space="preserve">
<polygon style="fill:#FFFFFF;" points="380,142.478 256,68.878 132,142.478 85.6,142.478 85.6,415.278 426.4,415.278 426.4,142.478 
	"/>
<path style="fill:#193651;" d="M434.4,423.278H77.6v-288.8h52l126.4-75.2l126.4,74.4h52V423.278z M93.6,407.278h324.8v-256.8h-40.8
	l-121.6-72l-121.6,72H93.6C93.6,150.478,93.6,407.278,93.6,407.278z"/>
<polygon style="fill:#F15F50;" points="480.8,142.478 256,8.878 31.2,142.478 "/>
<path style="fill:#193651;" d="M480.8,150.478H31.2c-4,0-6.4-2.4-8-5.6c-0.8-3.2,0.8-7.2,4-8.8L252,2.478c2.4-1.6,5.6-1.6,8,0
	l224.8,132.8c3.2,1.6,4.8,5.6,4,8.8C488,148.078,484.8,150.478,480.8,150.478z M60,134.478h391.2l-195.2-116L60,134.478z"/>
<rect x="8" y="292.078" style="fill:#E1E6E9;" width="77.6" height="175.2"/>
<path style="fill:#193651;" d="M93.6,475.278H0v-191.2h93.6V475.278z M16,459.278h61.6v-159.2H16V459.278z"/>
<rect x="39.2" y="327.278" style="fill:#193651;" width="16" height="16"/>
<rect x="39.2" y="372.078" style="fill:#193651;" width="16" height="16"/>
<rect x="39.2" y="416.878" style="fill:#193651;" width="16" height="16"/>
<path style="fill:#FFFFFF;" d="M314.4,404.078c16.8,0,30.4-12.8,30.4-29.6l0,0c0-16-13.6-29.6-30.4-29.6h-83.2c-4,0-8-0.8-11.2-1.6
	l-53.6-28c-4-1.6-8-2.4-12-2.4h-68v136.8h30.4l153.6,49.6c12.8,4,26.4,3.2,38.4-3.2l180.8-93.6c13.6-7.2,19.2-23.2,12.8-36l0,0
	c-6.4-12.8-21.6-19.2-35.2-14.4L314.4,404.078"/>
<g>
	<path style="fill:#193651;" d="M284.8,511.278c-6.4,0-12-0.8-17.6-3.2l-152.8-49.6H77.6v-152.8h76c4.8,0,10.4,0.8,15.2,2.4l0.8,0.8
		l53.6,27.2c2.4,0.8,5.6,1.6,8,1.6h83.2c20.8,0,38.4,16.8,38.4,37.6c0,3.2,0,5.6-0.8,8.8l112-37.6c4-1.6,8-1.6,12-1.6
		c13.6,0,27.2,8,32.8,20c8.8,17.6,1.6,37.6-16,47.2l-181.6,92.8C303.2,508.878,294.4,511.278,284.8,511.278z M93.6,442.478h24.8
		l153.6,50.4c10.4,3.2,22.4,2.4,32-2.4l180.8-93.6c9.6-4.8,13.6-16,8.8-25.6c-4-8.8-16-13.6-25.6-10.4l-132,44
		c-6.4,4.8-14.4,7.2-22.4,7.2H264l64-21.6c4.8-4,7.2-9.6,7.2-16c0-12-9.6-21.6-22.4-21.6h-81.6c-4.8,0-9.6-0.8-13.6-2.4l-0.8-0.8
		l-53.6-27.2c-3.2-0.8-6.4-1.6-8.8-1.6h-60v121.6H93.6z"/>
	<path style="fill:#193651;" d="M231.2,426.478h-16c0-16.8,13.6-30.4,30.4-30.4h68.8v16h-68.8
		C237.6,412.078,231.2,418.478,231.2,426.478z"/>
</g>
<circle style="fill:#FFBF5D;" cx="261.6" cy="180.878" r="98.4"/>
<path style="fill:#193651;" d="M293.6,207.278c-7.2,7.2-16.8,11.2-26.4,11.2c-10.4,0-19.2-4-26.4-11.2c-0.8-0.8-2.4-2.4-3.2-4H280
	v-15.2h-49.6c-0.8-4.8-0.8-10.4,0-15.2H280v-15.2h-42.4c0.8-1.6,2.4-2.4,3.2-4c14.4-14.4,38.4-14.4,53.6,0l2.4,2.4l10.4-10.4
	l-3.2-2.4c-20.8-20.8-54.4-20.8-75.2,0c-4,4-8,8.8-10.4,14.4h-16v15.2h11.2c-0.8,4.8-0.8,10.4,0,15.2h-11.2v15.2h16
	c2.4,5.6,6.4,10.4,10.4,14.4c9.6,9.6,23.2,15.2,37.6,15.2s27.2-5.6,37.6-15.2l2.4-2.4l-10.4-10.4L293.6,207.278z"/>
<g>
</g>
<g>
</g>
<g>
</g>
<g>
</g>
<g>
</g>
<g>
</g>
<g>
</g>
<g>
</g>
<g>
</g>
<g>
</g>
<g>
</g>
<g>
</g>
<g>
</g>
<g>
</g>
<g>
</g>
</svg>
