<?xml version="1.0" encoding="UTF-8" standalone="no"?>
<!-- Generator: Adobe Illustrator 19.0.0, SVG Export Plug-In . SVG Version: 6.00 Build 0)  -->

<svg
   xmlns:dc="http://purl.org/dc/elements/1.1/"
   xmlns:cc="http://creativecommons.org/ns#"
   xmlns:rdf="http://www.w3.org/1999/02/22-rdf-syntax-ns#"
   xmlns:svg="http://www.w3.org/2000/svg"
   xmlns="http://www.w3.org/2000/svg"
   xmlns:sodipodi="http://sodipodi.sourceforge.net/DTD/sodipodi-0.dtd"
   xmlns:inkscape="http://www.inkscape.org/namespaces/inkscape"
   version="1.1"
   id="Capa_1"
   x="0px"
   y="0px"
   viewBox="0 0 58 58"
   style="enable-background:new 0 0 58 58;"
   xml:space="preserve"
   inkscape:version="0.48.5 r10040"
   width="100%"
   height="100%"
   sodipodi:docname="motherboard.svg"><metadata
   id="metadata5453"><rdf:RDF><cc:Work
       rdf:about=""><dc:format>image/svg+xml</dc:format><dc:type
         rdf:resource="http://purl.org/dc/dcmitype/StillImage" /></cc:Work></rdf:RDF></metadata><defs
   id="defs5451" /><sodipodi:namedview
   pagecolor="#ffffff"
   bordercolor="#666666"
   borderopacity="1"
   objecttolerance="10"
   gridtolerance="10"
   guidetolerance="10"
   inkscape:pageopacity="0"
   inkscape:pageshadow="2"
   inkscape:window-width="640"
   inkscape:window-height="480"
   id="namedview5449"
   showgrid="false"
   inkscape:zoom="4.0689655"
   inkscape:cx="29"
   inkscape:cy="29"
   inkscape:window-x="0"
   inkscape:window-y="0"
   inkscape:window-maximized="0"
   inkscape:current-layer="Capa_1" />










































































<g
   id="g5455"><path
     id="path5263"
     d="M0,6.5v4h3c0.552,0,1,0.447,1,1s-0.448,1-1,1H0v1h3c0.552,0,1,0.447,1,1s-0.448,1-1,1H0v1h3  c0.552,0,1,0.447,1,1s-0.448,1-1,1H0v20h3c0.552,0,1,0.447,1,1s-0.448,1-1,1H0v1h3c0.552,0,1,0.447,1,1s-0.448,1-1,1H0v1h3  c0.552,0,1,0.447,1,1s-0.448,1-1,1H0v1h3c0.552,0,1,0.447,1,1s-0.448,1-1,1H0v1h3c0.552,0,1,0.447,1,1s-0.448,1-1,1H0v2h58v-48H0z"
     style="fill:#5E5E60;" /><path
     id="path5265"
     d="M4,39.5c0-0.553-0.448-1-1-1H0v2h3C3.552,40.5,4,40.053,4,39.5z"
     style="fill:#F3CC6D;" /><path
     id="path5267"
     d="M4,42.5c0-0.553-0.448-1-1-1H0v2h3C3.552,43.5,4,43.053,4,42.5z"
     style="fill:#F3CC6D;" /><path
     id="path5269"
     d="M4,45.5c0-0.553-0.448-1-1-1H0v2h3C3.552,46.5,4,46.053,4,45.5z"
     style="fill:#F3CC6D;" /><path
     id="path5271"
     d="M4,48.5c0-0.553-0.448-1-1-1H0v2h3C3.552,49.5,4,49.053,4,48.5z"
     style="fill:#F3CC6D;" /><path
     id="path5273"
     d="M4,51.5c0-0.553-0.448-1-1-1H0v2h3C3.552,52.5,4,52.053,4,51.5z"
     style="fill:#F3CC6D;" /><path
     id="path5275"
     d="M4,11.5c0-0.553-0.448-1-1-1H0v2h3C3.552,12.5,4,12.053,4,11.5z"
     style="fill:#F3CC6D;" /><path
     id="path5277"
     d="M4,14.5c0-0.553-0.448-1-1-1H0v2h3C3.552,15.5,4,15.053,4,14.5z"
     style="fill:#F3CC6D;" /><path
     id="path5279"
     d="M4,17.5c0-0.553-0.448-1-1-1H0v2h3C3.552,18.5,4,18.053,4,17.5z"
     style="fill:#F3CC6D;" /><circle
     id="circle5281"
     r="1"
     cy="24.5"
     cx="27"
     style="fill:#E7ECED;" /><circle
     id="circle5283"
     r="1"
     cy="27.5"
     cx="27"
     style="fill:#F3CC6D;" /><circle
     id="circle5285"
     r="1"
     cy="30.5"
     cx="27"
     style="fill:#F3CC6D;" /><circle
     id="circle5287"
     r="1"
     cy="15.5"
     cx="27"
     style="fill:#F3CC6D;" /><circle
     id="circle5289"
     r="1"
     cy="17.5"
     cx="24"
     style="fill:#E7ECED;" /><circle
     id="circle5291"
     r="1"
     cy="21.5"
     cx="24"
     style="fill:#E7ECED;" /><circle
     id="circle5293"
     r="1"
     cy="17.5"
     cx="55"
     style="fill:#F3CC6D;" /><circle
     id="circle5295"
     r="1"
     cy="24.5"
     cx="55"
     style="fill:#F3CC6D;" /><circle
     id="circle5297"
     r="1"
     cy="38.5"
     cx="18"
     style="fill:#E7ECED;" /><circle
     id="circle5299"
     r="1"
     cy="38.5"
     cx="15"
     style="fill:#E7ECED;" /><circle
     id="circle5301"
     r="1"
     cy="38.5"
     cx="12"
     style="fill:#F3CC6D;" /><circle
     id="circle5303"
     r="1"
     cy="26.5"
     cx="3"
     style="fill:#F3CC6D;" /><circle
     id="circle5305"
     r="1"
     cy="29.5"
     cx="3"
     style="fill:#F3CC6D;" /><circle
     id="circle5307"
     r="1"
     cy="32.5"
     cx="3"
     style="fill:#F3CC6D;" /><circle
     id="circle5309"
     r="1"
     cy="18.5"
     cx="27"
     style="fill:#F3CC6D;" /><circle
     id="circle5311"
     r="1"
     cy="21.5"
     cx="27"
     style="fill:#E7ECED;" /><path
     id="path5313"
     d="M50.291,30.5H33.709C32.765,30.5,32,29.735,32,28.791V12.209c0-0.944,0.765-1.709,1.709-1.709h16.581  c0.944,0,1.709,0.765,1.709,1.709v16.581C52,29.735,51.235,30.5,50.291,30.5z"
     style="fill:#28812F;" /><rect
     id="rect5315"
     height="3"
     width="4"
     style="fill:#546A79;"
     y="3.5"
     x="32" /><rect
     id="rect5317"
     height="3"
     width="4"
     style="fill:#38454F;"
     y="3.5"
     x="36" /><rect
     id="rect5319"
     height="3"
     width="4"
     style="fill:#546A79;"
     y="3.5"
     x="40" /><rect
     id="rect5321"
     height="3"
     width="4"
     style="fill:#38454F;"
     y="3.5"
     x="44" /><rect
     id="rect5323"
     height="3"
     width="4"
     style="fill:#546A79;"
     y="3.5"
     x="48" /><path
     id="path5325"
     d="M54,37.5h-2c-0.553,0-1-0.447-1-1s0.447-1,1-1h2c0.553,0,1,0.447,1,1S54.553,37.5,54,37.5z"
     style="fill:#BFA380;" /><path
     id="path5327"
     d="M54,41.5h-2c-0.553,0-1-0.447-1-1s0.447-1,1-1h2c0.553,0,1,0.447,1,1S54.553,41.5,54,41.5z"
     style="fill:#BFA380;" /><g
     id="g5329">
	<path
   id="path5331"
   d="M24,37.5h2c0.552,0,1-0.447,1-1s-0.448-1-1-1h-2c-0.552,0-1,0.447-1,1S23.448,37.5,24,37.5z"
   style="fill:#8F8F99;" />
	<path
   id="path5333"
   d="M26,39.5h-2c-0.552,0-1,0.447-1,1s0.448,1,1,1h2c0.552,0,1-0.447,1-1S26.552,39.5,26,39.5z"
   style="fill:#8F8F99;" />
	<path
   id="path5335"
   d="M26,43.5h-2c-0.552,0-1,0.447-1,1s0.448,1,1,1h2c0.552,0,1-0.447,1-1S26.552,43.5,26,43.5z"
   style="fill:#8F8F99;" />
	<path
   id="path5337"
   d="M26,47.5h-2c-0.552,0-1,0.447-1,1s0.448,1,1,1h2c0.552,0,1-0.447,1-1S26.552,47.5,26,47.5z"
   style="fill:#8F8F99;" />
</g><path
     id="path5339"
     d="M54,45.5h-2c-0.553,0-1-0.447-1-1s0.447-1,1-1h2c0.553,0,1,0.447,1,1S54.553,45.5,54,45.5z"
     style="fill:#BFA380;" /><path
     id="path5341"
     d="M54,49.5h-2c-0.553,0-1-0.447-1-1s0.447-1,1-1h2c0.553,0,1,0.447,1,1S54.553,49.5,54,49.5z"
     style="fill:#BFA380;" /><path
     id="path5343"
     d="M20,45.5h-2c-0.552,0-1-0.447-1-1s0.448-1,1-1h2c0.552,0,1,0.447,1,1S20.552,45.5,20,45.5z"
     style="fill:#F3CC6D;" /><path
     id="path5345"
     d="M20,48.5h-2c-0.552,0-1-0.447-1-1s0.448-1,1-1h2c0.552,0,1,0.447,1,1S20.552,48.5,20,48.5z"
     style="fill:#F3CC6D;" /><path
     id="path5347"
     d="M12,45.5h-2c-0.552,0-1-0.447-1-1s0.448-1,1-1h2c0.552,0,1,0.447,1,1S12.552,45.5,12,45.5z"
     style="fill:#F3CC6D;" /><path
     id="path5349"
     d="M12,48.5h-2c-0.552,0-1-0.447-1-1s0.448-1,1-1h2c0.552,0,1,0.447,1,1S12.552,48.5,12,48.5z"
     style="fill:#F3CC6D;" /><path
     id="path5351"
     d="M10,26.5c-0.552,0-1-0.447-1-1v-2c0-0.553,0.448-1,1-1s1,0.447,1,1v2C11,26.053,10.552,26.5,10,26.5z  "
     style="fill:#38454F;" /><path
     id="path5353"
     d="M18,32.5c-0.552,0-1-0.447-1-1v-2c0-0.553,0.448-1,1-1s1,0.447,1,1v2C19,32.053,18.552,32.5,18,32.5z  "
     style="fill:#38454F;" /><rect
     id="rect5355"
     height="5"
     width="5"
     style="fill:#333331;"
     y="29.5"
     x="7" /><rect
     id="rect5357"
     height="10"
     width="10"
     style="fill:#333331;"
     y="15.5"
     x="37" /><g
     id="g5359">
	<rect
   id="rect5361"
   height="3"
   width="2"
   style="fill:#BFA380;"
   y="12.5"
   x="38" />
	<rect
   id="rect5363"
   height="3"
   width="2"
   style="fill:#BFA380;"
   y="12.5"
   x="41" />
	<rect
   id="rect5365"
   height="3"
   width="2"
   style="fill:#BFA380;"
   y="12.5"
   x="44" />
	<rect
   id="rect5367"
   height="3"
   width="2"
   style="fill:#BFA380;"
   y="25.5"
   x="38" />
	<rect
   id="rect5369"
   height="3"
   width="2"
   style="fill:#BFA380;"
   y="25.5"
   x="41" />
	<rect
   id="rect5371"
   height="3"
   width="2"
   style="fill:#BFA380;"
   y="25.5"
   x="44" />
	<rect
   id="rect5373"
   height="2"
   width="3"
   style="fill:#BFA380;"
   y="16.5"
   x="47" />
	<rect
   id="rect5375"
   height="2"
   width="3"
   style="fill:#BFA380;"
   y="19.5"
   x="47" />
	<rect
   id="rect5377"
   height="2"
   width="3"
   style="fill:#BFA380;"
   y="22.5"
   x="47" />
	<rect
   id="rect5379"
   height="2"
   width="3"
   style="fill:#BFA380;"
   y="16.5"
   x="34" />
	<rect
   id="rect5381"
   height="2"
   width="3"
   style="fill:#BFA380;"
   y="19.5"
   x="34" />
	<rect
   id="rect5383"
   height="2"
   width="3"
   style="fill:#BFA380;"
   y="22.5"
   x="34" />
</g><rect
     id="rect5385"
     height="23"
     width="4"
     style="fill:#353A37;"
     y="6.5"
     x="16" /><rect
     id="rect5387"
     height="17"
     width="4"
     style="fill:#353A37;"
     y="6.5"
     x="8" /><rect
     id="rect5389"
     height="7"
     width="6"
     style="fill:#333331;"
     y="42.5"
     x="12" /><rect
     id="rect5391"
     height="4"
     width="26"
     style="fill:#38454F;"
     y="42.5"
     x="26" /><rect
     id="rect5393"
     height="4"
     width="26"
     style="fill:#DD352E;"
     y="38.5"
     x="26" /><rect
     id="rect5395"
     height="4"
     width="2"
     style="fill:#DD352E;"
     y="46.5"
     x="26" /><rect
     id="rect5397"
     height="4"
     width="18"
     style="fill:#DD352E;"
     y="46.5"
     x="30" /><rect
     id="rect5399"
     height="4"
     width="2"
     style="fill:#DD352E;"
     y="46.5"
     x="50" /><rect
     id="rect5401"
     height="4"
     width="18"
     style="fill:#38454F;"
     y="34.5"
     x="30" /><rect
     id="rect5403"
     height="4"
     width="2"
     style="fill:#38454F;"
     y="34.5"
     x="50" /><rect
     id="rect5405"
     height="4"
     width="2"
     style="fill:#38454F;"
     y="34.5"
     x="26" /><g
     id="g5407">
	<polygon
   id="polygon5409"
   points="28,38.5 28,46.5 28,50.5 30,50.5 30,46.5 30,38.5 30,34.5 28,34.5  "
   style="fill:#283238;" />
	<polygon
   id="polygon5411"
   points="48,34.5 48,38.5 48,46.5 48,50.5 50,50.5 50,46.5 50,38.5 50,34.5  "
   style="fill:#283238;" />
</g><path
     id="path5413"
     d="M27,4.5c0-0.553-0.448-1-1-1s-1,0.447-1,1v2h2V4.5z"
     style="fill:#CBD4D8;" /><path
     id="path5415"
     d="M30,4.5c0-0.553-0.448-1-1-1s-1,0.447-1,1v2h2V4.5z"
     style="fill:#CBD4D8;" /><path
     id="path5417"
     d="M56,4.5c0-0.553-0.447-1-1-1s-1,0.447-1,1v2h2V4.5z"
     style="fill:#CBD4D8;" /><g
     id="g5419">
</g><g
     id="g5421">
</g><g
     id="g5423">
</g><g
     id="g5425">
</g><g
     id="g5427">
</g><g
     id="g5429">
</g><g
     id="g5431">
</g><g
     id="g5433">
</g><g
     id="g5435">
</g><g
     id="g5437">
</g><g
     id="g5439">
</g><g
     id="g5441">
</g><g
     id="g5443">
</g><g
     id="g5445">
</g><g
     id="g5447">
</g></g>
</svg>