<svg height="512pt" viewBox="0 0 512 512" width="512pt" xmlns="http://www.w3.org/2000/svg"><path d="m181.753906 80.109375h148.492188v20.632813h-148.492188zm0 0" fill="#c6c5ca"/><path d="m234.324219 100.742188h43.351562v21.285156h-43.351562zm0 0" fill="#c6c5ca"/><path d="m286.015625 122.027344h-60.03125c-1.863281 1.867187-2.90625 2.910156-4.769531 4.773437v16.949219h69.574218v-16.949219c-1.859374-1.855469-2.917968-2.914062-4.773437-4.773437zm0 0" fill="#c6c5ca"/><path d="m181.753906 7.5h148.492188v72.609375h-148.492188zm0 0" fill="#b3d8f4"/><path d="m181.753906 440.859375h148.492188v20.632813h-148.492188zm0 0" fill="#c6c5ca"/><path d="m234.324219 461.492188h43.351562v21.285156h-43.351562zm0 0" fill="#c6c5ca"/><path d="m286.015625 482.777344h-60.03125c-1.863281 1.867187-2.90625 2.910156-4.769531 4.773437v16.949219h69.574218v-16.949219c-1.859374-1.855469-2.917968-2.914062-4.773437-4.773437zm0 0" fill="#c6c5ca"/><path d="m181.753906 368.25h148.492188v72.609375h-148.492188zm0 0" fill="#b3d8f4"/><path d="m356.003906 260.484375h148.496094v20.632813h-148.496094zm0 0" fill="#c6c5ca"/><path d="m408.511719 281.117188h43.351562v21.285156h-43.351562zm0 0" fill="#c6c5ca"/><path d="m460.203125 302.402344h-60.027344c-1.867187 1.867187-2.910156 2.910156-4.773437 4.773437v16.949219h69.574218v-16.949219c-1.855468-1.855469-2.917968-2.914062-4.773437-4.773437zm0 0" fill="#c6c5ca"/><path d="m356.003906 187.875h148.496094v72.609375h-148.496094zm0 0" fill="#b3d8f4"/><path d="m7.5 260.484375h148.496094v20.632813h-148.496094zm0 0" fill="#c6c5ca"/><path d="m60.007812 281.117188h43.351563v21.285156h-43.351563zm0 0" fill="#c6c5ca"/><path d="m111.699219 302.402344h-60.027344c-1.867187 1.867187-2.910156 2.910156-4.773437 4.773437v16.949219h69.574218v-16.949219c-1.855468-1.855469-2.917968-2.914062-4.773437-4.773437zm0 0" fill="#c6c5ca"/><path d="m7.5 187.875h148.496094v72.609375h-148.496094zm0 0" fill="#b3d8f4"/><path d="m206.40625 227.367188v57.265624l49.59375 28.632813v-57.265625zm0 0" fill="#57a4ff"/><path d="m305.59375 227.367188-49.59375-28.632813-49.59375 28.632813 49.59375 28.632812zm0 0" fill="#c6c5ca"/><path d="m256 256v57.265625l49.59375-28.632813v-57.265624zm0 0" fill="#787680"/><g fill="#ffe477"><path d="m206.40625 256c0 8.203125-6.648438 14.851562-14.847656 14.851562-8.203125 0-14.851563-6.648437-14.851563-14.851562s6.648438-14.851562 14.851563-14.851562c8.199218 0 14.847656 6.648437 14.847656 14.851562zm0 0"/><path d="m335.292969 256c0 8.203125-6.648438 14.851562-14.851563 14.851562-8.199218 0-14.847656-6.648437-14.847656-14.851562s6.648438-14.851562 14.847656-14.851562c8.203125 0 14.851563 6.648437 14.851563 14.851562zm0 0"/><path d="m270.832031 328.113281c0 8.203125-6.648437 14.851563-14.847656 14.851563-8.203125 0-14.851563-6.648438-14.851563-14.851563 0-8.199219 6.648438-14.847656 14.851563-14.847656 8.199219 0 14.847656 6.648437 14.847656 14.847656zm0 0"/><path d="m270.832031 184.132812c0 8.199219-6.648437 14.847657-14.847656 14.847657-8.203125 0-14.851563-6.648438-14.851563-14.847657 0-8.203124 6.648438-14.851562 14.851563-14.851562 8.199219 0 14.847656 6.648438 14.847656 14.851562zm0 0"/></g><path d="m181.753906 80.109375h30v20.632813h-30zm0 0" fill="#898890"/><path d="m234.324219 100.742188h30v21.285156h-30zm0 0" fill="#898890"/><path d="m255.984375 122.027344h-30c-1.863281 1.867187-2.910156 2.910156-4.773437 4.773437v16.949219h30v-16.949219c1.863281-1.863281 2.910156-2.90625 4.773437-4.773437zm0 0" fill="#898890"/><path d="m181.753906 7.5h30v72.609375h-30zm0 0" fill="#57a4ff"/><path d="m181.753906 440.859375h30v20.632813h-30zm0 0" fill="#898890"/><path d="m234.324219 461.492188h30v21.285156h-30zm0 0" fill="#898890"/><path d="m255.984375 482.777344h-30c-1.863281 1.867187-2.910156 2.910156-4.773437 4.773437v16.949219h30v-16.949219c1.863281-1.863281 2.910156-2.90625 4.773437-4.773437zm0 0" fill="#898890"/><path d="m181.753906 368.25h30v72.609375h-30zm0 0" fill="#57a4ff"/><path d="m356.003906 260.484375h30v20.632813h-30zm0 0" fill="#898890"/><path d="m408.511719 281.117188h30v21.285156h-30zm0 0" fill="#898890"/><path d="m430.175781 302.402344h-30c-1.867187 1.867187-2.910156 2.910156-4.773437 4.773437v16.949219h30v-16.949219zm0 0" fill="#898890"/><path d="m356.003906 187.875h30v72.609375h-30zm0 0" fill="#57a4ff"/><path d="m7.5 260.484375h30v20.632813h-30zm0 0" fill="#898890"/><path d="m60.007812 281.117188h30v21.285156h-30zm0 0" fill="#898890"/><path d="m81.671875 302.402344h-30c-1.867187 1.867187-2.910156 2.910156-4.773437 4.773437v16.949219h30v-16.949219c1.863281-1.863281 2.90625-2.90625 4.773437-4.773437zm0 0" fill="#898890"/><path d="m7.5 187.875h30v72.609375h-30zm0 0" fill="#57a4ff"/><path d="m221.40625 284.632812v-48.605468l-15-8.660156v57.265624l49.59375 28.632813v-8.660156zm0 0" fill="#006df0"/><path d="m221.40625 227.367188 42.09375-24.300782-7.5-4.332031-49.59375 28.632813 49.59375 28.632812 7.5-4.328125zm0 0" fill="#898890"/><path d="m271 256 34.59375-19.972656v-8.660156l-49.59375 28.632812v57.265625l15-8.660156zm0 0" fill="#57565c"/><path d="m191.707031 256c0-5.460938 2.957031-10.222656 7.351563-12.800781-2.203125-1.296875-4.761719-2.050781-7.5-2.050781-8.203125 0-14.851563 6.652343-14.851563 14.851562s6.648438 14.851562 14.851563 14.851562c2.738281 0 5.296875-.757812 7.5-2.050781-4.394532-2.578125-7.351563-7.339843-7.351563-12.800781zm0 0" fill="#ffb655"/><path d="m320.59375 256c0-5.460938 2.957031-10.222656 7.347656-12.800781-2.203125-1.296875-4.757812-2.050781-7.5-2.050781-8.199218 0-14.847656 6.652343-14.847656 14.851562s6.648438 14.851562 14.847656 14.851562c2.742188 0 5.296875-.757812 7.5-2.050781-4.390625-2.578125-7.347656-7.339843-7.347656-12.800781zm0 0" fill="#ffb655"/><path d="m256.132812 328.113281c0-5.460937 2.957032-10.222656 7.351563-12.800781-2.203125-1.292969-4.761719-2.046875-7.5-2.046875-8.203125 0-14.851563 6.648437-14.851563 14.847656 0 8.203125 6.648438 14.851563 14.851563 14.851563 2.738281 0 5.296875-.753906 7.5-2.046875-4.394531-2.578125-7.351563-7.339844-7.351563-12.804688zm0 0" fill="#ffb655"/><path d="m256.132812 184.132812c0-5.464843 2.957032-10.226562 7.351563-12.804687-2.203125-1.292969-4.761719-2.046875-7.5-2.046875-8.203125 0-14.851563 6.648438-14.851563 14.851562 0 8.199219 6.648438 14.847657 14.851563 14.847657 2.738281 0 5.296875-.753907 7.5-2.046875-4.394531-2.582032-7.351563-7.339844-7.351563-12.800782zm0 0" fill="#ffb655"/><path d="m226.824219 114.527344h-3.945313l-9.167968 9.167968v27.554688h84.574218v-27.554688l-9.164062-9.167968h-3.945313v-6.285156h52.570313v-6.828126c.894531.476563 1.78125.957032 2.664062 1.441407l7.253906-13.128907c-3.238281-1.789062-6.5625-3.496093-9.917968-5.101562v-84.625h-163.492188v108.242188h52.570313zm56.464843 21.722656h-54.574218v-6.339844l.378906-.378906h53.8125l.378906.378906v6.339844zm-13.113281-21.722656h-28.351562v-6.285156h28.351562zm-80.921875-99.527344h133.492188v57.609375h-133.492188zm0 78.242188v-5.632813h133.492188v5.632813zm0 0"/><path d="m174.253906 410.585938c-.777344-.414063-1.554687-.828126-2.320312-1.25l-7.222656 13.144531c3.117187 1.714843 6.3125 3.355469 9.542968 4.894531v41.617188h52.570313v6.285156h-3.945313l-9.167968 9.167968v27.554688h84.574218v-27.554688l-9.164062-9.167968h-3.945313v-6.285156h52.570313v-108.242188h-163.492188zm109.035156 86.414062h-54.574218v-6.339844l.378906-.378906h53.8125l.378906.378906v6.339844zm-13.113281-21.722656h-28.351562v-6.285156h28.351562zm52.570313-21.285156h-133.492188v-5.632813h133.492188zm-133.492188-78.242188h133.492188v57.609375h-133.492188zm0 0"/><path d="m348.503906 180.375v108.242188h52.507813v6.285156h-3.945313l-9.164062 9.167968v27.554688h25.773437c-.449219.9375-.910156 1.871094-1.375 2.800781l13.402344 6.734375c1.570313-3.125 3.066406-6.316406 4.464844-9.535156h42.308593v-27.554688l-9.167968-9.167968h-3.945313v-6.285156h52.636719v-108.242188zm108.972656 136.25h-54.574218v-6.34375l.378906-.378906h53.816406l.378906.378906zm-13.113281-21.722656h-28.351562v-6.285156h28.351562zm52.636719-21.285156h-133.496094v-5.632813h133.496094zm-133.496094-20.632813v-57.609375h133.496094v57.609375zm0 0"/><path d="m48.5625 294.902344-9.164062 9.167968v27.554688h84.574218v-27.554688l-9.167968-9.167968h-3.945313v-6.285156h52.636719v-108.242188h-65.171875c.449219-.9375.90625-1.871094 1.375-2.800781l-13.402344-6.734375c-1.570313 3.121094-3.066406 6.3125-4.464844 9.535156h-81.832031v108.242188h52.507812v6.285156zm60.410156 21.722656h-54.574218v-6.339844l.378906-.378906h53.816406l.378906.378906zm-93.972656-121.25h133.496094v57.609375h-133.496094zm0 78.242188v-5.632813h133.496094v5.632813zm52.507812 15h28.351563v6.285156h-28.351563zm0 0"/><path d="m281.839844 232.425781-25.839844 14.914063-25.839844-14.914063-7.5 12.988281 25.839844 14.917969v29.839844h15v-29.839844l25.839844-14.917969zm0 0"/><path d="m142.828125 408.421875c4.15625 3.09375 8.496094 6.054687 12.898437 8.796875l7.933594-12.730469c-4.054687-2.527343-8.050781-5.25-11.878906-8.101562zm0 0"/><path d="m102.902344 340.496094-13.125 7.257812c11.484375 20.769532 26.582031 39.015625 44.871094 54.234375l9.59375-11.53125c-16.851563-14.023437-30.757813-30.832031-41.339844-49.960937zm0 0"/><path d="m400.097656 355.035156 12.355469 8.511719c2.941406-4.273437 5.738281-8.71875 8.316406-13.210937l-13.007812-7.464844c-2.375 4.140625-4.953125 8.234375-7.664063 12.164062zm0 0"/><path d="m346.367188 405.699219 7.765624 12.832031c20.183594-12.210938 37.742188-27.882812 52.183594-46.578125l-11.871094-9.171875c-13.308593 17.230469-29.480468 31.667969-48.078124 42.917969zm0 0"/><path d="m369.515625 103.832031c-4.152344-3.101562-8.484375-6.070312-12.878906-8.824219l-7.960938 12.714844c4.046875 2.53125 8.035157 5.265625 11.859375 8.125zm0 0"/><path d="m409.097656 171.503906 13.125-7.261718c-11.414062-20.636719-26.402344-38.792969-44.542968-53.957032l-9.617188 11.511719c16.710938 13.972656 30.519531 30.695313 41.035156 49.707031zm0 0"/><path d="m165.632812 106.300781-7.765624-12.832031c-20.183594 12.210938-37.742188 27.882812-52.183594 46.578125l11.871094 9.171875c13.308593-17.230469 29.484374-31.667969 48.078124-42.917969zm0 0"/><path d="m111.902344 156.964844-12.355469-8.511719c-2.941406 4.273437-5.742187 8.71875-8.320313 13.210937l13.011719 7.464844c2.375-4.136718 4.953125-8.230468 7.664063-12.164062zm0 0"/><path d="m320.441406 233.648438c-2.574218 0-5.046875.4375-7.347656 1.242187v-11.855469l-40.851562-23.585937c3.773437-4.003907 6.09375-9.394531 6.09375-15.320313 0-12.324218-10.027344-22.351562-22.351563-22.351562s-22.351563 10.027344-22.351563 22.351562c0 5.929688 2.320313 11.328125 6.105469 15.335938l-40.832031 23.570312v11.855469c-2.300781-.804687-4.773438-1.242187-7.347656-1.242187-12.324219 0-22.351563 10.027343-22.351563 22.351562s10.023438 22.351562 22.351563 22.351562c2.574218 0 5.046875-.441406 7.347656-1.242187v11.851563l40.980469 23.660156c-3.871094 4.023437-6.253907 9.484375-6.253907 15.492187 0 12.324219 10.027344 22.351563 22.351563 22.351563s22.351563-10.027344 22.351563-22.351563c0-6.003906-2.382813-11.460937-6.246094-15.480469l41.003906-23.671874v-11.855469c2.304688.804687 4.777344 1.242187 7.351562 1.242187 12.324219 0 22.351563-10.023437 22.351563-22.351562 0-12.324219-10.03125-22.347656-22.355469-22.347656zm-64.457031-56.867188c4.050781 0 7.351563 3.296875 7.351563 7.347656 0 4.054688-3.300782 7.351563-7.351563 7.351563-4.054687 0-7.351563-3.296875-7.351563-7.351563 0-4.050781 3.296876-7.347656 7.351563-7.347656zm-64.425781 86.570312c-4.054688 0-7.351563-3.296874-7.351563-7.351562s3.296875-7.351562 7.351563-7.351562c4.050781 0 7.347656 3.296874 7.347656 7.351562s-3.296875 7.351562-7.347656 7.351562zm64.425781 72.113282c-4.054687 0-7.351563-3.296875-7.351563-7.351563 0-4.050781 3.296876-7.347656 7.351563-7.347656 4.050781 0 7.351563 3.296875 7.351563 7.347656-.003907 4.054688-3.300782 7.351563-7.351563 7.351563zm42.109375-55.164063-42.09375 24.304688-42.09375-24.304688v-48.601562l42.09375-24.304688 42.09375 24.304688zm22.347656-16.949219c-4.050781 0-7.347656-3.296874-7.347656-7.351562s3.296875-7.351562 7.347656-7.351562c4.054688 0 7.351563 3.296874 7.351563 7.351562s-3.296875 7.351562-7.351563 7.351562zm0 0"/><path d="m130.996094 220.375h-48.496094v-15h48.496094zm-58.496094 0h-15v-15h15zm-25 0h-15v-15h15zm0 0" fill="#fff"/><path d="m479.5 220.375h-48.496094v-15h48.496094zm-58.496094 0h-15v-15h15zm-25 0h-15v-15h15zm0 0" fill="#fff"/><path d="m305.246094 40h-48.492188v-15h48.492188zm-58.492188 0h-15v-15h15zm-25 0h-15v-15h15zm0 0" fill="#fff"/><path d="m305.246094 400.75h-48.492188v-15h48.492188zm-58.492188 0h-15v-15h15zm-25 0h-15v-15h15zm0 0" fill="#fff"/></svg>