<svg xmlns="http://www.w3.org/2000/svg" height="212pt" version="1.1" viewBox="1 -14 212.91 212" width="212pt">
<g id="surface1">
<path d="M 46.148438 39.511719 L 46.148438 11.109375 C 46.148438 7.1875 42.972656 4.011719 39.050781 4.011719 L 10.648438 4.011719 C 6.726562 4.011719 3.550781 7.1875 3.550781 11.109375 L 3.550781 39.511719 C 3.550781 43.433594 6.726562 46.609375 10.648438 46.609375 L 39.050781 46.609375 C 42.972656 46.609375 46.148438 43.433594 46.148438 39.511719 Z M 24.851562 32.410156 C 20.929688 32.410156 17.75 29.230469 17.75 25.3125 C 17.75 21.390625 20.929688 18.210938 24.851562 18.210938 C 28.769531 18.210938 31.949219 21.390625 31.949219 25.3125 C 31.949219 29.230469 28.769531 32.410156 24.851562 32.410156 Z M 24.851562 32.410156 " style=" stroke:none;fill-rule:nonzero;fill:rgb(67.45098%,67.058824%,69.411765%);fill-opacity:1;" />
<path d="M 31.949219 25.3125 C 31.949219 29.230469 28.769531 32.410156 24.851562 32.410156 C 20.929688 32.410156 17.75 29.230469 17.75 25.3125 C 17.75 21.390625 20.929688 18.210938 24.851562 18.210938 C 28.769531 18.210938 31.949219 21.390625 31.949219 25.3125 Z M 31.949219 25.3125 " style=" stroke:none;fill-rule:nonzero;fill:rgb(100%,31.372549%,13.72549%);fill-opacity:1;" />
<path d="M 99.402344 39.511719 L 99.402344 11.109375 C 99.402344 7.1875 96.222656 4.011719 92.300781 4.011719 L 63.898438 4.011719 C 59.980469 4.011719 56.800781 7.1875 56.800781 11.109375 L 56.800781 39.511719 C 56.800781 43.433594 59.980469 46.609375 63.898438 46.609375 L 92.300781 46.609375 C 96.222656 46.609375 99.402344 43.433594 99.402344 39.511719 Z M 78.101562 32.410156 C 74.179688 32.410156 71 29.230469 71 25.3125 C 71 21.390625 74.179688 18.210938 78.101562 18.210938 C 82.023438 18.210938 85.199219 21.390625 85.199219 25.3125 C 85.199219 29.230469 82.019531 32.410156 78.101562 32.410156 Z M 78.101562 32.410156 " style=" stroke:none;fill-rule:nonzero;fill:rgb(67.45098%,67.058824%,69.411765%);fill-opacity:1;" />
<path d="M 85.199219 25.3125 C 85.199219 29.230469 82.023438 32.410156 78.101562 32.410156 C 74.179688 32.410156 71 29.230469 71 25.3125 C 71 21.390625 74.179688 18.210938 78.101562 18.210938 C 82.023438 18.210938 85.199219 21.390625 85.199219 25.3125 Z M 85.199219 25.3125 " style=" stroke:none;fill-rule:nonzero;fill:rgb(100%,31.372549%,13.72549%);fill-opacity:1;" />
<path d="M 156.199219 39.511719 L 156.199219 11.109375 C 156.199219 7.1875 153.019531 4.011719 149.101562 4.011719 L 120.699219 4.011719 C 116.777344 4.011719 113.597656 7.1875 113.597656 11.109375 L 113.597656 39.511719 C 113.597656 43.433594 116.777344 46.609375 120.699219 46.609375 L 149.101562 46.609375 C 153.019531 46.609375 156.199219 43.433594 156.199219 39.511719 Z M 134.898438 32.410156 C 130.976562 32.410156 127.800781 29.230469 127.800781 25.3125 C 127.800781 21.390625 130.976562 18.210938 134.898438 18.210938 C 138.820312 18.210938 142 21.390625 142 25.3125 C 142 29.230469 138.820312 32.410156 134.898438 32.410156 Z M 134.898438 32.410156 " style=" stroke:none;fill-rule:nonzero;fill:rgb(67.45098%,67.058824%,69.411765%);fill-opacity:1;" />
<path d="M 142 25.3125 C 142 29.230469 138.820312 32.410156 134.898438 32.410156 C 130.976562 32.410156 127.800781 29.230469 127.800781 25.3125 C 127.800781 21.390625 130.976562 18.210938 134.898438 18.210938 C 138.820312 18.210938 142 21.390625 142 25.3125 Z M 142 25.3125 " style=" stroke:none;fill-rule:nonzero;fill:rgb(100%,31.372549%,13.72549%);fill-opacity:1;" />
<path d="M 202.351562 4.011719 L 173.949219 4.011719 C 170.027344 4.011719 166.851562 7.1875 166.851562 11.109375 L 166.851562 39.511719 C 166.851562 43.433594 170.027344 46.609375 173.949219 46.609375 L 202.351562 46.609375 C 206.273438 46.609375 209.449219 43.433594 209.449219 39.511719 L 209.449219 11.109375 C 209.449219 7.191406 206.269531 4.011719 202.351562 4.011719 Z M 188.148438 32.410156 C 184.230469 32.410156 181.050781 29.230469 181.050781 25.3125 C 181.050781 21.390625 184.230469 18.210938 188.148438 18.210938 C 192.070312 18.210938 195.25 21.390625 195.25 25.3125 C 195.25 29.230469 192.070312 32.410156 188.148438 32.410156 Z M 188.148438 32.410156 " style=" stroke:none;fill-rule:nonzero;fill:rgb(67.45098%,67.058824%,69.411765%);fill-opacity:1;" />
<path d="M 195.25 25.3125 C 195.25 29.230469 192.070312 32.410156 188.148438 32.410156 C 184.230469 32.410156 181.050781 29.230469 181.050781 25.3125 C 181.050781 21.390625 184.230469 18.210938 188.148438 18.210938 C 192.070312 18.210938 195.25 21.390625 195.25 25.3125 Z M 195.25 25.3125 " style=" stroke:none;fill-rule:nonzero;fill:rgb(100%,31.372549%,13.72549%);fill-opacity:1;" />
<path d="M 201.851562 110.511719 L 11.148438 110.511719 C 6.953125 110.515625 3.554688 113.914062 3.550781 118.109375 L 3.550781 159.714844 C 3.554688 163.90625 6.953125 167.308594 11.148438 167.3125 L 201.851562 167.3125 C 206.046875 167.308594 209.445312 163.910156 209.449219 159.714844 L 209.449219 118.109375 C 209.445312 113.914062 206.046875 110.515625 201.851562 110.511719 Z M 117.148438 149.5625 L 17.75 149.5625 L 17.75 128.261719 L 117.148438 128.261719 Z M 191.699219 138.910156 C 187.777344 138.910156 184.601562 135.734375 184.601562 131.8125 C 184.601562 127.890625 187.777344 124.710938 191.699219 124.710938 C 195.621094 124.710938 198.800781 127.890625 198.800781 131.8125 C 198.789062 135.726562 195.617188 138.898438 191.699219 138.910156 Z M 191.699219 138.910156 " style=" stroke:none;fill-rule:nonzero;fill:rgb(67.45098%,67.058824%,69.411765%);fill-opacity:1;" />
<path d="M 198.800781 131.8125 C 198.800781 135.734375 195.621094 138.910156 191.699219 138.910156 C 187.777344 138.910156 184.601562 135.734375 184.601562 131.8125 C 184.601562 127.890625 187.777344 124.710938 191.699219 124.710938 C 195.621094 124.710938 198.800781 127.890625 198.800781 131.8125 Z M 198.800781 131.8125 " style=" stroke:none;fill-rule:nonzero;fill:rgb(100%,31.372549%,13.72549%);fill-opacity:1;" />
<path d="M 17.75 128.261719 L 117.148438 128.261719 L 117.148438 149.5625 L 17.75 149.5625 Z M 17.75 128.261719 " style=" stroke:none;fill-rule:nonzero;fill:rgb(0%,84.313725%,87.45098%);fill-opacity:1;" />
<path d="M 28.398438 181.511719 L 42.601562 181.511719 L 46.148438 167.3125 L 24.851562 167.3125 Z M 28.398438 181.511719 " style=" stroke:none;fill-rule:nonzero;fill:rgb(67.45098%,67.058824%,69.411765%);fill-opacity:1;" />
<path d="M 170.398438 181.511719 L 184.601562 181.511719 L 188.148438 167.3125 L 166.851562 167.3125 Z M 170.398438 181.511719 " style=" stroke:none;fill-rule:nonzero;fill:rgb(67.45098%,67.058824%,69.411765%);fill-opacity:1;" />
<path d="M 24.851562 14.660156 C 18.96875 14.660156 14.199219 19.429688 14.199219 25.3125 C 14.199219 31.191406 18.96875 35.960938 24.851562 35.960938 C 30.730469 35.960938 35.5 31.191406 35.5 25.3125 C 35.5 19.429688 30.730469 14.660156 24.851562 14.660156 Z M 24.851562 28.859375 C 22.890625 28.859375 21.300781 27.273438 21.300781 25.3125 C 21.300781 23.351562 22.890625 21.761719 24.851562 21.761719 C 26.808594 21.761719 28.398438 23.351562 28.398438 25.3125 C 28.398438 27.273438 26.808594 28.859375 24.851562 28.859375 Z M 24.851562 28.859375 " style=" stroke:none;fill-rule:nonzero;fill:rgb(13.72549%,12.156863%,12.54902%);fill-opacity:1;" />
<path d="M 78.101562 14.660156 C 72.21875 14.660156 67.449219 19.429688 67.449219 25.3125 C 67.449219 31.191406 72.21875 35.960938 78.101562 35.960938 C 83.980469 35.960938 88.75 31.191406 88.75 25.3125 C 88.75 19.429688 83.980469 14.660156 78.101562 14.660156 Z M 78.101562 28.859375 C 76.140625 28.859375 74.550781 27.273438 74.550781 25.3125 C 74.550781 23.351562 76.140625 21.761719 78.101562 21.761719 C 80.0625 21.761719 81.648438 23.351562 81.648438 25.3125 C 81.648438 27.273438 80.058594 28.859375 78.101562 28.859375 Z M 78.101562 28.859375 " style=" stroke:none;fill-rule:nonzero;fill:rgb(13.72549%,12.156863%,12.54902%);fill-opacity:1;" />
<path d="M 134.898438 14.660156 C 129.019531 14.660156 124.25 19.429688 124.25 25.3125 C 124.25 31.191406 129.019531 35.960938 134.898438 35.960938 C 140.78125 35.960938 145.550781 31.191406 145.550781 25.3125 C 145.550781 19.429688 140.78125 14.660156 134.898438 14.660156 Z M 134.898438 28.859375 C 132.9375 28.859375 131.351562 27.273438 131.351562 25.3125 C 131.351562 23.351562 132.941406 21.761719 134.898438 21.761719 C 136.859375 21.761719 138.449219 23.351562 138.449219 25.3125 C 138.449219 27.273438 136.859375 28.859375 134.898438 28.859375 Z M 134.898438 28.859375 " style=" stroke:none;fill-rule:nonzero;fill:rgb(13.72549%,12.156863%,12.54902%);fill-opacity:1;" />
<path d="M 188.148438 14.660156 C 182.269531 14.660156 177.5 19.429688 177.5 25.3125 C 177.5 31.191406 182.269531 35.960938 188.148438 35.960938 C 194.03125 35.960938 198.800781 31.191406 198.800781 25.3125 C 198.800781 19.429688 194.03125 14.660156 188.148438 14.660156 Z M 188.148438 28.859375 C 186.191406 28.859375 184.601562 27.273438 184.601562 25.3125 C 184.601562 23.351562 186.191406 21.761719 188.148438 21.761719 C 190.109375 21.761719 191.699219 23.351562 191.699219 25.3125 C 191.699219 27.273438 190.109375 28.859375 188.148438 28.859375 Z M 188.148438 28.859375 " style=" stroke:none;fill-rule:nonzero;fill:rgb(13.72549%,12.156863%,12.54902%);fill-opacity:1;" />
<path d="M 191.699219 142.460938 C 197.582031 142.460938 202.347656 137.691406 202.347656 131.8125 C 202.347656 125.929688 197.582031 121.160156 191.699219 121.160156 C 185.820312 121.160156 181.050781 125.929688 181.050781 131.8125 C 181.050781 137.691406 185.820312 142.460938 191.699219 142.460938 Z M 191.699219 128.261719 C 193.660156 128.261719 195.25 129.851562 195.25 131.808594 C 195.25 133.769531 193.660156 135.359375 191.699219 135.359375 C 189.738281 135.359375 188.148438 133.769531 188.148438 131.808594 C 188.148438 129.851562 189.738281 128.261719 191.699219 128.261719 Z M 191.699219 128.261719 " style=" stroke:none;fill-rule:nonzero;fill:rgb(13.72549%,12.156863%,12.54902%);fill-opacity:1;" />
<path d="M 17.75 153.109375 L 117.148438 153.109375 C 119.109375 153.109375 120.699219 151.523438 120.699219 149.5625 L 120.699219 128.261719 C 120.699219 126.300781 119.109375 124.710938 117.148438 124.710938 L 17.75 124.710938 C 15.789062 124.710938 14.199219 126.300781 14.199219 128.261719 L 14.199219 149.5625 C 14.199219 151.523438 15.789062 153.109375 17.75 153.109375 Z M 21.300781 131.8125 L 113.601562 131.8125 L 113.601562 146.011719 L 21.300781 146.011719 Z M 21.300781 131.8125 " style=" stroke:none;fill-rule:nonzero;fill:rgb(13.72549%,12.156863%,12.54902%);fill-opacity:1;" />
<path d="M 127.800781 124.710938 L 134.898438 124.710938 L 134.898438 131.8125 L 127.800781 131.8125 Z M 127.800781 124.710938 " style=" stroke:none;fill-rule:nonzero;fill:rgb(13.72549%,12.156863%,12.54902%);fill-opacity:1;" />
<path d="M 142 124.710938 L 149.101562 124.710938 L 149.101562 131.8125 L 142 131.8125 Z M 142 124.710938 " style=" stroke:none;fill-rule:nonzero;fill:rgb(13.72549%,12.156863%,12.54902%);fill-opacity:1;" />
<path d="M 156.199219 124.710938 L 163.300781 124.710938 L 163.300781 131.8125 L 156.199219 131.8125 Z M 156.199219 124.710938 " style=" stroke:none;fill-rule:nonzero;fill:rgb(13.72549%,12.156863%,12.54902%);fill-opacity:1;" />
<path d="M 127.800781 135.359375 L 134.898438 135.359375 L 134.898438 142.460938 L 127.800781 142.460938 Z M 127.800781 135.359375 " style=" stroke:none;fill-rule:nonzero;fill:rgb(13.72549%,12.156863%,12.54902%);fill-opacity:1;" />
<path d="M 142 135.359375 L 149.101562 135.359375 L 149.101562 142.460938 L 142 142.460938 Z M 142 135.359375 " style=" stroke:none;fill-rule:nonzero;fill:rgb(13.72549%,12.156863%,12.54902%);fill-opacity:1;" />
<path d="M 156.199219 135.359375 L 163.300781 135.359375 L 163.300781 142.460938 L 156.199219 142.460938 Z M 156.199219 135.359375 " style=" stroke:none;fill-rule:nonzero;fill:rgb(13.72549%,12.156863%,12.54902%);fill-opacity:1;" />
<path d="M 127.800781 146.011719 L 134.898438 146.011719 L 134.898438 153.109375 L 127.800781 153.109375 Z M 127.800781 146.011719 " style=" stroke:none;fill-rule:nonzero;fill:rgb(13.72549%,12.156863%,12.54902%);fill-opacity:1;" />
<path d="M 142 146.011719 L 149.101562 146.011719 L 149.101562 153.109375 L 142 153.109375 Z M 142 146.011719 " style=" stroke:none;fill-rule:nonzero;fill:rgb(13.72549%,12.156863%,12.54902%);fill-opacity:1;" />
<path d="M 156.199219 146.011719 L 163.300781 146.011719 L 163.300781 153.109375 L 156.199219 153.109375 Z M 156.199219 146.011719 " style=" stroke:none;fill-rule:nonzero;fill:rgb(13.72549%,12.156863%,12.54902%);fill-opacity:1;" />
<path d="M 170.398438 124.710938 L 177.5 124.710938 L 177.5 131.8125 L 170.398438 131.8125 Z M 170.398438 124.710938 " style=" stroke:none;fill-rule:nonzero;fill:rgb(13.72549%,12.156863%,12.54902%);fill-opacity:1;" />
<path d="M 170.398438 135.359375 L 177.5 135.359375 L 177.5 142.460938 L 170.398438 142.460938 Z M 170.398438 135.359375 " style=" stroke:none;fill-rule:nonzero;fill:rgb(13.72549%,12.156863%,12.54902%);fill-opacity:1;" />
<path d="M 170.398438 146.011719 L 177.5 146.011719 L 177.5 153.109375 L 170.398438 153.109375 Z M 170.398438 146.011719 " style=" stroke:none;fill-rule:nonzero;fill:rgb(13.72549%,12.156863%,12.54902%);fill-opacity:1;" />
<path d="M 88.75 103.410156 L 181.050781 103.410156 C 186.933594 103.410156 191.699219 98.644531 191.699219 92.761719 L 191.699219 50.160156 L 202.347656 50.160156 C 208.230469 50.160156 213 45.394531 213 39.511719 L 213 11.109375 C 213 5.230469 208.230469 0.460938 202.347656 0.460938 L 173.949219 0.460938 C 168.066406 0.460938 163.300781 5.230469 163.300781 11.109375 L 163.300781 39.511719 C 163.300781 45.390625 168.066406 50.160156 173.949219 50.160156 L 184.597656 50.160156 L 184.597656 92.761719 C 184.597656 94.722656 183.007812 96.308594 181.050781 96.308594 L 88.75 96.308594 C 82.867188 96.308594 78.101562 101.078125 78.101562 106.960938 L 74.550781 106.960938 L 74.550781 96.308594 C 74.550781 94.347656 76.140625 92.761719 78.101562 92.761719 L 127.800781 92.761719 C 133.683594 92.761719 138.449219 87.992188 138.449219 82.109375 L 138.449219 50.160156 L 149.101562 50.160156 C 154.980469 50.160156 159.75 45.394531 159.75 39.511719 L 159.75 11.109375 C 159.75 5.230469 154.980469 0.460938 149.101562 0.460938 L 120.699219 0.460938 C 114.816406 0.460938 110.050781 5.230469 110.050781 11.109375 L 110.050781 39.511719 C 110.050781 45.390625 114.816406 50.160156 120.699219 50.160156 L 131.347656 50.160156 L 131.347656 82.109375 C 131.347656 84.070312 129.757812 85.660156 127.800781 85.660156 L 78.101562 85.660156 C 72.21875 85.660156 67.449219 90.425781 67.449219 96.308594 L 67.449219 106.957031 L 63.902344 106.957031 L 63.902344 85.660156 C 63.902344 83.699219 65.492188 82.113281 67.449219 82.113281 L 71 82.113281 C 76.882812 82.113281 81.648438 77.34375 81.648438 71.460938 L 81.648438 50.160156 L 92.300781 50.160156 C 98.179688 50.160156 102.949219 45.394531 102.949219 39.511719 L 102.949219 11.109375 C 102.949219 5.230469 98.179688 0.460938 92.300781 0.460938 L 63.898438 0.460938 C 58.019531 0.460938 53.25 5.230469 53.25 11.109375 L 53.25 39.511719 C 53.25 45.390625 58.019531 50.160156 63.898438 50.160156 L 74.550781 50.160156 L 74.550781 71.460938 C 74.550781 73.421875 72.960938 75.011719 71 75.011719 L 67.449219 75.011719 C 61.570312 75.011719 56.800781 79.777344 56.800781 85.660156 L 56.800781 106.960938 L 53.25 106.960938 L 53.25 78.5625 C 53.25 72.679688 48.484375 67.910156 42.601562 67.910156 L 31.949219 67.910156 C 29.988281 67.910156 28.398438 66.320312 28.398438 64.363281 L 28.398438 50.160156 L 39.050781 50.160156 C 44.929688 50.160156 49.699219 45.394531 49.699219 39.511719 L 49.699219 11.109375 C 49.699219 5.230469 44.929688 0.460938 39.050781 0.460938 L 10.648438 0.460938 C 4.769531 0.460938 0 5.230469 0 11.109375 L 0 39.511719 C 0 45.390625 4.769531 50.160156 10.648438 50.160156 L 21.300781 50.160156 L 21.300781 64.359375 C 21.300781 70.242188 26.066406 75.011719 31.949219 75.011719 L 42.597656 75.011719 C 44.558594 75.011719 46.148438 76.597656 46.148438 78.558594 L 46.148438 106.960938 L 11.140625 106.960938 C 4.988281 106.964844 0.0078125 111.949219 0 118.101562 L 0 159.722656 C 0.0078125 165.871094 4.988281 170.855469 11.140625 170.859375 L 22.078125 170.859375 L 24.957031 182.371094 C 25.351562 183.949219 26.769531 185.058594 28.398438 185.0625 L 42.601562 185.0625 C 44.230469 185.0625 45.648438 183.949219 46.042969 182.371094 L 48.921875 170.859375 L 164.078125 170.859375 L 166.957031 182.371094 C 167.351562 183.949219 168.769531 185.058594 170.402344 185.0625 L 184.601562 185.0625 C 186.230469 185.0625 187.648438 183.949219 188.042969 182.371094 L 190.921875 170.859375 L 201.859375 170.859375 C 208.011719 170.855469 212.996094 165.871094 213 159.722656 L 213 118.101562 C 212.996094 111.953125 208.011719 106.96875 201.859375 106.960938 L 85.199219 106.960938 C 85.199219 105 86.789062 103.410156 88.75 103.410156 Z M 170.398438 39.511719 L 170.398438 11.109375 C 170.398438 9.148438 171.988281 7.5625 173.949219 7.5625 L 202.347656 7.5625 C 204.308594 7.5625 205.898438 9.152344 205.898438 11.109375 L 205.898438 39.511719 C 205.898438 41.472656 204.308594 43.058594 202.347656 43.058594 L 173.949219 43.058594 C 171.988281 43.0625 170.398438 41.472656 170.398438 39.511719 Z M 117.148438 39.511719 L 117.148438 11.109375 C 117.148438 9.148438 118.738281 7.5625 120.699219 7.5625 L 149.101562 7.5625 C 151.058594 7.5625 152.648438 9.152344 152.648438 11.109375 L 152.648438 39.511719 C 152.648438 41.472656 151.058594 43.058594 149.101562 43.058594 L 120.699219 43.058594 C 118.738281 43.0625 117.148438 41.472656 117.148438 39.511719 Z M 60.351562 39.511719 L 60.351562 11.109375 C 60.351562 9.148438 61.941406 7.5625 63.898438 7.5625 L 92.300781 7.5625 C 94.261719 7.5625 95.847656 9.152344 95.847656 11.109375 L 95.847656 39.511719 C 95.847656 41.472656 94.257812 43.058594 92.300781 43.058594 L 63.898438 43.058594 C 61.941406 43.0625 60.351562 41.472656 60.351562 39.511719 Z M 7.101562 39.511719 L 7.101562 11.109375 C 7.101562 9.148438 8.691406 7.5625 10.648438 7.5625 L 39.050781 7.5625 C 41.011719 7.5625 42.597656 9.152344 42.597656 11.109375 L 42.597656 39.511719 C 42.597656 41.472656 41.007812 43.058594 39.050781 43.058594 L 10.648438 43.058594 C 8.691406 43.0625 7.101562 41.472656 7.101562 39.511719 Z M 39.828125 177.960938 L 31.171875 177.960938 L 29.398438 170.859375 L 41.601562 170.859375 Z M 181.828125 177.960938 L 173.171875 177.960938 L 171.398438 170.859375 L 183.601562 170.859375 Z M 201.859375 114.0625 C 204.089844 114.066406 205.894531 115.871094 205.898438 118.101562 L 205.898438 159.71875 C 205.894531 161.949219 204.089844 163.753906 201.859375 163.761719 L 11.140625 163.761719 C 8.910156 163.753906 7.105469 161.949219 7.101562 159.71875 L 7.101562 118.101562 C 7.105469 115.871094 8.910156 114.066406 11.140625 114.0625 Z M 201.859375 114.0625 " style=" stroke:none;fill-rule:nonzero;fill:rgb(13.72549%,12.156863%,12.54902%);fill-opacity:1;" />
</g>
</svg>