<?xml version="1.0" encoding="iso-8859-1"?>
<!-- Generator: Adobe Illustrator 19.0.0, SVG Export Plug-In . SVG Version: 6.00 Build 0)  -->
<svg version="1.1" id="Layer_1" xmlns="http://www.w3.org/2000/svg" xmlns:xlink="http://www.w3.org/1999/xlink" x="0px" y="0px"
	 viewBox="0 0 512 512" style="enable-background:new 0 0 512 512;" xml:space="preserve">
<g>
	<path style="fill:#FFFFFF;" d="M405.429,54.662v29.453H106.571V54.662c0-24.426,19.648-44.213,43.897-44.213h211.066
		C385.767,10.449,405.429,30.237,405.429,54.662L405.429,54.662z"/>
	<path style="fill:#FFFFFF;" d="M152.057,435.543h253.371v21.794c0.001,24.423-19.661,44.214-43.893,44.214H150.468
		c-24.249,0-43.897-19.79-43.897-44.214v-21.794H152.057z"/>
</g>
<rect x="106.569" y="84.114" style="fill:#1EB615;" width="298.862" height="351.431"/>
<path d="M361.535,0H150.468c-29.967,0-54.346,24.522-54.346,54.662v402.675c0,30.141,24.38,54.663,54.346,54.663h211.066
	c29.965,0,54.343-24.522,54.343-54.663V54.662C415.878,24.522,391.499,0,361.535,0z M117.02,94.563h277.96v330.53H117.02V94.563z
	 M117.02,54.662c0-18.618,15.005-33.764,33.448-33.764h211.066c18.441,0,33.445,15.147,33.445,33.764v19.004H117.02V54.662z
	 M394.98,457.337c0,18.618-15.004,33.765-33.445,33.765H150.468c-18.443,0-33.448-15.147-33.448-33.765v-11.345h277.96V457.337z"/>
<path d="M255.999,483.775c8.381,0,15.2-6.833,15.2-15.231c0-8.4-6.819-15.234-15.2-15.234s-15.199,6.834-15.199,15.234
	C240.8,476.943,247.619,483.775,255.999,483.775z"/>
<path d="M293.616,36.832h-75.233c-5.771,0-10.449,4.678-10.449,10.449s4.678,10.449,10.449,10.449h75.233
	c5.771,0,10.449-4.678,10.449-10.449S299.387,36.832,293.616,36.832z"/>
<path d="M173.453,230.912c5.771,0,10.449-4.678,10.449-10.449V183.93c0-0.01,0-0.019,0-0.028h36.972
	c5.771,0,10.449-4.678,10.449-10.449s-4.678-10.449-10.449-10.449h-37.361c-11.308,0-20.508,9.387-20.508,20.926v36.533
	C163.004,226.234,167.682,230.912,173.453,230.912z"/>
<path d="M338.547,281.088c-5.771,0-10.449,4.678-10.449,10.449v36.533c0,0.01,0,0.02-0.001,0.028h-36.972
	c-5.771,0-10.449,4.678-10.449,10.449c0,5.771,4.678,10.449,10.449,10.449h37.357c11.311,0,20.513-9.387,20.513-20.926v-36.533
	C348.996,285.766,344.318,281.088,338.547,281.088z"/>
<path d="M228.228,328.098h-4.678c-5.771,0-10.449,4.678-10.449,10.449c0,5.771,4.678,10.449,10.449,10.449h4.678
	c5.771,0,10.449-4.678,10.449-10.449C238.677,332.776,233.999,328.098,228.228,328.098z"/>
<path d="M189.746,328.098h-5.843c0-0.009,0-0.019,0-0.028v-36.533c0-5.771-4.678-10.449-10.449-10.449s-10.449,4.678-10.449,10.449
	v36.533c0,11.539,9.2,20.926,20.509,20.926h6.233c5.771,0,10.449-4.678,10.449-10.449
	C200.196,332.776,195.517,328.098,189.746,328.098z"/>
<path d="M286.155,183.902c5.771,0,10.449-4.678,10.449-10.449s-4.678-10.449-10.449-10.449h-4.678
	c-5.771,0-10.449,4.678-10.449,10.449s4.678,10.449,10.449,10.449H286.155z"/>
<path d="M328.487,163.004h-8.527c-5.771,0-10.449,4.678-10.449,10.449s4.678,10.449,10.449,10.449h8.139
	c0.001,0.009,0.001,0.019,0.001,0.028v36.533c0,5.771,4.678,10.449,10.449,10.449c5.771,0,10.449-4.678,10.449-10.449V183.93
	C348.996,172.391,339.796,163.004,328.487,163.004z"/>
<g>
</g>
<g>
</g>
<g>
</g>
<g>
</g>
<g>
</g>
<g>
</g>
<g>
</g>
<g>
</g>
<g>
</g>
<g>
</g>
<g>
</g>
<g>
</g>
<g>
</g>
<g>
</g>
<g>
</g>
</svg>
