<svg id="Layer_1" enable-background="new 0 0 512 512" height="512" viewBox="0 0 512 512" width="512" xmlns="http://www.w3.org/2000/svg"><path d="m480 16v320c0 8.84-7.16 16-16 16h-448c-8.84 0-16-7.16-16-16v-320c0-8.84 7.16-16 16-16h448c8.84 0 16 7.16 16 16z" fill="#aaa"/><path d="m480 16v288h-416c-8.84 0-16-7.16-16-16v-288h416c8.84 0 16 7.16 16 16z" fill="#bcbcbc"/><path d="m411.314 92.687-24-24c-3-3.001-7.07-4.687-11.314-4.687h-48c-4.244 0-8.313 1.686-11.314 4.687l-24 24c-3 3.001-4.686 7.07-4.686 11.313v40c0 8.837 7.164 16 16 16h96c8.836 0 16-7.163 16-16v-40c0-4.243-1.686-8.312-4.686-11.313z" fill="#999"/><path d="m411.314 220.687-24-24c-3-3.001-7.07-4.687-11.314-4.687h-48c-4.244 0-8.313 1.686-11.314 4.687l-24 24c-3 3.001-4.686 7.07-4.686 11.313v40c0 8.837 7.164 16 16 16h96c8.836 0 16-7.163 16-16v-40c0-4.243-1.686-8.312-4.686-11.313z" fill="#999"/><circle cx="160" cy="160" fill="#6994ff" r="96"/><g fill="#4379ff"><path d="m160 256c-52.935 0-96-43.065-96-96s43.065-96 96-96 96 43.065 96 96-43.065 96-96 96zm0-160c-35.29 0-64 28.71-64 64s28.71 64 64 64 64-28.71 64-64-28.71-64-64-64z"/><path d="m159.986 256.001c-12.713 0-20.55-14.414-13.138-25.113 21.4-30.888 13.345-42.514 0-61.775-14.36-20.727-34.026-49.112 0-98.225 5.032-7.264 15-9.073 22.264-4.04s9.072 15.001 4.04 22.265c-21.4 30.888-13.345 42.514 0 61.775 14.359 20.727 34.025 49.112 0 98.225-3.107 4.483-8.095 6.888-13.166 6.888z"/><path d="m121.598 191.993c-14.039 0-30.641-4.938-50.709-18.841-7.264-5.033-9.072-15.001-4.04-22.265s15-9.073 22.264-4.04c30.888 21.399 42.515 13.346 61.776 0 20.726-14.358 49.112-34.024 98.224 0 7.264 5.033 9.072 15.001 4.04 22.265-5.032 7.263-15 9.071-22.264 4.04-30.889-21.399-42.515-13.346-61.776 0-12.258 8.492-27.199 18.841-47.515 18.841z"/></g><path d="m368 464h-232c-39.701 0-72-32.299-72-72v-104c0-8.837 7.164-16 16-16s16 7.163 16 16v104c0 22.056 17.944 40 40 40h232c8.836 0 16 7.163 16 16s-7.164 16-16 16z" fill="#ece2e2"/><path d="m496 432h-48c-8.836 0-16-7.163-16-16s7.164-16 16-16h48c8.836 0 16 7.163 16 16s-7.164 16-16 16z" fill="#bcbcbc"/><path d="m496 496h-48c-8.836 0-16-7.163-16-16s7.164-16 16-16h48c8.836 0 16 7.163 16 16s-7.164 16-16 16z" fill="#bcbcbc"/><path d="m464 400v96c0 8.84-7.16 16-16 16h-31c-26.47 0-48-21.53-48-48 0-.122.078 0-1 0v-32c.34 0 .67.03 1 .05 0-26.613 21.604-48.05 48-48.05h31c8.84 0 16 7.16 16 16z" fill="#999"/></svg>