<?xml version="1.0" encoding="UTF-8" standalone="no"?>
<!-- Generator: Adobe Illustrator 19.0.0, SVG Export Plug-In . SVG Version: 6.00 Build 0)  -->

<svg
   xmlns:dc="http://purl.org/dc/elements/1.1/"
   xmlns:cc="http://creativecommons.org/ns#"
   xmlns:rdf="http://www.w3.org/1999/02/22-rdf-syntax-ns#"
   xmlns:svg="http://www.w3.org/2000/svg"
   xmlns="http://www.w3.org/2000/svg"
   xmlns:sodipodi="http://sodipodi.sourceforge.net/DTD/sodipodi-0.dtd"
   xmlns:inkscape="http://www.inkscape.org/namespaces/inkscape"
   version="1.1"
   id="Layer_1"
   x="0px"
   y="0px"
   viewBox="0 0 501.551 501.551"
   style="enable-background:new 0 0 501.551 501.551;"
   xml:space="preserve"
   inkscape:version="0.48.5 r10040"
   width="100%"
   height="100%"
   sodipodi:docname="responsive.svg"><metadata
   id="metadata6995"><rdf:RDF><cc:Work
       rdf:about=""><dc:format>image/svg+xml</dc:format><dc:type
         rdf:resource="http://purl.org/dc/dcmitype/StillImage" /></cc:Work></rdf:RDF></metadata><defs
   id="defs6993" /><sodipodi:namedview
   pagecolor="#ffffff"
   bordercolor="#666666"
   borderopacity="1"
   objecttolerance="10"
   gridtolerance="10"
   guidetolerance="10"
   inkscape:pageopacity="0"
   inkscape:pageshadow="2"
   inkscape:window-width="1360"
   inkscape:window-height="705"
   id="namedview6991"
   showgrid="false"
   inkscape:zoom="1.3308892"
   inkscape:cx="526.56411"
   inkscape:cy="211.43721"
   inkscape:window-x="-8"
   inkscape:window-y="-8"
   inkscape:window-maximized="1"
   inkscape:current-layer="Layer_1" />



























<g
   id="g30505"><path
     id="path6931"
     d="M 480.653,80.457 H 20.898 C 9.404,80.457 0,89.861 0,101.355 V 409.6 c 0,11.494 9.404,20.898 20.898,20.898 h 459.755 c 11.494,0 20.898,-9.404 20.898,-20.898 V 101.355 c 0,-11.494 -9.404,-20.898 -20.898,-20.898 z"
     style="fill:#40596b"
     inkscape:connector-curvature="0" /><rect
     id="rect6933"
     height="257.04501"
     width="438.85699"
     style="fill:#ffffff"
     y="111.804"
     x="31.347" /><rect
     id="rect6935"
     height="56.424999"
     width="191.216"
     style="fill:#cdd6e0"
     y="431.543"
     x="154.645" /><rect
     id="rect6937"
     height="13.584"
     width="307.20001"
     style="fill:#f2f2f2"
     y="487.96701"
     x="97.176003" /><rect
     id="rect6939"
     height="15.673"
     width="191.216"
     style="fill:#acb3ba"
     y="431.543"
     x="154.645" /><path
     id="path6941"
     d="M 478.563,305.11 H 368.849 c -6.269,0 -10.449,4.18 -10.449,10.449 v 175.543 c 0,6.269 4.18,10.449 10.449,10.449 h 109.714 c 6.269,0 10.449,-4.18 10.449,-10.449 V 315.559 c 0,-5.224 -4.179,-10.449 -10.449,-10.449 z"
     style="fill:#334a5e"
     inkscape:connector-curvature="0" /><rect
     id="rect6943"
     height="133.74699"
     width="99.264999"
     style="fill:#ffffff"
     y="333.85501"
     x="374.38699" /><polygon
     id="polygon6945"
     points="473.339,467.069 374.073,467.069 473.339,333.322 "
     style="fill:#f2f2f2" /><g
     id="g6947">
	<path
   id="path6949"
   d="M 439.902,314.514 H 407.51 c -1.045,0 -2.09,1.045 -2.09,2.09 0,1.045 1.045,2.09 2.09,2.09 h 32.392 c 1.045,0 2.09,-1.045 2.09,-2.09 0,-1.045 -1.045,-2.09 -2.09,-2.09 z"
   style="fill:#4cdbc4"
   inkscape:connector-curvature="0" />
	<circle
   id="circle6951"
   r="7.3140001"
   cy="481.698"
   cx="423.18399"
   style="fill:#4cdbc4"
   sodipodi:cx="423.18399"
   sodipodi:cy="481.698"
   sodipodi:rx="7.3140001"
   sodipodi:ry="7.3140001" />
</g><ellipse
     id="ellipse6953"
     ry="12.539"
     rx="12.539"
     cy="400.19601"
     cx="250.776"
     style="fill:#f2f2f2"
     sodipodi:cx="250.776"
     sodipodi:cy="400.19601"
     sodipodi:rx="12.539"
     sodipodi:ry="12.539" /><path
     id="path6955"
     d="m 371.984,87.771 c 0,-2.09 0,-4.18 0,-6.269 C 371.984,36.571 335.412,0 290.482,0 c -26.122,0 -49.11,12.539 -64.784,31.347 -5.224,-1.045 -11.494,-2.09 -16.718,-2.09 -32.392,0 -59.559,22.988 -65.829,53.29 -19.853,4.18 -34.482,21.943 -34.482,43.886 0,25.078 19.853,44.931 44.931,44.931 h 195.396 c 25.078,0 44.931,-19.853 44.931,-44.931 -1.045,-16.719 -9.405,-30.302 -21.943,-38.662 z"
     style="fill:#84dbff"
     inkscape:connector-curvature="0" /><path
     id="path6957"
     d="m 351.086,194.351 v -33.437 l -16.718,-6.269 c -2.09,-7.314 -4.18,-13.584 -8.359,-19.853 l 7.314,-15.673 -24.033,-24.033 -15.673,7.314 c -6.269,-3.135 -12.539,-6.269 -19.853,-8.359 l -6.269,-16.718 h -33.437 l -6.269,16.718 c -7.314,2.09 -13.584,4.18 -19.853,8.359 l -15.673,-7.314 -24.033,24.033 7.314,15.673 c -3.135,6.269 -6.269,12.539 -8.359,19.853 l -16.718,6.269 v 33.437 l 16.718,6.269 c 2.09,7.314 4.18,13.584 8.359,19.853 l -7.314,15.673 24.033,24.033 15.673,-7.314 c 6.269,3.135 12.539,6.269 19.853,8.359 l 6.269,16.718 h 33.437 l 6.269,-16.718 c 7.314,-2.09 13.584,-4.18 19.853,-8.359 l 15.673,7.314 24.033,-24.033 -7.314,-15.673 c 3.135,-6.269 6.269,-12.539 8.359,-19.853 l 16.718,-6.269 z m -59.559,-16.718 c 0,22.988 -18.808,40.751 -40.751,40.751 -22.988,0 -40.751,-17.763 -40.751,-40.751 0,-22.988 18.808,-40.751 40.751,-40.751 22.987,0 40.751,17.763 40.751,40.751 z"
     style="fill:#40596b"
     inkscape:connector-curvature="0" /><path
     id="path6959"
     d="m 294.661,133.747 c -24.033,-24.033 -62.694,-24.033 -86.727,0 -24.033,24.033 -24.033,62.694 0,86.727 24.033,24.033 62.694,24.033 86.727,0 24.033,-22.988 24.033,-62.694 0,-86.727 z m -14.628,73.143 c -15.673,15.673 -41.796,15.673 -57.469,0 -15.673,-15.673 -15.673,-41.796 0,-57.469 15.673,-15.673 41.796,-15.673 57.469,0 15.673,15.673 15.673,40.75 0,57.469 z"
     style="fill:#ff7058"
     inkscape:connector-curvature="0" /><g
     id="g6961">
</g><g
     id="g6963">
</g><g
     id="g6965">
</g><g
     id="g6967">
</g><g
     id="g6969">
</g><g
     id="g6971">
</g><g
     id="g6973">
</g><g
     id="g6975">
</g><g
     id="g6977">
</g><g
     id="g6979">
</g><g
     id="g6981">
</g><g
     id="g6983">
</g><g
     id="g6985">
</g><g
     id="g6987">
</g><g
     id="g6989">
</g></g>
</svg>