<?xml version="1.0" encoding="UTF-8" standalone="no"?>
<!-- Generator: Adobe Illustrator 19.0.0, SVG Export Plug-In . SVG Version: 6.00 Build 0)  -->

<svg
   xmlns:dc="http://purl.org/dc/elements/1.1/"
   xmlns:cc="http://creativecommons.org/ns#"
   xmlns:rdf="http://www.w3.org/1999/02/22-rdf-syntax-ns#"
   xmlns:svg="http://www.w3.org/2000/svg"
   xmlns="http://www.w3.org/2000/svg"
   xmlns:sodipodi="http://sodipodi.sourceforge.net/DTD/sodipodi-0.dtd"
   xmlns:inkscape="http://www.inkscape.org/namespaces/inkscape"
   version="1.1"
   id="Capa_1"
   x="0px"
   y="0px"
   viewBox="0 0 464 464"
   style="enable-background:new 0 0 464 464;"
   xml:space="preserve"
   inkscape:version="0.48.5 r10040"
   width="100%"
   height="100%"
   sodipodi:docname="router.svg"><metadata
   id="metadata3986"><rdf:RDF><cc:Work
       rdf:about=""><dc:format>image/svg+xml</dc:format><dc:type
         rdf:resource="http://purl.org/dc/dcmitype/StillImage" /></cc:Work></rdf:RDF></metadata><defs
   id="defs3984" /><sodipodi:namedview
   pagecolor="#ffffff"
   bordercolor="#666666"
   borderopacity="1"
   objecttolerance="10"
   gridtolerance="10"
   guidetolerance="10"
   inkscape:pageopacity="0"
   inkscape:pageshadow="2"
   inkscape:window-width="640"
   inkscape:window-height="480"
   id="namedview3982"
   showgrid="false"
   inkscape:zoom="0.50862069"
   inkscape:cx="232"
   inkscape:cy="232"
   inkscape:window-x="0"
   inkscape:window-y="0"
   inkscape:window-maximized="0"
   inkscape:current-layer="Capa_1" />





















<g
   id="g3988"><g
     id="g3910">
	<path
   id="path3912"
   d="M400,406.211h32v40h-32V406.211z"
   style="fill:#A8A8A8;" />
	<path
   id="path3914"
   d="M32,406.211h32v40H32V406.211z"
   style="fill:#A8A8A8;" />
</g><path
     id="path3916"
     d="M32,302.211h400c17.673,0,32,14.327,32,32v48c0,17.673-14.327,32-32,32H32c-17.673,0-32-14.327-32-32  v-48C0,316.538,14.327,302.211,32,302.211z"
     style="fill:#DBDBDB;" /><path
     id="path3918"
     d="M32,334.211h112v48H32V334.211z"
     style="fill:#F9E0A0;" /><g
     id="g3920">
	<circle
   id="circle3922"
   r="16"
   cy="358.211"
   cx="336"
   style="fill:#69B0BB;" />
	<circle
   id="circle3924"
   r="16"
   cy="358.211"
   cx="400"
   style="fill:#69B0BB;" />
</g><path
     id="path3926"
     d="M208,262.211h48v40h-48V262.211z"
     style="fill:#3B869E;" /><g
     id="g3928">
	<path
   id="path3930"
   d="M256,270.211h-48v-168c0-13.255,10.745-24,24-24c13.255,0,24,10.745,24,24V270.211z"
   style="fill:#69B0BB;" />
	<path
   id="path3932"
   d="M272,374.211c-8.837,0-16-7.163-16-16s7.163-16,16-16s16,7.163,16,16"
   style="fill:#69B0BB;" />
	<path
   id="path3934"
   d="M288,358.211c0,8.837-7.163,16-16,16"
   style="fill:#69B0BB;" />
	<path
   id="path3936"
   d="M208,374.211c-8.837,0-16-7.163-16-16s7.163-16,16-16s16,7.163,16,16S216.837,374.211,208,374.211"
   style="fill:#69B0BB;" />
</g><g
     id="g3938">
	<path
   id="path3940"
   d="M120.128,135.011c-2.144-0.005-4.196-0.869-5.696-2.4c-24.793-25.112-24.535-65.567,0.576-90.361   c0.013-0.013,0.027-0.026,0.04-0.039c3.317-2.919,8.372-2.596,11.291,0.721c2.693,3.06,2.654,7.656-0.091,10.671   c-18.842,18.56-19.07,48.88-0.509,67.722c0.018,0.018,0.036,0.036,0.053,0.054c3.093,3.155,3.042,8.22-0.113,11.313   c-1.491,1.462-3.495,2.282-5.583,2.287L120.128,135.011z"
   style="fill:#F9E0A0;" />
	<path
   id="path3942"
   d="M74.008,158.211c-2.099-0.009-4.11-0.842-5.6-2.32C30.79,118.55,30.554,57.787,67.88,20.155   c3.288-2.952,8.346-2.679,11.297,0.608c2.721,3.031,2.731,7.622,0.023,10.664c-31.101,31.357-30.908,81.985,0.432,113.104   c3.137,3.111,3.158,8.177,0.047,11.314c-1.494,1.506-3.525,2.357-5.647,2.366H74.008z"
   style="fill:#F9E0A0;" />
	<path
   id="path3944"
   d="M167.096,112.795c-2.1-0.001-4.114-0.835-5.6-2.32c-12.546-12.448-12.625-32.709-0.177-45.254   c0.001-0.001,0.001-0.001,0.001-0.002c3.113-3.137,8.179-3.157,11.316-0.044c3.137,3.113,3.157,8.179,0.044,11.316   c-6.228,6.269-6.194,16.4,0.075,22.627c0.002,0.002,0.003,0.003,0.005,0.005c3.133,3.116,3.146,8.181,0.031,11.314   c-1.491,1.499-3.516,2.347-5.631,2.358H167.096z"
   style="fill:#F9E0A0;" />
	<path
   id="path3946"
   d="M343.872,135.011c-4.418-0.009-7.992-3.599-7.983-8.017c0.004-2.088,0.825-4.092,2.287-5.583   c18.59-18.812,18.41-49.133-0.402-67.723c-0.018-0.018-0.036-0.036-0.054-0.053c-3.317-2.919-3.64-7.974-0.721-11.291   c2.919-3.317,7.974-3.64,11.291-0.721c0.221,0.195,0.432,0.402,0.631,0.62c25.133,24.771,25.427,65.227,0.655,90.36   c-0.013,0.013-0.026,0.027-0.039,0.04C348.038,134.154,346,135.006,343.872,135.011z"
   style="fill:#F9E0A0;" />
	<path
   id="path3948"
   d="M389.992,158.211c-4.418-0.019-7.985-3.615-7.966-8.033c0.009-2.121,0.86-4.153,2.366-5.647   c31.333-31.125,31.515-81.753,0.408-113.104c-3.113-3.137-3.093-8.203,0.044-11.316c3.137-3.113,8.203-3.093,11.316,0.044l0,0   c37.326,37.633,37.09,98.395-0.528,135.736C394.132,157.379,392.105,158.213,389.992,158.211L389.992,158.211z"
   style="fill:#F9E0A0;" />
	<path
   id="path3950"
   d="M296.904,112.795c-4.418-0.023-7.981-3.623-7.958-8.041c0.011-2.115,0.859-4.139,2.358-5.631   c6.272-6.225,6.31-16.356,0.085-22.627c-0.002-0.002-0.003-0.003-0.005-0.005c-3.113-3.137-3.093-8.203,0.044-11.316   c3.137-3.113,8.203-3.093,11.316,0.044c12.449,12.545,12.37,32.806-0.174,45.255c-0.001,0.001-0.001,0.001-0.002,0.001   C301.067,111.975,299.026,112.811,296.904,112.795L296.904,112.795z"
   style="fill:#F9E0A0;" />
</g><g
     id="g3952">
</g><g
     id="g3954">
</g><g
     id="g3956">
</g><g
     id="g3958">
</g><g
     id="g3960">
</g><g
     id="g3962">
</g><g
     id="g3964">
</g><g
     id="g3966">
</g><g
     id="g3968">
</g><g
     id="g3970">
</g><g
     id="g3972">
</g><g
     id="g3974">
</g><g
     id="g3976">
</g><g
     id="g3978">
</g><g
     id="g3980">
</g></g>
</svg>