<?xml version="1.0" encoding="UTF-8" standalone="no"?>
<svg
   xmlns:dc="http://purl.org/dc/elements/1.1/"
   xmlns:cc="http://creativecommons.org/ns#"
   xmlns:rdf="http://www.w3.org/1999/02/22-rdf-syntax-ns#"
   xmlns:svg="http://www.w3.org/2000/svg"
   xmlns="http://www.w3.org/2000/svg"
   xmlns:sodipodi="http://sodipodi.sourceforge.net/DTD/sodipodi-0.dtd"
   xmlns:inkscape="http://www.inkscape.org/namespaces/inkscape"
   height="512pt"
   viewBox="0 0 512.00001 512"
   width="512pt"
   id="svg11562"
   version="1.1"
   inkscape:version="0.48.5 r10040"
   sodipodi:docname="sea-level.svg">
  <metadata
     id="metadata11586">
    <rdf:RDF>
      <cc:Work
         rdf:about="">
        <dc:format>image/svg+xml</dc:format>
        <dc:type
           rdf:resource="http://purl.org/dc/dcmitype/StillImage" />
      </cc:Work>
    </rdf:RDF>
  </metadata>
  <defs
     id="defs11584" />
  <sodipodi:namedview
     pagecolor="#ffffff"
     bordercolor="#666666"
     borderopacity="1"
     objecttolerance="10"
     gridtolerance="10"
     guidetolerance="10"
     inkscape:pageopacity="0"
     inkscape:pageshadow="2"
     inkscape:window-width="640"
     inkscape:window-height="479"
     id="namedview11582"
     showgrid="false"
     inkscape:zoom="0.36875"
     inkscape:cx="320"
     inkscape:cy="320"
     inkscape:window-x="0"
     inkscape:window-y="1"
     inkscape:window-maximized="0"
     inkscape:current-layer="svg11562" />
  <g
     id="g11588">
    <path
       id="path11564"
       fill="#d9e7ec"
       d="m135.988281 129.988281c0-66.164062 53.824219-119.988281 119.988281-119.988281 66.160157 0 119.988282 53.824219 119.988282 119.988281 0 65.949219-53.613282 119.988281-119.988282 119.988281-66.425781 0-119.988281-54.085937-119.988281-119.988281zm0 0" />
    <path
       id="path11566"
       fill="#a8ebfa"
       d="m255.976562 209.980469c-44.105468 0-79.992187-35.878907-79.992187-79.992188 0-44.117187 35.886719-79.992187 79.992187-79.992187 44.105469 0 79.992188 35.875 79.992188 79.992187 0 44.113281-35.886719 79.992188-79.992188 79.992188zm0 0" />
    <path
       id="path11568"
       fill="#50536e"
       d="m225.976562 246.1875v134.636719c.171876.148437.339844.296875.5.449219 18 16.417968 41.398438 16.566406 59.496094.449218v-135.535156zm0 0" />
    <path
       id="path11570"
       fill="#50536e"
       d="m275.972656 129.988281c0 11.042969-8.953125 19.996094-19.996094 19.996094-11.046874 0-20-8.953125-20-19.996094 0-11.046875 8.953126-20 20-20 11.042969 0 19.996094 8.953125 19.996094 20zm0 0" />
    <path
       id="path11572"
       fill="#a8ebfa"
       d="m472.453125 381.273438c-18.167969-16.570313-44.824219-16.570313-62.992187 0-18.167969 16.566406-44.828126 16.566406-62.996094 0-18.167969-16.570313-41.824219-16.570313-59.992188 0-.160156.148437-.332031.300781-.5.449218-18.097656 16.117188-41.496094 15.96875-59.496094-.449218-.160156-.152344-.328124-.300782-.5-.449219-18.097656-16.121094-41.496093-15.96875-59.492187.449219-18.167969 16.566406-44.828125 16.566406-62.996094 0-18.167969-16.570313-44.824219-16.570313-62.992187 0-9.21875 8.410156-19.859375 12.546874-30.476563 12.417968l-.019531 68.253906c-.011719 22.097657 17.90625 40.003907 40.003906 40.003907h411.972656c22.085938 0 39.964844-17.886719 39.972657-39.972657l.050781-68.285156c-10.308594-.109375-20.585938-4.25-29.546875-12.417968zm0 0" />
    <path
       id="path11574"
       d="m165.984375 461.953125c0 5.523437-4.476563 10-10 10s-10-4.476563-10-10c0-5.519531 4.476563-9.996094 10-9.996094s10 4.476563 10 9.996094zm0 0" />
    <path
       id="path11576"
       d="m502.109375 383.695312c-8.050781-.089843-15.976563-3.480468-22.917969-9.8125-21.992187-20.058593-54.507812-20.027343-76.46875 0-14.347656 13.082032-35.171875 13.082032-49.519531 0-16.898437-15.410156-38.265625-18.957031-57.230469-10.65625v-109.542968c53.359375-17.238282 89.992188-67.03125 89.992188-123.695313 0-71.675781-58.3125-129.988281-129.988282-129.988281-71.675781 0-129.988281 58.3125-129.988281 129.988281 0 56.664063 36.625 106.453125 89.992188 123.695313v109.132812c-18.722657-7.730468-39.679688-4.03125-56.234375 11.066406-14.34375 13.085938-35.171875 13.085938-49.515625 0-21.957031-20.019531-54.46875-20.0625-76.472657.003907-7.042968 6.421875-15.074218 9.808593-23.253906 9.808593-.121094 0-.242187 0-.359375 0-2.644531-.074218-5.246093 1.003907-7.148437 2.882813s-2.9726565 4.4375-2.9726565 7.113281l-.0234375 68.25c-.0078125 13.359375 5.195312 25.917969 14.640625 35.363282 9.445313 9.445312 22.003906 14.644531 35.363281 14.644531h411.972656c27.542969 0 49.960938-22.417969 49.972657-49.96875l.050781-68.28125c.003906-5.484375-4.410156-9.945313-9.890625-10.003907zm-266.132813-125.265624c6.601563 1.023437 13.292969 1.542968 20 1.542968 6.707032 0 13.394532-.519531 19.996094-1.542968v118.519531c-12.667968 9.21875-27.457031 8.964843-39.996094-.742188zm-89.992187-128.441407c0-60.648437 49.34375-109.988281 109.992187-109.988281 60.648438 0 109.988282 49.339844 109.988282 109.988281 0 63.640625-53.027344 111.679688-112.988282 109.992188-59.546874-1.679688-106.992187-50.417969-106.992187-109.992188zm345.96875 331.980469c-.007813 16.535156-13.457031 29.984375-29.976563 29.984375h-411.972656c-8.015625 0-15.554687-3.121094-21.222656-8.789063-5.667969-5.667968-8.789062-13.199218-8.78125-21.214843l.015625-59.160157c9.773437-1.878906 19.039063-6.667968 27.21875-14.128906 14.347656-13.085937 35.171875-13.082031 49.519531 0 21.953125 20.019532 54.464844 20.066406 76.46875 0 13.648438-12.453125 30.539063-13.039062 44.550782-1.683594.949218 1.367188 2.234374 2.476563 3.738281 3.230469 22.585937 19.160157 51.628906 17.128907 71.742187-1.585937 14.339844-13.042969 32.144532-13.03125 46.476563.039062 21.996093 20.0625 54.507812 20.027344 76.46875 0 14.347656-13.085937 35.171875-13.082031 49.519531 0 7.902344 7.210938 16.847656 11.933594 26.277344 13.933594zm0 0" />
    <path
       id="path11578"
       d="m345.964844 129.988281c0-49.621093-40.367188-89.992187-89.988282-89.992187-49.621093 0-89.992187 40.371094-89.992187 89.992187 0 49.621094 40.371094 89.992188 89.992187 89.992188 49.621094 0 89.988282-40.371094 89.988282-89.992188zm-89.988282 10c-5.515624 0-10-4.488281-10-10 0-5.515625 4.484376-10 10-10 5.511719 0 9.996094 4.484375 9.996094 10 0 5.511719-4.484375 10-9.996094 10zm-69.996093-10c0-38.59375 31.398437-69.992187 69.996093-69.992187 38.59375 0 69.992188 31.398437 69.992188 69.992187 0 35.199219-26.121094 64.398438-59.996094 69.265625v-40.992187c11.640625-4.125 20-15.238281 20-28.277344 0-16.539063-13.457031-29.996094-29.996094-29.996094-16.542968 0-30 13.457031-30 29.996094 0 13.035156 8.363282 24.152344 20 28.277344v40.992187c-33.875-4.867187-59.996093-34.066406-59.996093-69.265625zm0 0" />
    <path
       id="path11580"
       d="m355.984375 451.957031h-160.003906c-5.523438 0-10 4.476563-10 9.996094 0 5.523437 4.476562 10 10 10h160.003906c5.523437 0 10-4.476563 10-10 0-5.519531-4.476563-9.996094-10-9.996094zm0 0" />
  </g>
</svg>
