<?xml version="1.0" encoding="UTF-8" standalone="no"?>
<svg
   xmlns:dc="http://purl.org/dc/elements/1.1/"
   xmlns:cc="http://creativecommons.org/ns#"
   xmlns:rdf="http://www.w3.org/1999/02/22-rdf-syntax-ns#"
   xmlns:svg="http://www.w3.org/2000/svg"
   xmlns="http://www.w3.org/2000/svg"
   xmlns:sodipodi="http://sodipodi.sourceforge.net/DTD/sodipodi-0.dtd"
   xmlns:inkscape="http://www.inkscape.org/namespaces/inkscape"
   height="511pt"
   viewBox="0 -53 511.99899 511"
   width="511pt"
   id="svg28782"
   version="1.1"
   inkscape:version="0.48.5 r10040"
   sodipodi:docname="security-camera.svg">
  <metadata
     id="metadata28820">
    <rdf:RDF>
      <cc:Work
         rdf:about="">
        <dc:format>image/svg+xml</dc:format>
        <dc:type
           rdf:resource="http://purl.org/dc/dcmitype/StillImage" />
      </cc:Work>
    </rdf:RDF>
  </metadata>
  <defs
     id="defs28818" />
  <sodipodi:namedview
     pagecolor="#ffffff"
     bordercolor="#666666"
     borderopacity="1"
     objecttolerance="10"
     gridtolerance="10"
     guidetolerance="10"
     inkscape:pageopacity="0"
     inkscape:pageshadow="2"
     inkscape:window-width="640"
     inkscape:window-height="480"
     id="namedview28816"
     showgrid="false"
     inkscape:zoom="0.36947162"
     inkscape:cx="319.375"
     inkscape:cy="319.375"
     inkscape:window-x="0"
     inkscape:window-y="0"
     inkscape:window-maximized="0"
     inkscape:current-layer="svg28782" />
  <g
     id="g28840">
    <path
       id="path28784"
       fill="#a6b6c4"
       d="m171.910156 374.703125c-49.605468-28.945313-82.925781-82.742187-82.925781-144.320313v-71.757812h334.03125v71.757812c0 46.128907-18.695313 87.882813-48.921875 118.097657-10.128906 10.132812-21.546875 18.96875-34.003906 26.222656zm0 0" />
    <path
       id="path28786"
       fill="#7a8fa4"
       d="m128.984375 230.382812v-71.757812h-40v71.757812c0 44.257813 17.210937 84.496094 45.3125 114.378907 10.800781 11.484375 23.75 21.855469 37.609375 29.941406h40.003906c-49.605468-28.945313-82.925781-82.742187-82.925781-144.320313zm0 0" />
    <path
       id="path28788"
       fill="#7292df"
       d="m340.09375 310.253906v64.449219c-24.699219 14.4375-53.4375 22.699219-84.09375 22.699219s-59.394531-8.261719-84.09375-22.699219v-64.449219c0-46.4375 37.644531-84.09375 84.09375-84.09375s84.09375 37.65625 84.09375 84.09375zm0 0" />
    <path
       id="path28790"
       fill="#ebebeb"
       d="m304.550781 310.253906c0 26.769532-21.777343 48.550782-48.550781 48.550782s-48.554688-21.777344-48.554688-48.550782c0-26.773437 21.78125-48.554687 48.554688-48.554687s48.550781 21.78125 48.550781 48.554687zm0 0" />
    <path
       id="path28792"
       fill="#fd5f7e"
       d="m274.511719 310.253906c0 10.222656-8.285157 18.511719-18.511719 18.511719-10.222656 0-18.511719-8.289063-18.511719-18.511719s8.289063-18.511718 18.511719-18.511718c10.226562 0 18.511719 8.289062 18.511719 18.511718zm0 0" />
    <path
       id="path28794"
       fill="#ebebeb"
       d="m482.902344 8.003906h-453.804688c-12.914062 0-22.9375 11.25-21.457031 24.082032 1.203125 10.433593 3.410156 23.570312 7.433594 38.003906l240.925781 54.320312 240.925781-54.320312c4.023438-14.433594 6.226563-27.570313 7.433594-38.003906 1.480469-12.832032-8.542969-24.082032-21.457031-24.082032zm0 0" />
    <path
       id="path28796"
       fill="#d5d4da"
       d="m55.074219 70.089844c-4.019531-14.433594-6.226563-27.570313-7.429688-38.007813-1.484375-12.828125 8.539063-24.078125 21.457031-24.078125h-40c-12.917968 0-22.9375 11.25-21.460937 24.082032 1.207031 10.433593 3.410156 23.570312 7.433594 38.003906l240.925781 54.320312 20-4.507812zm0 0" />
    <path
       id="path28798"
       fill="#7292df"
       d="m496.925781 70.089844c-9.820312 35.3125-30.496093 78.382812-73.910156 108.636718h-334.03125c-43.414063-30.253906-64.089844-73.324218-73.910156-108.636718zm0 0" />
    <path
       id="path28800"
       fill="#4677d4"
       d="m55.074219 70.089844h-40c9.820312 35.3125 30.496093 78.382812 73.910156 108.636718h40c-43.414063-30.253906-64.089844-73.324218-73.910156-108.636718zm0 0" />
    <path
       id="path28802"
       fill="#4677d4"
       d="m261.277344 397.320312c4.917968-.152343 9.832031-.546874 14.722656-1.128906-23.144531-2.761718-44.847656-10.242187-64.089844-21.488281-14.980468-8.742187-28.460937-19.761719-40-32.5625v32.5625c1.542969.902344 3.101563 1.78125 4.675782 2.632813 23.617187 12.804687 50.671874 20.066406 79.414062 20.066406 1.757812 0 3.515625-.027344 5.277344-.082032zm0 0" />
    <path
       id="path28804"
       d="m157.519531 128.921875c4.144531 0 7.503907-3.359375 7.503907-7.5v-17.824219c0-4.140625-3.359376-7.5-7.503907-7.5-4.140625 0-7.5 3.359375-7.5 7.5v17.824219c0 4.140625 3.359375 7.5 7.5 7.5zm0 0" />
    <path
       id="path28806"
       d="m354.480469 128.921875c4.140625 0 7.5-3.359375 7.5-7.5v-17.824219c0-4.140625-3.359375-7.5-7.5-7.5s-7.5 3.359375-7.5 7.5v17.824219c0 4.140625 3.359375 7.5 7.5 7.5zm0 0" />
    <path
       id="path28808"
       d="m256 138.4375c11.636719 0 22.554688-4.855469 29.953125-13.316406 2.726563-3.121094 2.40625-7.859375-.710937-10.585938-3.117188-2.726562-7.855469-2.40625-10.582032.710938-4.550781 5.203125-11.351562 8.1875-18.660156 8.1875s-14.109375-2.984375-18.660156-8.1875c-2.722656-3.117188-7.460938-3.4375-10.582032-.710938-3.117187 2.726563-3.4375 7.464844-.710937 10.582032 7.398437 8.464843 18.316406 13.320312 29.953125 13.320312zm0 0" />
    <path
       id="path28810"
       d="m256 254.199219c-30.90625 0-56.050781 25.148437-56.050781 56.054687s25.144531 56.050782 56.050781 56.050782c30.910156 0 56.054688-25.144532 56.054688-56.050782-.003907-30.90625-25.144532-56.054687-56.054688-56.054687zm0 97.105469c-22.636719 0-41.050781-18.414063-41.050781-41.050782 0-22.636718 18.414062-41.054687 41.050781-41.054687s41.054688 18.417969 41.054688 41.054687c-.003907 22.636719-18.417969 41.050782-41.054688 41.050782zm0 0" />
    <path
       id="path28812"
       d="m256 284.242188c-14.34375 0-26.011719 11.667968-26.011719 26.011718s11.667969 26.011719 26.011719 26.011719 26.011719-11.667969 26.011719-26.011719-11.667969-26.011718-26.011719-26.011718zm0 37.023437c-6.070312 0-11.011719-4.941406-11.011719-11.011719 0-6.070312 4.941407-11.011718 11.011719-11.011718 6.074219 0 11.011719 4.941406 11.011719 11.011718 0 6.070313-4.9375 11.011719-11.011719 11.011719zm0 0" />
    <path
       id="path28814"
       d="m81.484375 182.574219v47.808593c0 31.058594 8.261719 61.554688 23.890625 88.191407 15.167969 25.851562 36.867188 47.5 62.75 62.605469.003906 0 .003906.003906.003906.003906 26.550782 15.515625 56.9375 23.714844 87.871094 23.714844s61.316406-8.199219 87.863281-23.714844h.003907c.003906 0 .003906 0 .003906-.003906h.003906s.003906-.003907.003906-.003907c12.925782-7.53125 24.875-16.75 35.519532-27.390625 32.964843-32.957031 51.117187-76.78125 51.117187-123.402344v-47.8125c44.375-32.371093 64.535156-77.742187 73.636719-110.472656 0 0 0 0 0-.003906 3.554687-12.753906 6.128906-25.929688 7.65625-39.152344.949218-8.238281-1.667969-16.515625-7.183594-22.703125-5.515625-6.191406-13.433594-9.738281-21.726562-9.738281h-339.125c-4.140626 0-7.5 3.359375-7.5 7.5s3.359374 7.5 7.5 7.5h339.128906c4.078125 0 7.816406 1.675781 10.523437 4.714844 2.714844 3.046875 3.949219 6.953125 3.480469 11.007812-1.21875 10.5625-3.148438 21.085938-5.746094 31.367188h-470.320312c-2.597656-10.28125-4.527344-20.808594-5.746094-31.367188-.46875-4.054687.769531-7.960937 3.480469-11.007812 2.710937-3.039063 6.449219-4.714844 10.523437-4.714844h84.675782c4.140624 0 7.5-3.359375 7.5-7.5s-3.359376-7.5-7.5-7.5h-84.671876c-8.292968 0-16.210937 3.546875-21.726562 9.738281-5.515625 6.1875-8.132812 14.464844-7.183594 22.703125 1.527344 13.222656 4.101563 26.398438 7.65625 39.152344v.003906c9.101563 32.734375 29.261719 78.101563 73.636719 110.476563zm287.308594 160.601562c-6.558594 6.558594-13.65625 12.523438-21.199219 17.820313v-50.742188c0-8.003906-1.058594-15.996094-3.132812-23.726562-2.46875-9.214844-6.375-18.027344-11.644532-26.132813-2.257812-3.472656-6.902344-4.457031-10.375-2.199219-3.324218 2.160157-4.441406 6.933594-2.199218 10.375 3.535156 5.4375 6.519531 11.648438 8.578124 17.949219 2.496094 7.648438 3.773438 15.6875 3.773438 23.734375v60.082032c-23.359375 12.8125-49.75 19.566406-76.59375 19.566406s-53.230469-6.753906-76.589844-19.566406v-60.082032c0-7.917968 1.207032-15.558594 3.449219-22.75 9.335937-29.960937 36.617187-52.082031 69.207031-53.742187 17.707032-.898438 35.359375 4.410156 49.59375 15 3.324219 2.46875 8.019532 1.777343 10.492188-1.542969 2.378906-3.195312 1.789062-8.019531-1.539063-10.496094-15.683593-11.660156-35.074219-18.058594-54.613281-18.058594-50.503906 0-91.589844 41.085938-91.589844 91.589844v50.738282c-18.707031-13.144532-34.492187-30.230469-46.097656-50.007813-14.28125-24.339844-21.828125-52.210937-21.828125-80.601563v-44.152343h319.035156v44.152343c0 42.617188-16.59375 82.671876-46.726562 112.792969zm118.035156-265.585937c-9.652344 29.535156-28.710937 66.730468-66.195313 93.636718h-329.265624c-37.484376-26.90625-56.539063-64.101562-66.195313-93.636718zm0 0" />
  </g>
</svg>
