<?xml version="1.0" encoding="iso-8859-1"?>
<!-- Generator: Adobe Illustrator 19.0.0, SVG Export Plug-In . SVG Version: 6.00 Build 0)  -->
<svg version="1.1" id="Capa_1" xmlns="http://www.w3.org/2000/svg" xmlns:xlink="http://www.w3.org/1999/xlink" x="0px" y="0px"
	 viewBox="0 0 512.05 512.05" style="enable-background:new 0 0 512.05 512.05;" xml:space="preserve">
<g transform="translate(0 -1)">
	<circle style="fill:#E3E7F2;" cx="256" cy="274.157" r="25.6"/>
	<g>
		<path style="fill:#428DFF;" d="M256.027,308.29c-18.851,0-34.133-15.282-34.133-34.133s15.282-34.133,34.133-34.133
			s34.133,15.282,34.133,34.133C290.14,293,274.87,308.27,256.027,308.29L256.027,308.29z M256.027,257.09
			c-9.426,0-17.067,7.641-17.067,17.067c0,9.426,7.641,17.067,17.067,17.067s17.067-7.641,17.067-17.067
			C273.083,264.736,265.448,257.101,256.027,257.09z"/>
		<path style="fill:#428DFF;" d="M290.635,341.44c-3.848,0.006-7.223-2.564-8.241-6.274c-1.018-3.711,0.574-7.643,3.887-9.601
			c23.24-13.651,34.459-41.174,27.385-67.182c-7.073-26.008-30.687-44.057-57.64-44.057c-26.952,0-50.566,18.049-57.64,44.057
			c-7.073,26.008,4.146,53.531,27.385,67.182c2.632,1.548,4.237,4.385,4.206,7.439c-0.03,3.054-1.69,5.858-4.353,7.354
			c-2.663,1.496-5.922,1.454-8.545-0.109c-29.858-17.568-44.259-52.95-35.155-86.375c9.104-33.425,39.458-56.618,74.101-56.618
			s64.997,23.193,74.101,56.618c9.104,33.425-5.297,68.807-35.155,86.375C293.66,341.029,292.162,341.441,290.635,341.44
			L290.635,341.44z"/>
		<path style="fill:#428DFF;" d="M130.435,495.907c-1.523-0.001-3.018-0.409-4.329-1.183
			C26.623,436.131-21.33,318.199,9.035,206.808S140.569,18.136,256.025,18.136s216.624,77.281,246.989,188.672
			c30.365,111.391-17.588,229.323-117.071,287.916c-2.626,1.554-5.883,1.588-8.54,0.089c-2.658-1.499-4.313-4.304-4.341-7.356
			c-0.028-3.052,1.576-5.886,4.206-7.433c92.855-54.682,137.616-164.751,109.278-268.717S363.784,35.209,256.025,35.209
			S53.842,107.34,25.503,211.307s16.423,214.036,109.278,268.717c3.316,1.955,4.913,5.889,3.897,9.602
			C137.662,493.34,134.285,495.913,130.435,495.907z"/>
		<path style="fill:#428DFF;" d="M160.785,444.382c-1.525,0-3.023-0.411-4.333-1.192C80.169,398.279,43.391,307.863,66.665,222.456
			S167.505,77.792,256.027,77.792s166.087,59.257,189.361,144.664s-13.504,175.824-89.786,220.734
			c-4.055,2.398-9.285,1.055-11.683-3c-2.398-4.055-1.055-9.285,3-11.683c69.66-40.997,103.253-123.554,82.007-201.541
			S336.856,94.868,256.027,94.868S104.373,148.979,83.128,226.966s12.347,160.544,82.007,201.541
			c3.311,1.957,4.903,5.889,3.887,9.599C168.005,441.816,164.632,444.386,160.785,444.382L160.785,444.382z"/>
		<path style="fill:#428DFF;" d="M320.91,392.84c-3.846,0.004-7.219-2.566-8.237-6.275c-1.017-3.709,0.573-7.641,3.883-9.6
			c46.468-27.31,68.894-82.353,54.742-134.36s-61.375-88.099-115.274-88.099s-101.122,36.091-115.274,88.099
			s8.275,107.051,54.742,134.36c4.055,2.4,5.396,7.633,2.996,11.687c-2.4,4.055-7.633,5.396-11.687,2.996
			c-53.089-31.227-78.698-94.131-62.516-153.558c16.182-59.428,70.148-100.664,131.739-100.664s115.557,41.236,131.739,100.664
			s-9.428,122.332-62.516,153.558C323.935,392.429,322.437,392.84,320.91,392.84z"/>
	</g>
</g>
<g>
</g>
<g>
</g>
<g>
</g>
<g>
</g>
<g>
</g>
<g>
</g>
<g>
</g>
<g>
</g>
<g>
</g>
<g>
</g>
<g>
</g>
<g>
</g>
<g>
</g>
<g>
</g>
<g>
</g>
</svg>
