<?xml version="1.0" encoding="UTF-8" standalone="no"?>
<!-- Generator: Adobe Illustrator 19.0.0, SVG Export Plug-In . SVG Version: 6.00 Build 0)  -->

<svg
   xmlns:dc="http://purl.org/dc/elements/1.1/"
   xmlns:cc="http://creativecommons.org/ns#"
   xmlns:rdf="http://www.w3.org/1999/02/22-rdf-syntax-ns#"
   xmlns:svg="http://www.w3.org/2000/svg"
   xmlns="http://www.w3.org/2000/svg"
   xmlns:sodipodi="http://sodipodi.sourceforge.net/DTD/sodipodi-0.dtd"
   xmlns:inkscape="http://www.inkscape.org/namespaces/inkscape"
   version="1.1"
   id="Capa_1"
   x="0px"
   y="0px"
   viewBox="0 0 59 59"
   style="enable-background:new 0 0 59 59;"
   xml:space="preserve"
   inkscape:version="0.48.5 r10040"
   width="100%"
   height="100%"
   sodipodi:docname="siren.svg"><metadata
   id="metadata10447"><rdf:RDF><cc:Work
       rdf:about=""><dc:format>image/svg+xml</dc:format><dc:type
         rdf:resource="http://purl.org/dc/dcmitype/StillImage" /></cc:Work></rdf:RDF></metadata><defs
   id="defs10445" /><sodipodi:namedview
   pagecolor="#ffffff"
   bordercolor="#666666"
   borderopacity="1"
   objecttolerance="10"
   gridtolerance="10"
   guidetolerance="10"
   inkscape:pageopacity="0"
   inkscape:pageshadow="2"
   inkscape:window-width="640"
   inkscape:window-height="480"
   id="namedview10443"
   showgrid="false"
   inkscape:zoom="4"
   inkscape:cx="29.5"
   inkscape:cy="29.5"
   inkscape:window-x="0"
   inkscape:window-y="0"
   inkscape:window-maximized="0"
   inkscape:current-layer="Capa_1" />



















<g
   id="g10449"><path
     id="path10389"
     d="M47.5,47h-34V25c0-9.389,7.611-17,17-17h0c9.389,0,17,7.611,17,17V47z"
     style="fill:#E64C3C;" /><rect
     id="rect10391"
     height="12"
     width="40"
     style="fill:#556080;"
     y="47"
     x="10.5" /><g
     id="g10393">
	<path
   id="path10395"
   d="M48.793,4.293l-3,3c-0.391,0.391-0.391,1.023,0,1.414C45.988,8.902,46.244,9,46.5,9   s0.512-0.098,0.707-0.293l3-3c0.391-0.391,0.391-1.023,0-1.414S49.184,3.902,48.793,4.293z"
   style="fill:#F0C419;" />
	<path
   id="path10397"
   d="M29.5,0c-0.553,0-1,0.447-1,1v3c0,0.553,0.447,1,1,1s1-0.447,1-1V1C30.5,0.447,30.053,0,29.5,0z"
   style="fill:#F0C419;" />
	<path
   id="path10399"
   d="M52.5,24h3c0.553,0,1-0.447,1-1s-0.447-1-1-1h-3c-0.553,0-1,0.447-1,1S51.947,24,52.5,24z"
   style="fill:#F0C419;" />
	<path
   id="path10401"
   d="M55.5,38h-3c-0.553,0-1,0.447-1,1s0.447,1,1,1h3c0.553,0,1-0.447,1-1S56.053,38,55.5,38z"
   style="fill:#F0C419;" />
	<path
   id="path10403"
   d="M10.207,4.293c-0.391-0.391-1.023-0.391-1.414,0s-0.391,1.023,0,1.414l3,3   C11.988,8.902,12.244,9,12.5,9s0.512-0.098,0.707-0.293c0.391-0.391,0.391-1.023,0-1.414L10.207,4.293z"
   style="fill:#F0C419;" />
	<path
   id="path10405"
   d="M6.5,22h-3c-0.553,0-1,0.447-1,1s0.447,1,1,1h3c0.553,0,1-0.447,1-1S7.053,22,6.5,22z"
   style="fill:#F0C419;" />
	<path
   id="path10407"
   d="M6.5,38h-3c-0.553,0-1,0.447-1,1s0.447,1,1,1h3c0.553,0,1-0.447,1-1S7.053,38,6.5,38z"
   style="fill:#F0C419;" />
</g><path
     id="path10409"
     d="M30.5,8c-9.389,0-17,7.611-17,17v22h17V8z"
     style="fill:#FF5364;" /><rect
     id="rect10411"
     height="12"
     width="20"
     style="fill:#8697CB;"
     y="47"
     x="10.5" /><g
     id="g10413">
</g><g
     id="g10415">
</g><g
     id="g10417">
</g><g
     id="g10419">
</g><g
     id="g10421">
</g><g
     id="g10423">
</g><g
     id="g10425">
</g><g
     id="g10427">
</g><g
     id="g10429">
</g><g
     id="g10431">
</g><g
     id="g10433">
</g><g
     id="g10435">
</g><g
     id="g10437">
</g><g
     id="g10439">
</g><g
     id="g10441">
</g></g>
</svg>