<?xml version="1.0" encoding="iso-8859-1"?>
<!-- Generator: Adobe Illustrator 19.0.0, SVG Export Plug-In . SVG Version: 6.00 Build 0)  -->
<svg version="1.1" id="Capa_1" xmlns="http://www.w3.org/2000/svg" xmlns:xlink="http://www.w3.org/1999/xlink" x="0px" y="0px"
	 viewBox="0 0 512 512" style="enable-background:new 0 0 512 512;" xml:space="preserve">
<rect x="236" y="422" style="fill:#434343;" width="106" height="75"/>
<g>
	<rect x="170" y="422" style="fill:#636363;" width="86" height="75"/>
	<polygon style="fill:#636363;" points="512,377 216,317 256,452 512,452 	"/>
</g>
<polygon style="fill:#A1A1A1;" points="0,377 0,452 256,452 256,317 "/>
<polygon style="fill:#242424;" points="512,90 256,90 206,233.5 256,377 512,377 "/>
<rect y="90" style="fill:#163F69;" width="256" height="287"/>
<polygon style="fill:#636363;" points="417,482 256,482 236,497 256,512 417,512 "/>
<rect x="95" y="482" style="fill:#A1A1A1;" width="161" height="30"/>
<path style="fill:#D2D2D2;" d="M339.011,22.22C314.592,8.091,286.242,0,256,0l-20,79.667L256,166h83.011V22.22z"/>
<path style="fill:#E4E4E4;" d="M256,332c30.242,0,58.592-8.091,83.011-22.22V166H256l-20,83L256,332z"/>
<path style="fill:#828282;" d="M422,166c0-61.438-33.379-115.076-82.989-143.78L256,166l83.011,143.78
	C388.621,281.076,422,227.438,422,166z"/>
<path style="fill:#E4E4E4;" d="M256,0c-30.242,0-58.592,8.091-83.011,22.22V166H256V0z"/>
<path style="fill:#FFFFFF;" d="M172.989,309.78C197.408,323.909,225.758,332,256,332V166h-83.011V309.78z"/>
<path style="fill:#A1A1A1;" d="M172.989,22.22C123.379,50.924,90,104.562,90,166s33.379,115.076,82.989,143.78L256,166
	L172.989,22.22z"/>
<path style="fill:#242424;" d="M256,111l-20,55l20,55c30.376,0,55-24.624,55-55S286.376,111,256,111z"/>
<path style="fill:#163F69;" d="M201,166c0,30.376,24.624,55,55,55V111C225.624,111,201,135.624,201,166z"/>
<g>
</g>
<g>
</g>
<g>
</g>
<g>
</g>
<g>
</g>
<g>
</g>
<g>
</g>
<g>
</g>
<g>
</g>
<g>
</g>
<g>
</g>
<g>
</g>
<g>
</g>
<g>
</g>
<g>
</g>
</svg>
