<?xml version="1.0"?>
<svg xmlns="http://www.w3.org/2000/svg" viewBox="0 0 64 64" width="512" height="512"><g id="Truck"><path d="M10,3V48h3V42a5.992,5.992,0,0,1,3-5.191V24a4,4,0,0,1,4-4H44a4,4,0,0,1,4,4V36.809A5.992,5.992,0,0,1,51,42v6h3V3Z" style="fill:#ed1c24"/><rect x="10" y="3" width="44" height="4" style="fill:#d51920"/><rect x="10" y="35" width="44" height="4" style="fill:#d51920"/><rect x="10" y="44" width="44" height="4" style="fill:#d51920"/><rect x="10" y="27" width="44" height="4" style="fill:#d51920"/><rect x="10" y="19" width="44" height="4" style="fill:#d51920"/><rect x="10" y="11" width="44" height="4" style="fill:#d51920"/><path d="M13,57a4,4,0,0,0,8,0V53H13Z" style="fill:#58595b"/><path d="M47,61a4,4,0,0,0,4-4V53H43v4A4,4,0,0,0,47,61Z" style="fill:#58595b"/><polygon points="56 53 56 48 54 48 51 48 39 48 25 48 13 48 10 48 8 48 8 53 13 53 21 53 43 53 51 53 56 53" style="fill:#a7a9ac"/><path d="M48,24V36.81A5.984,5.984,0,0,0,45,36H19a5.984,5.984,0,0,0-3,.81V24a4,4,0,0,1,4-4H44A4,4,0,0,1,48,24Z" style="fill:#2488ff"/><path d="M51,42v6H13V42a5.92,5.92,0,0,1,.83-3.04A6.026,6.026,0,0,1,19,36H45a6.015,6.015,0,0,1,6,6Z" style="fill:#006df0"/><rect x="25" y="42" width="14" height="3" style="fill:#f1f2f2"/><rect x="25" y="45" width="14" height="3" style="fill:#d9dada"/><circle cx="19" cy="43" r="2" style="fill:#f1f2f2"/><circle cx="45" cy="43" r="2" style="fill:#f1f2f2"/><rect x="20" y="24" width="24" height="8" style="fill:#f1f2f2"/><path d="M21,13h0a1,1,0,0,1,1,1v6a0,0,0,0,1,0,0H20a0,0,0,0,1,0,0V14A1,1,0,0,1,21,13Z" style="fill:#a7a9ac"/><path d="M43,13h0a1,1,0,0,1,1,1v6a0,0,0,0,1,0,0H42a0,0,0,0,1,0,0V14A1,1,0,0,1,43,13Z" style="fill:#a7a9ac"/></g></svg>
