<?xml version="1.0" encoding="iso-8859-1"?>
<!-- Generator: Adobe Illustrator 19.0.0, SVG Export Plug-In . SVG Version: 6.00 Build 0)  -->
<svg version="1.1" id="Layer_1" xmlns="http://www.w3.org/2000/svg" xmlns:xlink="http://www.w3.org/1999/xlink" x="0px" y="0px"
	 viewBox="0 0 491.52 491.52" style="enable-background:new 0 0 491.52 491.52;" xml:space="preserve">
<path style="fill:#64798A;" d="M469.453,80.431H22.067C9.88,80.431,0,90.31,0,102.497v366.956c0,12.187,9.88,22.067,22.067,22.067
	h447.387c12.185,0,22.067-9.88,22.067-22.067V102.497C491.52,90.31,481.639,80.431,469.453,80.431z"/>
<g>
	<rect x="35.748" y="171.791" style="fill:#EBF0F3;" width="420.045" height="284.006"/>
	<rect x="35.748" y="112.133" style="fill:#EBF0F3;" width="300.339" height="25.405"/>
</g>
<rect x="35.748" y="442.317" style="fill:#D5D6DB;" width="420.045" height="13.435"/>
<circle style="fill:#FCD462;" cx="363.827" cy="124.836" r="12.703"/>
<circle style="fill:#44C4A1;" cx="403.456" cy="124.836" r="12.703"/>
<circle style="fill:#E56353;" cx="443.085" cy="124.836" r="12.703"/>
<rect x="58.45" y="189.798" style="fill:#FCD462;" width="101.724" height="101.724"/>
<rect x="58.45" y="318.157" style="fill:#27A2DB;" width="101.724" height="101.724"/>
<rect x="58.45" y="271.616" style="fill:#F6C358;" width="101.724" height="19.922"/>
<rect x="58.45" y="399.974" style="fill:#2D93BA;" width="101.724" height="19.922"/>
<g>
	<rect x="194.765" y="189.798" style="fill:#D5D6DB;" width="235.571" height="17.874"/>
	<rect x="194.765" y="233.856" style="fill:#D5D6DB;" width="235.571" height="17.874"/>
	<rect x="194.765" y="277.914" style="fill:#D5D6DB;" width="127.939" height="17.874"/>
	<rect x="194.765" y="316.037" style="fill:#D5D6DB;" width="235.571" height="17.874"/>
	<rect x="194.765" y="360.09" style="fill:#D5D6DB;" width="235.571" height="17.874"/>
	<rect x="194.765" y="404.127" style="fill:#D5D6DB;" width="127.939" height="17.874"/>
</g>
<polygon style="fill:#E56353;" points="237.167,0 22.13,0 103.4,119.504 103.4,240.213 155.898,207.62 155.898,119.504 "/>
<g>
</g>
<g>
</g>
<g>
</g>
<g>
</g>
<g>
</g>
<g>
</g>
<g>
</g>
<g>
</g>
<g>
</g>
<g>
</g>
<g>
</g>
<g>
</g>
<g>
</g>
<g>
</g>
<g>
</g>
</svg>
