<?xml version="1.0" ?><svg version="1.1" viewBox="17.3332996368408 10.6667003631592 133.333707809448 146.666292190552" xmlns="http://www.w3.org/2000/svg" xmlns:xlink="http://www.w3.org/1999/xlink"><defs><linearGradient id="def0" x1="-1.5058E-07" x2="1" y1="0.5" y2="0.5"><stop offset="0" stop-color="#E6E6E8"/><stop offset="1" stop-color="#939597"/></linearGradient><linearGradient id="def1" x1="-2.30728E-08" x2="1" y1="0.5" y2="0.5"><stop offset="0" stop-color="#BCBDBF"/><stop offset="1" stop-color="#D0D2D3"/></linearGradient><linearGradient id="def2" x1="0.5" x2="0.5" y1="1" y2="8.17435E-07"><stop offset="0" stop-color="#6D6D70" style="stop-opacity:0.501960784313725"/><stop offset="1" stop-color="#BCBDBF" style="stop-opacity:0.501960784313725"/></linearGradient><linearGradient id="def3" x1="0.5" x2="0.5" y1="1" y2="8.4771E-07"><stop offset="0" stop-color="#6D6D70" style="stop-opacity:0.501960784313725"/><stop offset="1" stop-color="#BCBDBF" style="stop-opacity:0.501960784313725"/></linearGradient><linearGradient id="def4" x1="0.5" x2="0.5" y1="1" y2="1.27157E-06"><stop offset="0" stop-color="#BCBDBF"/><stop offset="1" stop-color="#6D6D70"/></linearGradient><linearGradient id="def5" x1="0.500009" x2="0.500009" y1="1" y2="1.04037E-06"><stop offset="0" stop-color="#BCBDBF"/><stop offset="1" stop-color="#6D6D70"/></linearGradient><linearGradient id="def6" x1="0.5" x2="0.5" y1="1" y2="0"><stop offset="0" stop-color="#BCBDBF"/><stop offset="1" stop-color="#6D6D70"/></linearGradient><linearGradient id="def7" x1="0.500009" x2="0.500009" y1="1" y2="0"><stop offset="0" stop-color="#BCBDBF"/><stop offset="1" stop-color="#6D6D70"/></linearGradient></defs><g><path d="M150.667,150.667L100,157.333 100,10.6667 150.667,16 150.667,150.667z" fill="url(#def0)"/><path d="M100,157.333L17.3333,138.667 17.3333,28 100,10.6667 100,157.333z" fill="url(#def1)"/><path d="M140,69.3333L146.667,69.3333 146.667,76.852 140,77.9653 140,69.3333z" fill="#66CC33"/><path d="M148,68L140,68 140,78.7507 148,77.4173 M146.667,69.3333L146.667,76.2867 141.333,77.18 141.333,69.3333 146.667,69.3333z" fill="#009900"/><path d="M140,83.2507L146.667,82.1373 146.667,90.1867 140,91.2987 140,83.2507z" fill="#66CC33"/><path d="M148,81.3516L140,82.6849 140,92.0849 148,90.7516 M146.667,82.6663L146.667,89.6196 141.333,90.5129 141.333,83.8156 146.667,82.9236 146.667,82.6663z" fill="#009900"/><g><path d="M147.333,37.3333L104.667,36 104.667,18.6667 147.333,22.6667 147.333,37.3333z" fill="url(#def2)"/><path d="M147.333,58L104.667,58 104.667,40 147.333,41.3333 147.333,58z" fill="url(#def3)"/></g><path d="M146.667,126L104,130 104,120.667 146.667,118 146.667,126z" fill="url(#def4)"/><path d="M93.3333,130.667L21.3333,121.333 21.3333,116 93.3333,121.333 93.3333,130.667z" fill="url(#def5)"/><path d="M146.667,138L104,143.333 104,134 146.667,130 146.667,138z" fill="url(#def6)"/><path d="M93.3333,144L21.3333,132 21.3333,125.333 93.3333,134.667 93.3333,144z" fill="url(#def7)"/><path d="M23.3405,26.7403L96.8859,14.3683 100.001,88.2963 102.486,14.3683 150.667,16.0003 100.001,10.6669 23.3405,26.7403z" fill="#FFFFFF" style="fill-opacity:0.501960784313725"/></g></svg>