<?xml version="1.0" ?><svg style="enable-background:new 0 0 70 70;" version="1.1" viewBox="0 0 70 70" xml:space="preserve" xmlns="http://www.w3.org/2000/svg" xmlns:xlink="http://www.w3.org/1999/xlink"><style type="text/css">
	.st0{fill:#E5E5E5;}
	.st1{fill:#231F20;}
	.st2{fill:#8CE014;}
	.st3{fill:#E0C214;}
	.st4{fill:#E2134E;}
	.st5{fill:#FFFFFF;}
</style><g id="Warstwa_2"><rect class="st0" height="70" id="XMLID_5_" width="70"/></g><g id="Warstwa_1"><rect class="st1" height="7" id="XMLID_1_" width="70"/><rect class="st1" height="3.5" id="XMLID_6_" width="70" y="66.5"/><path class="st2" d="M5.5,5L5.5,5C4.7,5,4,4.3,4,3.5v0C4,2.7,4.7,2,5.5,2h0C6.3,2,7,2.7,7,3.5v0C7,4.3,6.3,5,5.5,5z" id="XMLID_2_"/><path class="st3" d="M12.5,5L12.5,5C11.7,5,11,4.3,11,3.5v0C11,2.7,11.7,2,12.5,2h0C13.3,2,14,2.7,14,3.5v0   C14,4.3,13.3,5,12.5,5z" id="XMLID_3_"/><path class="st4" d="M19.5,5L19.5,5C18.7,5,18,4.3,18,3.5v0C18,2.7,18.7,2,19.5,2h0C20.3,2,21,2.7,21,3.5v0   C21,4.3,20.3,5,19.5,5z" id="XMLID_4_"/></g><g id="Warstwa_3"><rect class="st5" height="59.5" id="XMLID_7_" width="58" x="6" y="7"/><rect class="st1" height="30" id="XMLID_8_" width="22" x="24" y="21"/><rect class="st1" height="2" id="XMLID_11_" width="14" x="8" y="21"/><rect class="st1" height="2" id="XMLID_9_" width="14" x="8" y="25"/><rect class="st1" height="2" id="XMLID_10_" width="14" x="8" y="29"/><rect class="st1" height="2" id="XMLID_14_" width="14" x="8" y="33"/><rect class="st1" height="2" id="XMLID_19_" width="14" x="8" y="53"/><rect class="st1" height="2" id="XMLID_20_" width="14" x="8" y="57"/><rect class="st1" height="2" id="XMLID_22_" width="14" x="8" y="61"/><rect class="st1" height="10" id="XMLID_21_" width="22" x="24" y="53"/><rect class="st1" height="14" id="XMLID_18_" width="14" x="8" y="37"/><rect class="st1" height="10" id="XMLID_12_" width="54" x="8" y="9"/><rect class="st1" height="2" id="XMLID_13_" width="14" x="48" y="21"/><rect class="st1" height="2" id="XMLID_23_" width="6" x="48" y="25"/><g id="XMLID_26_"><rect class="st1" height="2" id="XMLID_24_" width="6" x="48" y="25"/><rect class="st1" height="2" id="XMLID_25_" width="6" x="56" y="25"/></g><g id="XMLID_27_"><rect class="st1" height="2" id="XMLID_29_" width="6" x="48" y="29"/><rect class="st1" height="2" id="XMLID_28_" width="6" x="56" y="29"/></g><g id="XMLID_30_"><rect class="st1" height="2" id="XMLID_32_" width="6" x="48" y="33"/><rect class="st1" height="2" id="XMLID_31_" width="6" x="56" y="33"/></g></g></svg>