<?xml version="1.0" encoding="UTF-8" standalone="no"?>
<!-- Generator: Adobe Illustrator 19.0.0, SVG Export Plug-In . SVG Version: 6.00 Build 0)  -->

<svg
   xmlns:dc="http://purl.org/dc/elements/1.1/"
   xmlns:cc="http://creativecommons.org/ns#"
   xmlns:rdf="http://www.w3.org/1999/02/22-rdf-syntax-ns#"
   xmlns:svg="http://www.w3.org/2000/svg"
   xmlns="http://www.w3.org/2000/svg"
   xmlns:sodipodi="http://sodipodi.sourceforge.net/DTD/sodipodi-0.dtd"
   xmlns:inkscape="http://www.inkscape.org/namespaces/inkscape"
   version="1.1"
   id="Layer_1"
   x="0px"
   y="0px"
   viewBox="0 0 496.158 496.158"
   style="enable-background:new 0 0 496.158 496.158;"
   xml:space="preserve"
   inkscape:version="0.48.5 r10040"
   width="100%"
   height="100%"
   sodipodi:docname="four.svg"><metadata
   id="metadata18574"><rdf:RDF><cc:Work
       rdf:about=""><dc:format>image/svg+xml</dc:format><dc:type
         rdf:resource="http://purl.org/dc/dcmitype/StillImage" /></cc:Work></rdf:RDF></metadata><defs
   id="defs18572" /><sodipodi:namedview
   pagecolor="#ffffff"
   bordercolor="#666666"
   borderopacity="1"
   objecttolerance="10"
   gridtolerance="10"
   guidetolerance="10"
   inkscape:pageopacity="0"
   inkscape:pageshadow="2"
   inkscape:window-width="640"
   inkscape:window-height="480"
   id="namedview18570"
   showgrid="false"
   inkscape:zoom="0.47565493"
   inkscape:cx="248.079"
   inkscape:cy="248.079"
   inkscape:window-x="0"
   inkscape:window-y="0"
   inkscape:window-maximized="0"
   inkscape:current-layer="Layer_1" />
















<g
   id="g18576"><path
     id="path18536"
     d="M248.082,0.003C111.07,0.003,0,111.061,0,248.085c0,137,111.07,248.07,248.082,248.07  c137.006,0,248.076-111.07,248.076-248.07C496.158,111.061,385.088,0.003,248.082,0.003z"
     style="fill:#56B48C;" /><path
     id="path18538"
     d="M324.983,279.892c-4.541-2.051-10.572-3.076-18.091-3.076h-6.299V163.437  c0-16.992-7.423-25.488-22.266-25.488c-4.591,0-8.521,1.538-11.792,4.614c-3.273,3.076-7.448,8.034-12.524,14.868l-77.637,103.857  c-2.149,2.833-3.955,5.226-5.42,7.178c-1.465,1.955-2.882,3.98-4.248,6.079c-1.369,2.101-2.394,4.102-3.076,6.006  c-0.685,1.904-1.025,3.786-1.025,5.64c0,7.228,2.318,12.941,6.958,17.139c4.637,4.2,11.595,6.299,20.874,6.299h73.535v27.246  c0,7.324,1.685,12.868,5.054,16.626s7.787,5.64,13.257,5.64c5.566,0,10.009-1.831,13.33-5.493c3.319-3.662,4.98-9.251,4.98-16.772  V309.63h8.936c7.42,0,12.987-1.293,16.699-3.882c3.71-2.586,5.566-6.713,5.566-12.378  C331.795,286.436,329.524,281.943,324.983,279.892z M263.973,276.816h-62.988l62.988-85.107V276.816z"
     style="fill:#FFFFFF;" /><g
     id="g18540">
</g><g
     id="g18542">
</g><g
     id="g18544">
</g><g
     id="g18546">
</g><g
     id="g18548">
</g><g
     id="g18550">
</g><g
     id="g18552">
</g><g
     id="g18554">
</g><g
     id="g18556">
</g><g
     id="g18558">
</g><g
     id="g18560">
</g><g
     id="g18562">
</g><g
     id="g18564">
</g><g
     id="g18566">
</g><g
     id="g18568">
</g></g>
</svg>