<?xml version="1.0" encoding="iso-8859-1"?>
<!-- Generator: Adobe Illustrator 19.0.0, SVG Export Plug-In . SVG Version: 6.00 Build 0)  -->
<svg version="1.1" id="Capa_1" xmlns="http://www.w3.org/2000/svg" xmlns:xlink="http://www.w3.org/1999/xlink" x="0px" y="0px"
	 viewBox="0 0 491.52 491.52" style="enable-background:new 0 0 491.52 491.52;" xml:space="preserve">
<circle style="fill:#E05B49;" cx="245.76" cy="245.76" r="245.76"/>
<path style="fill:#EBF0F3;" d="M375.4,104.96H116.12c-6.165,0-11.16,4.997-11.16,11.16V375.4c0,6.163,4.995,11.16,11.16,11.16H375.4
	c6.162,0,11.16-4.996,11.16-11.16V116.12C386.56,109.957,381.562,104.96,375.4,104.96z"/>
<polygon style="fill:#64798A;" points="125.437,125.44 125.437,295.67 179.738,295.67 311.777,295.67 366.077,295.67 
	366.077,125.44 "/>
<g>
	<polygon style="fill:#3A556A;" points="125.437,125.44 125.437,135.595 179.738,135.595 311.777,135.595 366.077,135.595 
		366.077,125.44 	"/>
	<polygon style="fill:#3A556A;" points="179.738,295.67 179.738,334.857 201.317,334.857 290.197,334.857 311.777,334.857 
		311.777,295.67 	"/>
</g>
<polyline style="fill:#2F4859;" points="201.317,334.857 201.317,364.714 290.197,364.714 290.197,334.857 "/>
<rect x="139.674" y="144.538" style="fill:#FCD462;" width="18.12" height="38.497"/>
<rect x="136.827" y="150.871" style="fill:#F6C358;" width="20.833" height="38.497"/>
<rect x="136.827" y="144.538" style="fill:#FCD462;" width="20.833" height="38.497"/>
<rect x="176.23" y="150.871" style="fill:#F6C358;" width="20.833" height="38.497"/>
<rect x="176.23" y="144.538" style="fill:#FCD462;" width="20.833" height="38.497"/>
<rect x="215.654" y="150.871" style="fill:#F6C358;" width="20.833" height="38.497"/>
<rect x="215.654" y="144.538" style="fill:#FCD462;" width="20.833" height="38.497"/>
<rect x="255.043" y="150.871" style="fill:#F6C358;" width="20.833" height="38.497"/>
<rect x="255.043" y="144.538" style="fill:#FCD462;" width="20.833" height="38.497"/>
<rect x="294.451" y="150.871" style="fill:#F6C358;" width="20.833" height="38.497"/>
<rect x="294.451" y="144.538" style="fill:#FCD462;" width="20.833" height="38.497"/>
<rect x="333.875" y="150.871" style="fill:#F6C358;" width="20.833" height="38.497"/>
<rect x="333.875" y="144.538" style="fill:#FCD462;" width="20.833" height="38.497"/>
<g>
</g>
<g>
</g>
<g>
</g>
<g>
</g>
<g>
</g>
<g>
</g>
<g>
</g>
<g>
</g>
<g>
</g>
<g>
</g>
<g>
</g>
<g>
</g>
<g>
</g>
<g>
</g>
<g>
</g>
</svg>
