<?xml version="1.0" encoding="iso-8859-1"?>
<!-- Generator: Adobe Illustrator 19.0.0, SVG Export Plug-In . SVG Version: 6.00 Build 0)  -->
<svg version="1.1" id="Capa_1" xmlns="http://www.w3.org/2000/svg" xmlns:xlink="http://www.w3.org/1999/xlink" x="0px" y="0px"
	 viewBox="0 0 409.6 409.6" style="enable-background:new 0 0 409.6 409.6;" xml:space="preserve">
<circle style="fill:#334D5C;" cx="204.8" cy="204.8" r="204.8"/>
<path style="opacity:0.1;enable-background:new    ;" d="M409.036,219.249l-93.12-93.12h-97.28v24.747l-61.184-61.184H92.428v35.2
	h-4.949v67.541c0,4.943,2.271,9.323,5.803,12.347l-0.054,0.02l18.017,18.018v6.949c0,0.292,0.13,0.543,0.307,0.745l-0.012,0.009
	l0.027,0.027c0.017,0.018,0.031,0.032,0.049,0.049l5.731,5.731v2.868l1.963,1.962v49.536c0,7.929,3.178,15.116,8.313,20.383v0.001
	l0.002,0.002c0.173,0.178,0.348,0.353,0.526,0.526l96.983,96.983C323.952,398.848,402.085,318.863,409.036,219.249z"/>
<path style="fill:#FCD462;" d="M247.55,319.909h-99.03c-16.1,0-29.199-13.095-29.199-29.194v-91.342
	c0-3.101,2.514-5.615,5.615-5.615s5.615,2.514,5.615,5.615v91.342c0,9.905,8.059,17.964,17.968,17.964h99.029
	c8.502,0,15.415-6.914,15.415-15.411v-88.653c0-3.101,2.514-5.615,5.615-5.615c3.101,0,5.615,2.514,5.615,5.615v88.653
	C274.195,307.96,262.241,319.909,247.55,319.909z"/>
<rect x="92.44" y="89.69" style="fill:#F6C358;" width="65.01" height="36.437"/>
<rect x="92.44" y="118.88" style="fill:#E1E6E9;" width="65.01" height="7.245"/>
<path style="fill:#44C4A1;" d="M163.653,124.895v67.556c0,9.105-7.601,16.487-16.976,16.487h-42.234
	c-9.376,0-16.976-7.381-16.976-16.487v-67.556C87.467,124.895,163.653,124.895,163.653,124.895z"/>
<g>
	<rect x="134.75" y="95.28" style="fill:#3A556A;" width="10.351" height="20.288"/>
	<rect x="104.78" y="95.28" style="fill:#3A556A;" width="10.351" height="20.288"/>
</g>
<rect x="218.67" y="126.13" style="fill:#F6C358;" width="97.28" height="36.437"/>
<rect x="218.67" y="155.31" style="fill:#E1E6E9;" width="97.28" height="7.245"/>
<path style="fill:#44C4A1;" d="M322.133,160.622v36.066c0,9.067-7.601,16.418-16.976,16.418h-74.503
	c-9.376,0-16.976-7.351-16.976-16.418v-36.066L322.133,160.622L322.133,160.622z"/>
<g>
	<rect x="293.25" y="131.72" style="fill:#3A556A;" width="10.351" height="20.288"/>
	<rect x="231" y="131.72" style="fill:#3A556A;" width="10.351" height="20.288"/>
</g>
<g>
	<path style="fill:#FFFFFF;" d="M150.363,153.342h-13.497c-1.923,0-3.483,1.559-3.483,3.483s1.56,3.483,3.483,3.483h3.265v8.523
		L129.7,172.54V140.3l7.907,7.993c1.349,1.369,3.558,1.38,4.925,0.027c1.367-1.353,1.381-3.558,0.027-4.925l-15.862-16.035
		l-16.023,16.022c-1.361,1.359-1.361,3.565,0,4.925c0.68,0.68,1.572,1.02,2.463,1.02s1.782-0.34,2.462-1.02l7.134-7.133v36.025
		c-0.011,0.129-0.004,0.26,0,0.391v6.424l-11.628-4.135v-8.783c0-0.099-0.021-0.192-0.029-0.289h3.174
		c1.923,0,3.483-1.559,3.483-3.483s-1.56-3.483-3.483-3.483h-13.497c-1.923,0-3.483,1.559-3.483,3.483s1.56,3.483,3.483,3.483h3.415
		c-0.008,0.097-0.029,0.19-0.029,0.289v13.699l18.594,6.612v2.945c-1.058,1.019-1.723,2.443-1.723,4.028
		c0,3.093,2.507,5.599,5.599,5.599s5.599-2.507,5.599-5.599c0-1.95-0.999-3.663-2.51-4.666v-13.78l17.397-6.186v-13.439h3.265
		c1.923,0,3.483-1.559,3.483-3.483C153.846,154.901,152.286,153.342,150.363,153.342z"/>
	<path style="fill:#FFFFFF;" d="M282.867,178.227h-8.479c-1.208,0-2.188,0.979-2.188,2.188s0.98,2.188,2.188,2.188h2.051v5.354
		l-6.553,2.33v-20.254l4.967,5.021c0.848,0.86,2.235,0.867,3.094,0.017s0.868-2.235,0.017-3.094L268,161.905l-10.066,10.065
		c-0.855,0.854-0.855,2.239,0,3.094c0.427,0.427,0.987,0.641,1.547,0.641s1.12-0.214,1.547-0.641l4.482-4.481v22.632
		c-0.007,0.081-0.002,0.163,0,0.245v4.036l-7.305-2.598v-5.518c0-0.062-0.013-0.121-0.018-0.182h1.994
		c1.208,0,2.188-0.979,2.188-2.188s-0.98-2.188-2.188-2.188h-8.479c-1.208,0-2.188,0.979-2.188,2.188s0.98,2.188,2.188,2.188h2.145
		c-0.005,0.061-0.018,0.119-0.018,0.182v8.606l11.681,4.154v1.85c-0.665,0.64-1.082,1.535-1.082,2.53
		c0,1.943,1.575,3.518,3.518,3.518s3.518-1.575,3.518-3.518c0-1.225-0.627-2.301-1.577-2.931v-8.657l10.929-3.886v-8.443h2.051
		c1.208,0,2.188-0.979,2.188-2.188C285.055,179.207,284.075,178.227,282.867,178.227z"/>
</g>
<g>
	<rect x="261.12" y="213.11" style="fill:#CE412D;" width="15.748" height="9.933"/>
	<rect x="261.08" y="233.84" style="fill:#CE412D;" width="15.603" height="9.532"/>
</g>
<path style="fill:#3A556A;" d="M282.461,235.067H256.11c-0.623,0-1.133-0.51-1.133-1.133v-11.501c0-0.623,0.51-1.133,1.133-1.133
	h26.351c0.623,0,1.133,0.51,1.133,1.133v11.501C283.594,234.557,283.084,235.067,282.461,235.067z"/>
<g>
	<rect x="117.41" y="208.94" style="fill:#CE412D;" width="15.748" height="9.933"/>
	<rect x="117.33" y="229.68" style="fill:#CE412D;" width="15.603" height="9.532"/>
</g>
<path style="fill:#3A556A;" d="M138.735,230.9h-26.351c-0.623,0-1.133-0.51-1.133-1.133v-11.501c0-0.623,0.51-1.133,1.133-1.133
	h26.351c0.623,0,1.133,0.51,1.133,1.133v11.501C139.869,230.39,139.359,230.9,138.735,230.9z"/>
<g>
</g>
<g>
</g>
<g>
</g>
<g>
</g>
<g>
</g>
<g>
</g>
<g>
</g>
<g>
</g>
<g>
</g>
<g>
</g>
<g>
</g>
<g>
</g>
<g>
</g>
<g>
</g>
<g>
</g>
</svg>
