<?xml version="1.0" encoding="iso-8859-1"?>
<!-- Generator: Adobe Illustrator 19.0.0, SVG Export Plug-In . SVG Version: 6.00 Build 0)  -->
<svg version="1.1" id="Layer_1" xmlns="http://www.w3.org/2000/svg" xmlns:xlink="http://www.w3.org/1999/xlink" x="0px" y="0px"
	 viewBox="0 0 512 512" style="enable-background:new 0 0 512 512;" xml:space="preserve">
<g>
	<g>
		<g>
			<path d="M469.333,85.333H42.667C19.146,85.333,0,104.469,0,128v256c0,23.531,19.146,42.667,42.667,42.667h426.667
				C492.854,426.667,512,407.531,512,384V128C512,104.469,492.854,85.333,469.333,85.333z M490.667,384
				c0,11.76-9.563,21.333-21.333,21.333H42.667c-11.771,0-21.333-9.573-21.333-21.333V128c0-11.76,9.563-21.333,21.333-21.333
				h426.667c11.771,0,21.333,9.573,21.333,21.333V384z"/>
			<path d="M363.521,160H148.479C119.542,160,96,184.688,96,215.031c0,3.594,0.333,7.177,1,10.688l15.438,81.927
				c4.854,25.698,26.5,44.354,51.479,44.354h184.167c24.979,0,46.625-18.656,51.479-44.354L415,225.719c0.667-3.51,1-7.094,1-10.688
				C416,184.688,392.458,160,363.521,160z M394.042,221.76l-15.438,81.927c-2.958,15.635-15.792,26.979-30.521,26.979H163.917
				c-14.729,0-27.563-11.344-30.521-26.979l-15.438-81.927c-0.417-2.219-0.625-4.469-0.625-6.729
				c0-18.583,13.979-33.698,31.146-33.698h215.042c17.167,0,31.146,15.115,31.146,33.698
				C394.667,217.292,394.458,219.542,394.042,221.76z"/>
			<circle cx="64" cy="256" r="21.333"/>
			<circle cx="448" cy="256" r="21.333"/>
			<circle cx="160" cy="213.333" r="10.667"/>
			<circle cx="202.667" cy="213.333" r="10.667"/>
			<circle cx="245.333" cy="213.333" r="10.667"/>
			<circle cx="288" cy="213.333" r="10.667"/>
			<circle cx="330.667" cy="213.333" r="10.667"/>
			<circle cx="160" cy="298.667" r="10.667"/>
			<circle cx="202.667" cy="298.667" r="10.667"/>
			<circle cx="245.333" cy="298.667" r="10.667"/>
			<circle cx="288" cy="298.667" r="10.667"/>
			<circle cx="330.667" cy="298.667" r="10.667"/>
			<circle cx="181.333" cy="256" r="10.667"/>
			<circle cx="224" cy="256" r="10.667"/>
			<circle cx="266.667" cy="256" r="10.667"/>
			<circle cx="309.333" cy="256" r="10.667"/>
			<circle cx="352" cy="256" r="10.667"/>
		</g>
	</g>
</g>
<g>
</g>
<g>
</g>
<g>
</g>
<g>
</g>
<g>
</g>
<g>
</g>
<g>
</g>
<g>
</g>
<g>
</g>
<g>
</g>
<g>
</g>
<g>
</g>
<g>
</g>
<g>
</g>
<g>
</g>
</svg>
