<?xml version="1.0" ?><svg enable-background="new 0 0 32 32" height="32px" id="svg2" version="1.1" viewBox="0 0 32 32" width="32px" xml:space="preserve" xmlns="http://www.w3.org/2000/svg" xmlns:cc="http://creativecommons.org/ns#" xmlns:dc="http://purl.org/dc/elements/1.1/" xmlns:inkscape="http://www.inkscape.org/namespaces/inkscape" xmlns:rdf="http://www.w3.org/1999/02/22-rdf-syntax-ns#" xmlns:sodipodi="http://sodipodi.sourceforge.net/DTD/sodipodi-0.dtd" xmlns:svg="http://www.w3.org/2000/svg"><g id="background"><rect fill="none" height="32" width="32"/></g><g id="semantic_x5F_web"><path d="M8,10.001V22l6-5.999L8,10.001z M24,22V10l-6,6L24,22z M22.002,7.999H9.998L16,14L22.002,7.999z M10,24h12l-5.998-6L10,24z    M28,22.101V9.899c2.282-0.463,4-2.48,4-4.899c0-2.761-2.238-5-5-5c-2.419,0-4.436,1.718-4.899,4H9.899C9.436,1.718,7.419,0,5,0   C2.239,0,0,2.239,0,5c0,2.419,1.718,4.436,4,4.899v12.201C1.718,22.564,0,24.581,0,27c0,2.762,2.239,5,5,5   c2.419,0,4.436-1.718,4.899-4h12.201c0.464,2.282,2.48,4,4.899,4c2.762,0,5-2.238,5-5C32,24.581,30.282,22.564,28,22.101z    M26,22.101c-1.959,0.397-3.502,1.94-3.899,3.899H9.899C9.501,24.041,7.959,22.498,6,22.101V9.899C7.959,9.501,9.501,7.959,9.899,6   h12.201c0.397,1.959,1.94,3.501,3.899,3.899V22.101z"/></g></svg>